<svg width="600" height="102" viewBox="0 0 600 102" fill="none" xmlns="http://www.w3.org/2000/svg">
<path d="M156.72 87.3186L185.028 14.5127H193.28L221.483 87.3186H209.888L189.206 29.9722L168.419 87.3186H156.72ZM173.433 71.1279L176.671 61.6224H201.532L205.083 71.1279H173.433Z" fill="#1A1A1A"/>
<path d="M246.592 88.2587C241.926 88.2587 237.887 87.1097 234.475 84.8117C231.062 82.444 228.381 79.2407 226.432 75.2017C224.551 71.0931 223.611 66.5318 223.611 61.5179C223.611 56.0166 224.621 51.2812 226.641 47.3119C228.73 43.3426 231.515 40.2785 234.997 38.1198C238.479 35.961 242.344 34.8816 246.592 34.8816C249.656 34.8816 252.441 35.5084 254.948 36.7618C257.525 38.0153 259.683 39.7563 261.424 41.9846C263.165 44.213 264.384 46.8244 265.08 49.8189L262.469 50.6545V14.5127H272.601V87.3186H262.469V72.4858L265.498 72.5903C264.593 75.9329 263.235 78.788 261.424 81.1557C259.614 83.4537 257.42 85.2295 254.844 86.4829C252.337 87.6668 249.586 88.2587 246.592 88.2587ZM248.681 78.8577C251.675 78.8577 254.252 78.1265 256.41 76.6641C258.639 75.2017 260.345 73.1822 261.529 70.6056C262.782 67.9594 263.409 64.9302 263.409 61.5179C263.409 58.1057 262.782 55.1113 261.529 52.5347C260.345 49.8885 258.639 47.869 256.41 46.4763C254.252 45.0139 251.675 44.2827 248.681 44.2827C245.756 44.2827 243.179 45.0139 240.951 46.4763C238.723 47.869 236.982 49.8885 235.728 52.5347C234.544 55.1113 233.952 58.1057 233.952 61.5179C233.952 64.9302 234.544 67.9594 235.728 70.6056C236.982 73.1822 238.723 75.2017 240.951 76.6641C243.179 78.1265 245.756 78.8577 248.681 78.8577Z" fill="#1A1A1A"/>
<path d="M316.467 87.3186L315.631 77.8131V54.9372C315.631 51.3161 314.587 48.5306 312.498 46.5807C310.409 44.6309 307.379 43.6559 303.41 43.6559C300.625 43.6559 297.943 44.213 295.367 45.3272C292.86 46.4414 290.457 48.252 288.159 50.759L281.788 44.1782C284.852 40.9749 288.229 38.6421 291.92 37.1797C295.68 35.6476 299.754 34.8816 304.141 34.8816C311.035 34.8816 316.363 36.6574 320.123 40.2089C323.953 43.6908 325.868 48.6002 325.868 54.9372V87.3186H316.467ZM299.859 88.2587C296.028 88.2587 292.651 87.5623 289.726 86.1696C286.802 84.7768 284.538 82.8618 282.937 80.4245C281.335 77.9175 280.534 75.0276 280.534 71.7546C280.534 68.8995 281.126 66.4622 282.31 64.4427C283.494 62.3536 285.026 60.7519 286.906 59.6377C288.647 58.5235 290.632 57.7575 292.86 57.3397C295.158 56.8522 297.595 56.6085 300.172 56.6085H316.571V64.3383H301.634C300.242 64.3383 298.779 64.4775 297.247 64.7561C295.785 64.965 294.531 65.4524 293.487 66.2185C292.651 66.8452 291.989 67.646 291.502 68.621C291.015 69.5262 290.771 70.6056 290.771 71.8591C290.771 74.2964 291.711 76.2463 293.591 77.7086C295.471 79.171 297.978 79.9022 301.112 79.9022C303.758 79.9022 306.161 79.3103 308.319 78.1265C310.548 76.873 312.324 75.2017 313.647 73.1126C314.97 70.9538 315.631 68.5165 315.631 65.8006L319.287 70.6056C318.661 74.2268 317.442 77.3953 315.631 80.1111C313.821 82.7573 311.558 84.7768 308.842 86.1696C306.196 87.5623 303.201 88.2587 299.859 88.2587Z" fill="#1A1A1A"/>
<path d="M359.151 87.3186V14.5127H374.82L396.442 70.5012H394.562L416.184 14.5127H431.748V87.3186H421.094V26.8385L422.034 27.0474L400.62 81.0512H390.279L368.866 27.0474L369.806 26.8385V87.3186H359.151Z" fill="#1A1A1A"/>
<path d="M465.557 88.2587C460.682 88.2587 456.33 87.1097 452.5 84.8117C448.67 82.5136 445.641 79.3451 443.412 75.3061C441.253 71.2672 440.174 66.6711 440.174 61.5179C440.174 56.3648 441.253 51.8035 443.412 47.8342C445.571 43.7952 448.565 40.6267 452.395 38.3287C456.295 36.0307 460.682 34.8816 465.557 34.8816C470.501 34.8816 474.853 36.0307 478.614 38.3287C482.374 40.6267 485.334 43.7952 487.493 47.8342C489.721 51.8035 490.835 56.3648 490.835 61.5179C490.835 66.6711 489.721 71.2672 487.493 75.3061C485.334 79.2755 482.34 82.444 478.509 84.8117C474.749 87.1097 470.432 88.2587 465.557 88.2587ZM465.557 79.171C468.621 79.171 471.267 78.4398 473.496 76.9774C475.794 75.5151 477.535 73.4608 478.718 70.8145C479.972 68.1683 480.599 65.0694 480.599 61.5179C480.599 57.8968 479.972 54.7631 478.718 52.1169C477.535 49.4707 475.794 47.4512 473.496 46.0584C471.267 44.5961 468.621 43.8649 465.557 43.8649C462.423 43.8649 459.707 44.5961 457.409 46.0584C455.181 47.5208 453.44 49.5751 452.186 52.2213C451.003 54.7979 450.411 57.8968 450.411 61.5179C450.411 65.0694 451.003 68.1683 452.186 70.8145C453.44 73.4608 455.181 75.5151 457.409 76.9774C459.707 78.4398 462.423 79.171 465.557 79.171Z" fill="#1A1A1A"/>
<path d="M519.157 88.2587C514.491 88.2587 510.452 87.1097 507.04 84.8117C503.628 82.444 500.947 79.2407 498.997 75.2017C497.117 71.0931 496.176 66.5318 496.176 61.5179C496.176 56.0166 497.186 51.2812 499.206 47.3119C501.295 43.3426 504.08 40.2785 507.562 38.1198C511.044 35.961 514.909 34.8816 519.157 34.8816C522.221 34.8816 525.006 35.5084 527.513 36.7618C530.09 38.0153 532.249 39.7563 533.99 41.9846C535.73 44.213 536.949 46.8244 537.645 49.8189L535.034 50.6545V14.5127H545.166V87.3186H535.034V72.4858L538.063 72.5903C537.158 75.9329 535.8 78.788 533.99 81.1557C532.179 83.4537 529.985 85.2295 527.409 86.4829C524.902 87.6668 522.151 88.2587 519.157 88.2587ZM521.246 78.8577C524.24 78.8577 526.817 78.1265 528.976 76.6641C531.204 75.2017 532.91 73.1822 534.094 70.6056C535.347 67.9594 535.974 64.9302 535.974 61.5179C535.974 58.1057 535.347 55.1113 534.094 52.5347C532.91 49.8885 531.204 47.869 528.976 46.4763C526.817 45.0139 524.24 44.2827 521.246 44.2827C518.321 44.2827 515.745 45.0139 513.516 46.4763C511.288 47.869 509.547 49.8885 508.293 52.5347C507.109 55.1113 506.518 58.1057 506.518 61.5179C506.518 64.9302 507.109 67.9594 508.293 70.6056C509.547 73.1822 511.288 75.2017 513.516 76.6641C515.745 78.1265 518.321 78.8577 521.246 78.8577Z" fill="#1A1A1A"/>
<path d="M577.542 88.2587C573.364 88.2587 569.743 87.5623 566.679 86.1696C563.615 84.7768 561.073 82.8618 559.053 80.4245C557.034 77.9175 555.502 75.0972 554.457 71.9635C553.482 68.7602 552.995 65.4176 552.995 61.9358C552.995 58.4539 553.482 55.1113 554.457 51.908C555.432 48.635 556.895 45.7451 558.844 43.2381C560.794 40.6615 563.232 38.6421 566.156 37.1797C569.151 35.6476 572.667 34.8816 576.706 34.8816C580.745 34.8816 584.227 35.578 587.152 36.9708C590.077 38.2939 592.479 40.1741 594.359 42.6114C596.24 44.9791 597.632 47.6601 598.538 50.6545C599.513 53.6489 600 56.8174 600 60.16C600 60.5082 599.965 61.1698 599.896 62.1447C599.896 63.05 599.826 63.9204 599.687 64.7561H563.232C563.44 69.3521 564.833 72.9037 567.41 75.4106C570.056 77.8479 573.538 79.0666 577.855 79.0666C580.78 79.0666 583.392 78.6139 585.69 77.7086C587.988 76.7337 590.112 75.2365 592.061 73.217L598.329 79.6933C596.309 81.7128 594.22 83.3493 592.061 84.6027C589.972 85.8562 587.744 86.7615 585.376 87.3186C583.078 87.9453 580.467 88.2587 577.542 88.2587ZM589.868 59.6377C590.007 59.0806 590.077 58.5235 590.077 57.9664C590.146 57.4093 590.181 56.8522 590.181 56.2951C590.181 54.6935 589.903 53.1266 589.346 51.5946C588.788 50.0626 587.953 48.7047 586.839 47.5208C585.724 46.2673 584.332 45.2924 582.66 44.5961C581.059 43.83 579.178 43.447 577.02 43.447C574.165 43.447 571.727 44.1086 569.708 45.4317C567.688 46.6852 566.121 48.3565 565.007 50.4456C563.963 52.5347 563.336 54.7979 563.127 57.2352H593.21L589.868 59.6377Z" fill="#1A1A1A"/>
<path d="M104.855 8.34154C104.855 8.07934 104.803 7.79678 104.682 7.48244C104.223 6.50073 103.072 6.02555 102.025 6.46395L102.024 6.46316L31.4366 36.8559C31.4054 36.8693 31.3739 36.8823 31.3422 36.8942C31.0455 37.0048 30.6404 37.337 30.3823 37.9143C29.9469 38.8884 30.3925 40.08 31.4174 40.5091C31.4224 40.5112 31.4276 40.5133 31.4326 40.5155L47.4144 47.3556L83.2976 32.0042L99.4538 25.0724C99.4582 25.0699 99.4639 25.0678 99.4698 25.0645C99.495 25.05 99.5971 24.9902 99.7057 24.9361C99.8846 24.8472 100.108 24.7575 100.377 24.7034C101.403 24.3223 102.531 24.1967 103.569 24.3329C103.999 24.3803 104.429 24.4596 104.855 24.5704V8.34154ZM49.5997 72.3491L102.005 94.7797C102.333 94.9079 102.626 94.9613 102.899 94.9614C104.071 94.9614 104.966 94.0271 104.966 92.9109V76.6709L104.412 76.7817C104.28 76.8079 104.146 76.8207 104.012 76.8207H101.787C101.653 76.8207 101.518 76.8079 101.386 76.7817L101.03 76.7107H101.009C100.286 76.7107 99.6622 76.3952 99.473 76.2971L95.6447 74.6666L95.6383 74.6642L69.9842 63.6258L49.5997 72.3491ZM102.677 30.5012C102.615 30.5012 102.514 30.5105 102.397 30.5362C102.28 30.5622 102.193 30.5948 102.145 30.6183C102.111 30.6354 102.076 30.6518 102.041 30.6669L84.2518 38.2928L84.2526 38.2936L77.8583 41.0454L82.3497 42.9437C82.3599 42.9481 82.3707 42.9528 82.3809 42.9573C84.9134 44.0764 86.8095 46.3186 87.317 49.1543C87.4158 49.4558 87.4513 49.7255 87.4674 49.9018C87.4913 50.1634 87.4898 50.4266 87.4898 50.5712C87.4897 53.3489 86.0322 56.1423 83.4767 57.6369C83.0831 57.8904 82.7379 58.0658 82.2953 58.2202L77.8743 60.0882L98.0356 68.7055L98.0588 68.7151L102.061 70.4843L102.145 70.5233C102.44 70.6698 102.972 70.7274 103.588 70.5233L103.745 70.4779C103.813 70.4613 103.882 70.4492 103.952 70.4396L103.998 70.4245C104.007 70.4184 104.016 70.4113 104.025 70.4054C104.627 70.0243 104.964 69.3661 104.966 68.7071L104.855 32.5581V32.4409C104.855 31.411 103.848 30.4456 102.779 30.4988C102.745 30.5005 102.711 30.5012 102.677 30.5012ZM31.7301 60.9242C31.1663 61.2106 30.8053 61.5648 30.6047 62.0136C30.1964 62.9269 30.5623 64.0319 31.4542 64.52L31.6397 64.6093L31.6589 64.6172L41.6368 68.9119L61.9004 60.2906L47.5272 54.1192L31.7301 60.9242ZM55.3677 50.5704L69.7626 56.7499L79.6844 52.4791L80.1692 52.2376C80.3452 52.1136 80.4537 52.0146 80.5227 51.9308C80.5918 51.8469 80.6426 51.7565 80.6763 51.6224L80.7267 51.4534C80.746 51.3976 80.7674 51.3424 80.7915 51.2885C81.227 50.3142 80.7815 49.1219 79.7564 48.6928C79.7501 48.6902 79.7435 48.6876 79.7372 48.6849L69.7626 44.391L55.3677 50.5704ZM6.43033 80.7504C6.43033 81.018 6.4825 81.3073 6.60951 81.6294C7.04236 82.6318 8.1421 83.0961 9.26035 82.628L33.6259 72.2455L29.1577 70.3576L29.1521 70.3552C27.0628 69.465 25.61 67.8441 24.7631 66.0198C24.7516 65.9951 24.7399 65.9701 24.7295 65.9449C22.9863 61.7566 24.8456 56.7675 29.1753 54.9862L39.5387 50.5704L29.1521 46.145C27.0628 45.2548 25.61 43.634 24.7631 41.8097C24.7516 41.7849 24.7399 41.76 24.7295 41.7348C22.9863 37.5465 24.8456 32.5574 29.1753 30.7761L33.6347 28.8913L9.39393 18.5224C9.06567 18.3934 8.77045 18.3407 8.49725 18.3407C8.10512 18.3407 7.72394 18.4526 7.407 18.6627C7.39499 18.6706 7.38318 18.6789 7.37101 18.6866C6.76677 19.0689 6.43033 19.7301 6.43033 20.3912V80.7504ZM111.285 32.5453L111.396 68.6944V92.8001C111.396 94.0134 111.094 95.1725 110.674 96.148C110.669 96.1583 110.665 96.1689 110.66 96.1791C108.761 100.392 103.918 102.292 99.6713 100.545C99.6627 100.541 99.6536 100.538 99.645 100.534L41.5192 75.6739L11.7488 88.3747H11.748C10.7678 88.7923 9.6041 89.0919 8.38607 89.0919C3.6777 89.0919 0 85.2848 0 80.7504V20.3912C0 19.3007 0.30256 18.1683 0.523929 17.3979L0.569523 17.2585C0.586307 17.2127 0.604679 17.1674 0.624716 17.123C2.4648 13.0422 7.06743 11.1309 11.2137 12.6036L11.6136 12.7566L11.6416 12.7685L41.5224 25.5769L99.645 0.71804L99.6482 0.717243C100.586 0.317824 101.645 6.11889e-05 102.899 0C107.473 0 111.285 3.78373 111.285 8.34154V32.5453Z" fill="#1A1A1A"/>
</svg>
