<svg id="Layer_1" data-name="Layer 1" xmlns="http://www.w3.org/2000/svg" viewBox="0 0 588.14 176.11"><defs><style>.cls-1{fill:#082a3a;}</style></defs><path class="cls-1" d="M179.26,117.52h-6.82l20.39-56.64h6.45l20.31,56.64h-7.16l-5.87-17.46H185.13ZM196,69h-.23L187,94.69h17.69Z"/><path class="cls-1" d="M244.33,73.27a15.16,15.16,0,0,1,8.29,2,10.79,10.79,0,0,1,4.41,5h.3V57.87h6.52v59.65h-6.18v-6.9h-.34a9.66,9.66,0,0,1-4.34,5.24,17.87,17.87,0,0,1-21.06-2.57q-4.63-4.87-4.64-13.07v-9q0-8,4.64-13T244.33,73.27Zm.88,5.79a10.37,10.37,0,0,0-8.37,3.64q-3.06,3.64-3.07,10.16v5.72q0,6.56,3.15,10.21a10.68,10.68,0,0,0,8.54,3.66,11.16,11.16,0,0,0,8.63-3.52q3.24-3.53,3.24-9.59V91.18a11.84,11.84,0,0,0-3.41-8.67A11.72,11.72,0,0,0,245.21,79.06Z"/><path class="cls-1" d="M290.84,118.25a16.44,16.44,0,0,1-5.76-1,13.26,13.26,0,0,1-4.5-2.71,12.29,12.29,0,0,1-2.89-4.21,13.92,13.92,0,0,1-1.07-5.51,12.45,12.45,0,0,1,1.72-6.63,11.52,11.52,0,0,1,5.2-4.44,19.62,19.62,0,0,1,8.33-1.62h11.66V87.68q0-4.35-2.53-6.45c-1.69-1.39-4.08-2.09-7.15-2.09q-7.55,0-9.23,5.22H278.3a10.66,10.66,0,0,1,4.7-8.29q4.19-2.8,11.15-2.8c4.71,0,8.54,1.16,11.52,3.48s4.46,6,4.46,10.85v29.92h-6.37v-5.87h-.23Q299.42,118.25,290.84,118.25Zm1.64-5.64a11.38,11.38,0,0,0,7.87-2.86,9.21,9.21,0,0,0,3.18-7.13V97.55H292q-4.45,0-6.56,2a7.64,7.64,0,0,0,.58,11A10.32,10.32,0,0,0,292.48,112.61Z"/><path class="cls-1" d="M351.07,117.52H345V60.88h6.36l19.14,45.36h.23l19-45.36h6.44v56.64h-6V75.32h-.42l-16.17,37.86h-5.94L351.37,75.32h-.3Z"/><path class="cls-1" d="M428.41,73.27q8.16,0,13.3,5.07t5.15,14v6.9q0,8.88-5.19,14a18.13,18.13,0,0,1-13.26,5.09q-8.28,0-13.38-5t-5.11-14v-6.9q0-8.58,5.22-13.8A18,18,0,0,1,428.41,73.27ZM416.4,93v5.45a17.82,17.82,0,0,0,1.43,7.44,11,11,0,0,0,4.14,4.84,11.79,11.79,0,0,0,6.44,1.71,10.75,10.75,0,0,0,8.75-3.77q3.13-3.78,3.14-10.22V93q0-6.36-3.22-10.16a10.76,10.76,0,0,0-8.65-3.79,11,11,0,0,0-8.73,3.83Q416.4,86.73,416.4,93Z"/><path class="cls-1" d="M474.88,73.27a15.18,15.18,0,0,1,8.29,2,10.77,10.77,0,0,1,4.4,5h.31V57.87h6.51v59.65h-6.17v-6.9h-.34a9.64,9.64,0,0,1-4.35,5.24,15.84,15.84,0,0,1-8.88,2.31,16,16,0,0,1-12.18-4.88q-4.64-4.87-4.63-13.07v-9q0-8,4.63-13T474.88,73.27Zm.87,5.79a10.34,10.34,0,0,0-8.36,3.64q-3.08,3.64-3.07,10.16v5.72q0,6.56,3.14,10.21a10.68,10.68,0,0,0,8.54,3.66,11.17,11.17,0,0,0,8.64-3.52q3.24-3.53,3.24-9.59V91.18a11.75,11.75,0,0,0-12.13-12.12Z"/><path class="cls-1" d="M525.8,118.25q-8.53,0-13.38-5.13t-4.84-13.86V92.21q0-8.58,5-13.76a18.33,18.33,0,0,1,25.54,0Q543,83.64,543,92.21v5.34H514.14v2.21a13.5,13.5,0,0,0,3.07,9.11q3.06,3.59,8.59,3.58a12.24,12.24,0,0,0,6.39-1.54,7.11,7.11,0,0,0,3.3-3.72h6.9a10.18,10.18,0,0,1-1.45,3.66,16.61,16.61,0,0,1-3.09,3.55,14.82,14.82,0,0,1-5.09,2.78A21.62,21.62,0,0,1,525.8,118.25ZM514.14,92.52h22.3v-.77A15.47,15.47,0,0,0,535.05,85a10.27,10.27,0,0,0-3.93-4.44,11,11,0,0,0-5.85-1.54,10.26,10.26,0,0,0-8.06,3.45q-3.08,3.45-3.07,9.24Z"/><path class="cls-1" d="M140.41,71.71V49.8a5.7,5.7,0,0,0-7.94-5.23L79.52,67.36,52,55.53a5.7,5.7,0,0,0-7.94,5.23v54.6A5.68,5.68,0,0,0,52,120.58l27.48-11.82,53,22.78a5.69,5.69,0,0,0,7.94-5.23V104.4h0V71.71Zm-7.15-25.3a3.69,3.69,0,0,1,5.15,3.39V67.38a6,6,0,0,0-.57-.42,5.7,5.7,0,0,0-2.65-.92,5.56,5.56,0,0,0-2.21.27,3.82,3.82,0,0,0-.51.18l-14.58,6.27L84.88,87,69.82,80.49a3.69,3.69,0,0,1,0-6.78Zm5.15,58a3.64,3.64,0,0,1-1.67,3.08,3.18,3.18,0,0,1-.4.23l-.29.13-.13,0a3.65,3.65,0,0,1-2.66-.1l-3.64-1.57-22.1-9.51,8-3.43a5.45,5.45,0,0,0,.76-.39,5.6,5.6,0,0,0,2.68-4.83,5.87,5.87,0,0,0-.06-.85,5.59,5.59,0,0,0-3.38-4.38l-8-3.43,9.71-4.18,16-6.89a3.73,3.73,0,0,1,1.33-.31,3.71,3.71,0,0,1,3.82,3.69ZM115.26,91.14a3.1,3.1,0,0,1-.57.3L105,95.62,87.41,88.06,105,80.49l9.7,4.18a3.69,3.69,0,0,1,.57,6.47ZM79.61,106.62l-9.74-4.2a3.68,3.68,0,0,1,0-6.75l15-6.48,17.6,7.56ZM51.25,118.74a3.68,3.68,0,0,1-5.15-3.38V60.76a3.63,3.63,0,0,1,1.66-3.08,3.68,3.68,0,0,1,2-.62,3.63,3.63,0,0,1,1.47.31L77,68.45l-8,3.42a5.69,5.69,0,0,0,0,10.45l13.32,5.74L69,93.79a5.69,5.69,0,0,0,0,10.45l0,0a.05.05,0,0,1,0,0L77,107.67Zm87.16,7.57a3.68,3.68,0,0,1-5.15,3.39l-51.12-22,23-9.87L129,108.11l3.51,1.51a4.29,4.29,0,0,0,.63.23l.16,0,.48.11.2,0,.46,0h.32l.2,0a3.59,3.59,0,0,0,.47,0l.3,0,.47-.11.28-.08a4.09,4.09,0,0,0,.49-.18l.23-.1a7,7,0,0,0,.66-.36l0,0,.12-.09a4.71,4.71,0,0,0,.45-.33Z"/></svg>