<svg xmlns="http://www.w3.org/2000/svg" viewBox="0 0 773.52 1033.93"><defs><style>.cls-1{fill:#fff;}.cls-2{fill:#1bc691;}.cls-3{fill:#1a1a1a;}.cls-4{fill:#082a3a;}</style></defs><g id="Layer_4" data-name="Layer 4"><circle class="cls-1" cx="388.17" cy="421.67" r="94.24"/><path class="cls-2" d="M388.17,516.66a95,95,0,1,1,95-95A95.09,95.09,0,0,1,388.17,516.66Zm0-188.48a93.49,93.49,0,1,0,93.48,93.49A93.6,93.6,0,0,0,388.17,328.18Z"/><circle class="cls-1" cx="388.17" cy="399.29" r="21.83"/><path class="cls-2" d="M388.17,421.87a22.59,22.59,0,1,1,22.58-22.58A22.61,22.61,0,0,1,388.17,421.87Zm0-43.67a21.09,21.09,0,1,0,21.08,21.09A21.11,21.11,0,0,0,388.17,378.2Z"/><path class="cls-1" d="M421.17,465.88c0-24.81-14.78-44.93-33-44.93s-33,20.12-33,44.93Z"/><path class="cls-2" d="M421.17,466.63h-66a.74.74,0,0,1-.75-.75c0-25.18,15.14-45.68,33.76-45.68s33.75,20.5,33.75,45.68A.74.74,0,0,1,421.17,466.63Zm-65.26-1.5h64.51c-.3-24-14.65-43.43-32.25-43.43S356.21,441.12,355.91,465.13Z"/><path class="cls-2" d="M149.56,309.19a.75.75,0,0,1-.75-.75V257.28a.75.75,0,0,1,1.5,0v51.16A.74.74,0,0,1,149.56,309.19Z"/><path class="cls-2" d="M143.8,265.48a.6.6,0,0,0,.83-.18l4.93-7.74,4.93,7.74a.6.6,0,0,0,.83.18.61.61,0,0,0,.19-.83l-5.44-8.53a.6.6,0,0,0-1,0l-5.44,8.53a.66.66,0,0,0-.09.33A.58.58,0,0,0,143.8,265.48Z"/><path class="cls-2" d="M143.8,300.24a.6.6,0,0,1,.83.19l4.93,7.74,4.93-7.74a.6.6,0,0,1,.83-.19.61.61,0,0,1,.19.83l-5.44,8.54a.6.6,0,0,1-1,0l-5.44-8.54a.62.62,0,0,1-.09-.32A.6.6,0,0,1,143.8,300.24Z"/><circle class="cls-2" cx="149.56" cy="149.13" r="94.24"/><path class="cls-1" d="M115.82,196.84h-5.49l-1.06,3.37H106.1l5.38-15.63h3.21l5.36,15.63h-3.16Zm-4.71-2.46h3.94l-1.93-6.14h-.07Z"/><path class="cls-1" d="M125.61,184.58l4,11.52h.07l4-11.52h4.11v15.63h-3.14v-4.66l.3-6.9h-.06l-4.19,11.57h-2.11l-4.17-11.53h-.06l.3,6.86v4.66h-3.14V184.58Z"/><path class="cls-1" d="M154.58,196.84h-5.49L148,200.21h-3.16l5.38-15.63h3.21l5.36,15.63h-3.17Zm-4.72-2.46h3.94l-1.93-6.14h-.06Z"/><path class="cls-1" d="M163.52,185.75v2.84h2v2.2h-2v5.92a1.4,1.4,0,0,0,.28,1,1,1,0,0,0,.75.29,2.63,2.63,0,0,0,.43,0l.41-.09.27,2.27a5.43,5.43,0,0,1-.92.24,6,6,0,0,1-1,.08,3.38,3.38,0,0,1-2.5-.89,4,4,0,0,1-.87-2.83v-5.93h-1.7v-2.2h1.7v-2.84Z"/><path class="cls-1" d="M170.77,200.21h-3.13V183.46h3.13Z"/><path class="cls-1" d="M180.17,200.21a6.75,6.75,0,0,1-.29-.83,5.63,5.63,0,0,1-.18-.91,4.3,4.3,0,0,1-1.27,1.41,3.22,3.22,0,0,1-1.89.56,3.9,3.9,0,0,1-2.81-.94,3.37,3.37,0,0,1-1-2.56,3.07,3.07,0,0,1,1.32-2.65,6.58,6.58,0,0,1,3.83-.94h1.76v-.92a1.81,1.81,0,0,0-.44-1.3,2.07,2.07,0,0,0-2.48-.09,1.28,1.28,0,0,0-.41,1h-3V192a3,3,0,0,1,1.27-2.54,5.55,5.55,0,0,1,3.56-1.07,5.14,5.14,0,0,1,3.38,1.06,3.64,3.64,0,0,1,1.3,3v4.8a8.42,8.42,0,0,0,.13,1.54,7.51,7.51,0,0,0,.39,1.42Zm-2.87-2.09a2.72,2.72,0,0,0,1.48-.41,2.14,2.14,0,0,0,.87-.94v-1.65h-1.76a2.1,2.1,0,0,0-1.51.5,1.66,1.66,0,0,0-.52,1.21,1.18,1.18,0,0,0,.39.93A1.49,1.49,0,0,0,177.3,198.12Z"/><path class="cls-1" d="M191.45,197a1.11,1.11,0,0,0-.5-.89,5,5,0,0,0-1.85-.66,7.56,7.56,0,0,1-3.11-1.24,2.7,2.7,0,0,1-1.05-2.24,3.21,3.21,0,0,1,1.26-2.56,5.17,5.17,0,0,1,3.38-1,5.58,5.58,0,0,1,3.54,1,3,3,0,0,1,1.26,2.63l0,.07h-3a1.54,1.54,0,0,0-.44-1.14,2.15,2.15,0,0,0-2.51-.07,1.15,1.15,0,0,0-.43.93,1.06,1.06,0,0,0,.46.88,5,5,0,0,0,1.85.61,7.66,7.66,0,0,1,3.19,1.26,2.79,2.79,0,0,1,1,2.29,3.08,3.08,0,0,1-1.34,2.57,5.86,5.86,0,0,1-3.55,1,5.33,5.33,0,0,1-3.66-1.18,3.29,3.29,0,0,1-1.29-2.68l0-.06h2.87a1.64,1.64,0,0,0,.61,1.35,2.53,2.53,0,0,0,1.52.42A2.14,2.14,0,0,0,191,198,1.1,1.1,0,0,0,191.45,197Z"/><path class="cls-1" d="M160.89,103.69a24.11,24.11,0,0,0-18.66-.49,24.69,24.69,0,0,0-15.73,23.38c0,.36,0,.65,0,1a.92.92,0,1,0,1.84-.1v-.89a22.85,22.85,0,0,1,1.94-9.58,22.59,22.59,0,0,1,12.57-12.07,22.3,22.3,0,0,1,17.25.45,22.88,22.88,0,0,1-1.09,42.16,22.27,22.27,0,0,1-17.24-.45.92.92,0,0,0-.75,1.68,24.31,24.31,0,0,0,9.9,2.14h0a24.55,24.55,0,0,0,24.44-24.66,25.61,25.61,0,0,0-.32-4A24.56,24.56,0,0,0,160.89,103.69Z"/><path class="cls-1" d="M105.93,128.2a3.86,3.86,0,0,0,2.67,1h0a3.85,3.85,0,0,0,3.22-1.75L125.06,134a3.72,3.72,0,0,0,.51,2.87,3.84,3.84,0,0,0,7.13-2v0a3.92,3.92,0,0,0-.55-2L146,119a3.85,3.85,0,0,0,2,.55,3.78,3.78,0,0,0,2.33-.81l9.87,7.9a3.87,3.87,0,1,0,7.37,1.64v0a3.76,3.76,0,0,0-.41-1.68l4.5-3.83.09-.08a.92.92,0,1,0-1.28-1.32l-4.5,3.82a3.86,3.86,0,0,0-4.61,0l-9.88-7.91a3.86,3.86,0,0,0,.35-1.6v0a3.75,3.75,0,0,0-2.2-3.48,3.9,3.9,0,0,0-5.53,3.55,3.82,3.82,0,0,0,.57,2L130.86,131.6a3.84,3.84,0,0,0-5,.81l-13.45-6.67c0-.12,0-.24,0-.36v0a3.76,3.76,0,0,0-2.13-3.46,3.89,3.89,0,0,0-5.39,4.75l-3.24,2.64-1.12.88a1,1,0,0,0-.26,1.2h0a1,1,0,0,0,1.47.29Zm10.81,33.87a.91.91,0,0,0,1.29,0l17.54-17.85a.92.92,0,0,0,0-1.31l0,0s0,0,0,0a23.21,23.21,0,0,1-2.32-2.54l0,0a.92.92,0,0,0-1.42,1.18,25,25,0,0,0,1.87,2.11l-16.9,17.21a.91.91,0,0,0,0,1.3Zm47.05-35.78h0a2,2,0,0,1,1.43.61.74.74,0,0,0,.16.2,2,2,0,0,1,.41,1.21v0a2,2,0,0,1-4-.06,2,2,0,0,1,.33-1.08,1,1,0,0,0,.15-.14.87.87,0,0,0,.11-.18A2,2,0,0,1,163.79,126.29ZM148.06,113.7a2,2,0,0,1,2,2v0a2,2,0,0,1-2.06,2,2,2,0,0,1-1.29-.5.61.61,0,0,0-.07-.1l-.11-.08a2,2,0,0,1-.52-1.37A2,2,0,0,1,148.06,113.7Zm-19.2,19.17a2,2,0,0,1,2,2v0a2,2,0,0,1-4.05,0,1.86,1.86,0,0,1,.14-.7.58.58,0,0,0,.11-.15,1.72,1.72,0,0,0,.07-.21A2,2,0,0,1,128.86,132.87Zm-20.26-9.51a2,2,0,0,1,2,2v0a2,2,0,0,1-3.69,1.13.94.94,0,0,0-.12-.22h0a1.91,1.91,0,0,1-.23-1A2,2,0,0,1,108.6,123.36Z"/><path class="cls-1" d="M191.61,103.42,176,116.75a.93.93,0,0,0-.33.73.91.91,0,0,0,.95.89.82.82,0,0,0,.59-.22l15.65-13.33a3.76,3.76,0,0,0,2.28.73h0a3.84,3.84,0,0,0,3.84-3.86v0a3.87,3.87,0,0,0-7.73,0A3.75,3.75,0,0,0,191.61,103.42Zm3.48-3.75v0h0a2,2,0,0,1,2,2v0a2,2,0,0,1-3.45,1.41l-.09-.14-.11-.1a2,2,0,0,1,1.65-3.22Z"/><path class="cls-2" d="M149.56,561a1,1,0,0,1-1-1v-27.4a1,1,0,0,1,2,0V560A1,1,0,0,1,149.56,561Z"/><path class="cls-2" d="M141.88,543.55a.81.81,0,0,0,1.11-.25L149.56,533l6.58,10.32a.8.8,0,0,0,1.1.25.82.82,0,0,0,.25-1.11l-7.25-11.38a.81.81,0,0,0-.68-.37.79.79,0,0,0-.67.37l-7.25,11.38a.8.8,0,0,0,.24,1.11Z"/><path class="cls-2" d="M293.93,885.05h-95a50.42,50.42,0,0,1-50.36-50.36V769a1,1,0,0,1,2,0v65.69a48.42,48.42,0,0,0,48.36,48.36h95a1,1,0,1,1,0,2Z"/><path class="cls-2" d="M141.88,779.94a.82.82,0,0,0,1.11-.25l6.57-10.32,6.58,10.32a.8.8,0,0,0,1.1.25.82.82,0,0,0,.25-1.11l-7.25-11.38a.81.81,0,0,0-.68-.37.79.79,0,0,0-.67.37l-7.25,11.38a.75.75,0,0,0-.13.43A.82.82,0,0,0,141.88,779.94Z"/><path class="cls-2" d="M626.77,537.16a1,1,0,0,1-1-1V470.47a48.41,48.41,0,0,0-48.36-48.35h-95c-.55,0-.28-.45-.28-1s-.27-1,.28-1h95a50.41,50.41,0,0,1,50.36,50.35v65.69A1,1,0,0,1,626.77,537.16Z"/><path class="cls-2" d="M634.45,525.23a.81.81,0,0,0-1.11.24l-6.57,10.33-6.58-10.33a.79.79,0,0,0-1.1-.24.8.8,0,0,0-.25,1.1l7.25,11.38a.82.82,0,0,0,.68.37.79.79,0,0,0,.67-.37l7.25-11.38a.75.75,0,0,0,.13-.43A.79.79,0,0,0,634.45,525.23Z"/><path class="cls-2" d="M276.67,422.67H235a1,1,0,0,1,0-2h41.67a1,1,0,0,1,0,2Z"/><path class="cls-2" d="M265.73,414a.79.79,0,0,0,.25,1.1l10.32,6.58L266,428.24a.8.8,0,1,0,.86,1.35l11.38-7.25a.79.79,0,0,0,.37-.67.82.82,0,0,0-.37-.68l-11.38-7.25a.88.88,0,0,0-.43-.12A.8.8,0,0,0,265.73,414Z"/><path class="cls-2" d="M577.41,885.05H509.66a1,1,0,0,1,0-2h67.75a48.42,48.42,0,0,0,48.36-48.36V747.08a1,1,0,1,1,2,0v87.61A50.42,50.42,0,0,1,577.41,885.05Z"/><path class="cls-2" d="M520.6,891.72a.79.79,0,0,0-.25-1.1L510,884l10.32-6.57a.79.79,0,0,0,.25-1.1.81.81,0,0,0-1.11-.25l-11.38,7.25a.8.8,0,0,0,0,1.35L519.49,892a.89.89,0,0,0,.43.13A.8.8,0,0,0,520.6,891.72Z"/><circle class="cls-1" cx="388.17" cy="884.04" r="94.24"/><path class="cls-2" d="M388.17,979a95,95,0,1,1,95-95A95.09,95.09,0,0,1,388.17,979Zm0-188.47a93.49,93.49,0,1,0,93.48,93.49A93.6,93.6,0,0,0,388.17,790.56Z"/><path class="cls-3" d="M369.14,887.24H363.4l-1.11,3.53H359l5.62-16.35H368l5.61,16.35h-3.32Zm-4.93-2.57h4.12l-2-6.42h-.07Z"/><path class="cls-3" d="M381.39,887.42a1.13,1.13,0,0,0-.52-.93,5.29,5.29,0,0,0-1.94-.7,7.71,7.71,0,0,1-3.25-1.3,2.8,2.8,0,0,1-1.09-2.34,3.33,3.33,0,0,1,1.32-2.66,5.34,5.34,0,0,1,3.53-1.1,5.78,5.78,0,0,1,3.7,1.09,3.2,3.2,0,0,1,1.32,2.75l0,.07h-3.17a1.57,1.57,0,0,0-.47-1.19,1.84,1.84,0,0,0-1.36-.46,1.9,1.9,0,0,0-1.25.38,1.23,1.23,0,0,0-.46,1,1.11,1.11,0,0,0,.48.92,5.25,5.25,0,0,0,1.94.64,7.84,7.84,0,0,1,3.33,1.32,2.89,2.89,0,0,1,1.09,2.39,3.19,3.19,0,0,1-1.4,2.68,6,6,0,0,1-3.71,1,5.63,5.63,0,0,1-3.83-1.23,3.41,3.41,0,0,1-1.34-2.8l0-.07h3a1.69,1.69,0,0,0,.64,1.42,2.64,2.64,0,0,0,1.58.44,2.28,2.28,0,0,0,1.39-.36A1.18,1.18,0,0,0,381.39,887.42Z"/><path class="cls-3" d="M393.25,887.42a1.13,1.13,0,0,0-.52-.93,5.29,5.29,0,0,0-1.94-.7,7.71,7.71,0,0,1-3.25-1.3,2.8,2.8,0,0,1-1.09-2.34,3.33,3.33,0,0,1,1.32-2.66,5.34,5.34,0,0,1,3.53-1.1,5.78,5.78,0,0,1,3.7,1.09,3.2,3.2,0,0,1,1.32,2.75l0,.07h-3.17a1.6,1.6,0,0,0-.47-1.19,1.84,1.84,0,0,0-1.36-.46,1.9,1.9,0,0,0-1.25.38,1.23,1.23,0,0,0-.46,1,1.11,1.11,0,0,0,.48.92,5.25,5.25,0,0,0,1.94.64,7.84,7.84,0,0,1,3.33,1.32,2.89,2.89,0,0,1,1.09,2.39A3.19,3.19,0,0,1,395,890a6,6,0,0,1-3.71,1,5.61,5.61,0,0,1-3.83-1.23,3.45,3.45,0,0,1-1.35-2.8l0-.07h3a1.69,1.69,0,0,0,.64,1.42,2.64,2.64,0,0,0,1.58.44,2.28,2.28,0,0,0,1.39-.36A1.18,1.18,0,0,0,393.25,887.42Z"/><path class="cls-3" d="M403.92,891a5.48,5.48,0,0,1-4.2-1.68,6,6,0,0,1-1.57-4.28v-.45a6.66,6.66,0,0,1,1.49-4.46,5.55,5.55,0,0,1,7.81-.26,5.74,5.74,0,0,1,1.36,4v1.79h-7.26l0,.07a3.16,3.16,0,0,0,.8,2,2.5,2.5,0,0,0,1.94.78,6.52,6.52,0,0,0,1.81-.22,8.87,8.87,0,0,0,1.57-.69l.89,2a5.9,5.9,0,0,1-1.94,1A8.42,8.42,0,0,1,403.92,891Zm-.29-10.08a1.71,1.71,0,0,0-1.44.69,3.66,3.66,0,0,0-.65,1.83l0,.06h4v-.29a2.67,2.67,0,0,0-.49-1.67A1.76,1.76,0,0,0,403.63,880.92Z"/><path class="cls-3" d="M414.61,875.64v3h2.05v2.31h-2.05v6.18a1.43,1.43,0,0,0,.3,1,1,1,0,0,0,.78.3,3,3,0,0,0,.45,0l.43-.09.28,2.37a7.29,7.29,0,0,1-1,.25,6.4,6.4,0,0,1-1,.08,3.5,3.5,0,0,1-2.61-.93,4.09,4.09,0,0,1-.92-3v-6.2h-1.77v-2.31h1.77v-3Z"/><circle class="cls-1" cx="623.96" cy="654.25" r="94.24"/><path class="cls-2" d="M624,749.24a95,95,0,1,1,95-95A95.09,95.09,0,0,1,624,749.24Zm0-188.48a93.49,93.49,0,1,0,93.49,93.49A93.6,93.6,0,0,0,624,560.76Z"/><path class="cls-3" d="M577.87,627.8l0,.07a5.3,5.3,0,0,1-1.61,4.19,6.48,6.48,0,0,1-4.6,1.55,6.34,6.34,0,0,1-4.79-1.9,6.69,6.69,0,0,1-1.84-4.88v-3.25a6.82,6.82,0,0,1,1.79-4.88,6.11,6.11,0,0,1,4.67-1.91,6.8,6.8,0,0,1,4.74,1.55,5.36,5.36,0,0,1,1.67,4.24l0,.07H574.7a3.63,3.63,0,0,0-.77-2.48,3.11,3.11,0,0,0-2.42-.86,2.72,2.72,0,0,0-2.33,1.2,5.05,5.05,0,0,0-.87,3v3.26a5,5,0,0,0,.91,3.07,3,3,0,0,0,2.46,1.19,2.9,2.9,0,0,0,2.28-.82,3.6,3.6,0,0,0,.73-2.46Z"/><path class="cls-3" d="M579.45,627.19a6.54,6.54,0,0,1,1.52-4.46,6,6,0,0,1,8.42,0,6.48,6.48,0,0,1,1.53,4.46v.23a6.53,6.53,0,0,1-1.52,4.47,6,6,0,0,1-8.42,0,6.49,6.49,0,0,1-1.53-4.47Zm3.27.23a5.27,5.27,0,0,0,.59,2.66,2.25,2.25,0,0,0,3.74,0,5.32,5.32,0,0,0,.59-2.66v-.24a5.23,5.23,0,0,0-.59-2.63,2,2,0,0,0-1.88-1,2,2,0,0,0-1.86,1,5.28,5.28,0,0,0-.59,2.63Z"/><path class="cls-3" d="M595.94,621.22l.15,1.74a4.48,4.48,0,0,1,1.49-1.45,3.9,3.9,0,0,1,2-.51,3.62,3.62,0,0,1,2.87,1.16,5.32,5.32,0,0,1,1,3.62v7.59h-3.3v-7.59a2.46,2.46,0,0,0-.49-1.74,2,2,0,0,0-1.49-.52,2.46,2.46,0,0,0-1.17.27,2.51,2.51,0,0,0-.87.75v8.83h-3.27V621.22Z"/><path class="cls-3" d="M609.82,618.25v3h2v2.3h-2v6.19a1.45,1.45,0,0,0,.29,1,1,1,0,0,0,.79.31,2.76,2.76,0,0,0,.44,0,2.89,2.89,0,0,0,.43-.1l.29,2.37a6.38,6.38,0,0,1-1,.26,6.49,6.49,0,0,1-1,.08,3.5,3.5,0,0,1-2.61-.93,4.1,4.1,0,0,1-.92-3v-6.2h-1.77v-2.3h1.77v-3Z"/><path class="cls-3" d="M620.34,624l-1.2,0a2.23,2.23,0,0,0-1.2.3,2,2,0,0,0-.72.86v8.2H614V621.22h3l.14,1.8a3.94,3.94,0,0,1,1.11-1.49,2.48,2.48,0,0,1,1.57-.53,2.15,2.15,0,0,1,.45,0l.42.09Z"/><path class="cls-3" d="M621.5,627.19a6.54,6.54,0,0,1,1.52-4.46,5.3,5.3,0,0,1,4.2-1.73,5.36,5.36,0,0,1,4.22,1.73,6.48,6.48,0,0,1,1.53,4.46v.23a6.53,6.53,0,0,1-1.52,4.47,6,6,0,0,1-8.43,0,6.53,6.53,0,0,1-1.52-4.47Zm3.27.23a5.27,5.27,0,0,0,.58,2.66,2,2,0,0,0,1.89,1,2,2,0,0,0,1.86-1,5.32,5.32,0,0,0,.59-2.66v-.24a5.12,5.12,0,0,0-.6-2.63,2.2,2.2,0,0,0-3.73,0,5.28,5.28,0,0,0-.59,2.63Z"/><path class="cls-3" d="M638.44,633.37h-3.28V615.85h3.28Z"/><path class="cls-3" d="M654,633.37a6.83,6.83,0,0,1-.31-.87,6,6,0,0,1-.18-.94,4.57,4.57,0,0,1-1.33,1.47,3.35,3.35,0,0,1-2,.58,4.13,4.13,0,0,1-2.94-1,3.53,3.53,0,0,1-1-2.68,3.23,3.23,0,0,1,1.37-2.77,6.93,6.93,0,0,1,4-1h1.83v-1a1.9,1.9,0,0,0-.46-1.36,1.8,1.8,0,0,0-1.36-.48,1.78,1.78,0,0,0-1.23.39,1.35,1.35,0,0,0-.43,1.07h-3.17v-.07a3.07,3.07,0,0,1,1.34-2.65,5.78,5.78,0,0,1,3.71-1.12,5.45,5.45,0,0,1,3.54,1.1,3.83,3.83,0,0,1,1.36,3.16v5a9.13,9.13,0,0,0,.13,1.61,8.05,8.05,0,0,0,.41,1.49Zm-3-2.19a2.85,2.85,0,0,0,1.54-.42,2.29,2.29,0,0,0,.91-1v-1.72h-1.83a2.21,2.21,0,0,0-1.58.52,1.7,1.7,0,0,0-.54,1.27,1.24,1.24,0,0,0,.4,1A1.56,1.56,0,0,0,651,631.18Z"/><path class="cls-3" d="M662.21,621.22l.15,1.74a4.48,4.48,0,0,1,1.49-1.45,3.9,3.9,0,0,1,2-.51,3.62,3.62,0,0,1,2.87,1.16,5.32,5.32,0,0,1,1,3.62v7.59h-3.29v-7.59A2.46,2.46,0,0,0,666,624a2,2,0,0,0-1.49-.52,2.41,2.41,0,0,0-2,1v8.83h-3.28V621.22Z"/><path class="cls-3" d="M671.69,627.4a7.89,7.89,0,0,1,1.24-4.64,4,4,0,0,1,3.5-1.76,3.42,3.42,0,0,1,1.64.39,4,4,0,0,1,1.28,1.12v-6.66h3.29v17.52h-2.82l-.27-1.48a4,4,0,0,1-1.35,1.28,3.62,3.62,0,0,1-1.79.44,4.13,4.13,0,0,1-3.48-1.64,7,7,0,0,1-1.24-4.33Zm3.27.24a5,5,0,0,0,.54,2.52,1.86,1.86,0,0,0,1.75.92,2.54,2.54,0,0,0,1.23-.28,2.36,2.36,0,0,0,.87-.85v-5.2a2.48,2.48,0,0,0-.86-.9,2.23,2.23,0,0,0-1.22-.33,1.85,1.85,0,0,0-1.76,1.08,6.09,6.09,0,0,0-.55,2.8Z"/><path class="cls-3" d="M561.27,648.82l.14,1.61a4.1,4.1,0,0,1,1.46-1.35,4.21,4.21,0,0,1,2-.48,3.68,3.68,0,0,1,2,.52,3.2,3.2,0,0,1,1.26,1.56,4.21,4.21,0,0,1,1.46-1.53,3.93,3.93,0,0,1,2.11-.55,3.48,3.48,0,0,1,2.83,1.24,5.76,5.76,0,0,1,1,3.78V661h-3.28v-7.39a3.07,3.07,0,0,0-.45-1.92,1.61,1.61,0,0,0-1.33-.54,2.34,2.34,0,0,0-1.21.3,2.27,2.27,0,0,0-.81.87c0,.14,0,.26,0,.36s0,.21,0,.31v8h-3.27v-7.39a3.1,3.1,0,0,0-.45-1.91,1.63,1.63,0,0,0-1.35-.55,2.51,2.51,0,0,0-1.16.25,2.25,2.25,0,0,0-.82.71V661h-3.27V648.82Z"/><path class="cls-3" d="M585.26,661a7.59,7.59,0,0,1-.31-.88,5,5,0,0,1-.18-.94,4.6,4.6,0,0,1-1.34,1.47,3.3,3.3,0,0,1-2,.58,4.13,4.13,0,0,1-2.94-1,3.53,3.53,0,0,1-1-2.68,3.23,3.23,0,0,1,1.37-2.77,6.93,6.93,0,0,1,4-1h1.83v-1a1.9,1.9,0,0,0-.46-1.36,1.8,1.8,0,0,0-1.36-.48,1.78,1.78,0,0,0-1.23.39,1.37,1.37,0,0,0-.43,1.07h-3.17v-.07a3.07,3.07,0,0,1,1.34-2.65,5.78,5.78,0,0,1,3.71-1.12,5.4,5.4,0,0,1,3.54,1.11,3.8,3.8,0,0,1,1.36,3.15v5a9.1,9.1,0,0,0,.13,1.6,8.37,8.37,0,0,0,.41,1.5Zm-3-2.19a2.85,2.85,0,0,0,1.54-.43,2.24,2.24,0,0,0,.91-1v-1.72h-1.83a2.19,2.19,0,0,0-1.58.52,1.7,1.7,0,0,0-.54,1.27,1.27,1.27,0,0,0,.4,1A1.61,1.61,0,0,0,582.26,658.79Z"/><path class="cls-3" d="M593.93,645.92h-3.28v-2.46h3.28Zm0,15.06h-3.28V648.82h3.28Z"/><path class="cls-3" d="M599.62,648.82l.15,1.75a4.3,4.3,0,0,1,1.49-1.45,3.84,3.84,0,0,1,2-.52,3.67,3.67,0,0,1,2.88,1.16,5.38,5.38,0,0,1,1,3.62V661h-3.29v-7.6a2.46,2.46,0,0,0-.5-1.74,2,2,0,0,0-1.49-.51,2.51,2.51,0,0,0-1.17.26,2.47,2.47,0,0,0-.86.75V661h-3.28V648.82Z"/><path class="cls-3" d="M613.5,645.85v3h2v2.31h-2v6.18a1.43,1.43,0,0,0,.3,1,1,1,0,0,0,.78.3,2.9,2.9,0,0,0,.45,0l.43-.09.28,2.36a6.08,6.08,0,0,1-1,.26,6.4,6.4,0,0,1-1,.08,3.5,3.5,0,0,1-2.61-.93,4.09,4.09,0,0,1-.92-2.95v-6.2h-1.77v-2.31h1.77v-3Z"/><path class="cls-3" d="M623,661.21a5.47,5.47,0,0,1-4.2-1.68,6,6,0,0,1-1.58-4.28v-.45a6.66,6.66,0,0,1,1.49-4.46,5.55,5.55,0,0,1,7.81-.26,5.7,5.7,0,0,1,1.36,4v1.79h-7.25l0,.06a3.12,3.12,0,0,0,.81,2,2.47,2.47,0,0,0,1.93.77,6.56,6.56,0,0,0,1.81-.21,8.35,8.35,0,0,0,1.58-.7l.88,2a6,6,0,0,1-1.94,1A8.32,8.32,0,0,1,623,661.21Zm-.3-10.08a1.7,1.7,0,0,0-1.43.69,3.57,3.57,0,0,0-.65,1.83l0,.06h4v-.29a2.61,2.61,0,0,0-.49-1.67A1.74,1.74,0,0,0,622.72,651.13Z"/><path class="cls-3" d="M632.81,648.82l.15,1.75a4.3,4.3,0,0,1,1.49-1.45,3.81,3.81,0,0,1,2-.52,3.65,3.65,0,0,1,2.87,1.16,5.32,5.32,0,0,1,1,3.62V661h-3.29v-7.6a2.46,2.46,0,0,0-.5-1.74,2,2,0,0,0-1.49-.51,2.46,2.46,0,0,0-1.17.26,2.6,2.6,0,0,0-.87.75V661h-3.27V648.82Z"/><path class="cls-3" d="M649.93,661a6.09,6.09,0,0,1-.31-.88,6,6,0,0,1-.19-.94,4.57,4.57,0,0,1-1.33,1.47,3.32,3.32,0,0,1-2,.58,4.13,4.13,0,0,1-2.94-1,3.53,3.53,0,0,1-1-2.68,3.21,3.21,0,0,1,1.38-2.77,6.9,6.9,0,0,1,4-1h1.83v-1a1.9,1.9,0,0,0-.46-1.36,1.78,1.78,0,0,0-1.35-.48,1.75,1.75,0,0,0-1.23.39,1.37,1.37,0,0,0-.44,1.07h-3.16v-.07a3.06,3.06,0,0,1,1.33-2.65,5.79,5.79,0,0,1,3.72-1.12,5.43,5.43,0,0,1,3.54,1.11,3.83,3.83,0,0,1,1.36,3.15v5a10.19,10.19,0,0,0,.12,1.6,9.3,9.3,0,0,0,.41,1.5Zm-3-2.19a2.88,2.88,0,0,0,1.54-.43,2.21,2.21,0,0,0,.9-1v-1.72h-1.83a2.23,2.23,0,0,0-1.58.52,1.7,1.7,0,0,0-.54,1.27,1.28,1.28,0,0,0,.41,1A1.59,1.59,0,0,0,646.93,658.79Z"/><path class="cls-3" d="M658.15,648.82l.14,1.75a4.32,4.32,0,0,1,1.5-1.45,3.8,3.8,0,0,1,2-.52,3.67,3.67,0,0,1,2.88,1.16,5.32,5.32,0,0,1,1,3.62V661h-3.29v-7.6a2.46,2.46,0,0,0-.49-1.74,2,2,0,0,0-1.5-.51,2.51,2.51,0,0,0-1.17.26,2.47,2.47,0,0,0-.86.75V661h-3.28V648.82Z"/><path class="cls-3" d="M673.23,658.68a2,2,0,0,0,1.4-.5,1.81,1.81,0,0,0,.53-1.36h3l0,.07a3.78,3.78,0,0,1-1.39,3.08,5.84,5.84,0,0,1-7.74-.48,6.53,6.53,0,0,1-1.47-4.41v-.34a6.61,6.61,0,0,1,1.46-4.41,5.86,5.86,0,0,1,7.81-.45,4.24,4.24,0,0,1,1.33,3.37l0,.07h-3a2.36,2.36,0,0,0-.52-1.57,1.73,1.73,0,0,0-1.42-.62,1.9,1.9,0,0,0-1.84,1,5.46,5.46,0,0,0-.53,2.6v.33a5.47,5.47,0,0,0,.53,2.62A1.92,1.92,0,0,0,673.23,658.68Z"/><path class="cls-3" d="M685.41,661.21a5.48,5.48,0,0,1-4.2-1.68,6,6,0,0,1-1.57-4.28v-.45a6.66,6.66,0,0,1,1.49-4.46,5.55,5.55,0,0,1,7.81-.26,5.7,5.7,0,0,1,1.36,4v1.79H683l0,.06a3.17,3.17,0,0,0,.8,2,2.51,2.51,0,0,0,1.94.77,6.56,6.56,0,0,0,1.81-.21,8.29,8.29,0,0,0,1.57-.7l.89,2a6.09,6.09,0,0,1-1.94,1A8.42,8.42,0,0,1,685.41,661.21Zm-.29-10.08a1.74,1.74,0,0,0-1.44.69,3.66,3.66,0,0,0-.65,1.83l0,.06h4v-.29a2.67,2.67,0,0,0-.49-1.67A1.76,1.76,0,0,0,685.12,651.13Z"/><path class="cls-3" d="M596,682.84a7,7,0,0,1-1.24,4.33,4.14,4.14,0,0,1-3.48,1.64,4,4,0,0,1-1.7-.35,3.62,3.62,0,0,1-1.27-1v5.83h-3.27V676.42h3l.19,1.44a4,4,0,0,1,1.29-1.23,3.52,3.52,0,0,1,1.77-.43,4.06,4.06,0,0,1,3.51,1.76A7.89,7.89,0,0,1,596,682.6Zm-3.28-.26a6,6,0,0,0-.57-2.79,1.86,1.86,0,0,0-1.75-1.06,2.47,2.47,0,0,0-1.26.3,2.11,2.11,0,0,0-.83.87v5.33a2,2,0,0,0,.83.78,2.73,2.73,0,0,0,1.28.27,1.9,1.9,0,0,0,1.75-.93,5,5,0,0,0,.55-2.53Z"/><path class="cls-3" d="M597.53,682.39a6.51,6.51,0,0,1,1.52-4.46,6,6,0,0,1,8.42,0,6.48,6.48,0,0,1,1.53,4.46v.23a6.49,6.49,0,0,1-1.53,4.47,6,6,0,0,1-8.42,0,6.53,6.53,0,0,1-1.52-4.47Zm3.27.23a5.27,5.27,0,0,0,.58,2.66,2.25,2.25,0,0,0,3.75,0,5.23,5.23,0,0,0,.59-2.65v-.24a5.15,5.15,0,0,0-.6-2.63,2,2,0,0,0-1.87-1,2,2,0,0,0-1.86,1,5.17,5.17,0,0,0-.59,2.63Z"/><path class="cls-3" d="M614.47,688.58h-3.28V671.06h3.28Z"/><path class="cls-3" d="M620.61,673.51h-3.28v-2.45h3.28Zm0,15.07h-3.28V676.42h3.28Z"/><path class="cls-3" d="M628.4,686.28a2,2,0,0,0,1.41-.5,1.8,1.8,0,0,0,.52-1.36h3l0,.07a3.8,3.8,0,0,1-1.38,3.08,5.86,5.86,0,0,1-7.75-.48,6.53,6.53,0,0,1-1.47-4.41v-.34a6.56,6.56,0,0,1,1.47-4.41,5.84,5.84,0,0,1,7.8-.45,4.24,4.24,0,0,1,1.33,3.37l0,.07h-3a2.39,2.39,0,0,0-.51-1.57,1.75,1.75,0,0,0-1.43-.62,1.9,1.9,0,0,0-1.84,1,5.59,5.59,0,0,0-.53,2.6v.33a5.59,5.59,0,0,0,.53,2.62A1.93,1.93,0,0,0,628.4,686.28Z"/><path class="cls-3" d="M638.66,673.51h-3.28v-2.45h3.28Zm0,15.07h-3.28V676.42h3.28Z"/><path class="cls-3" d="M646.73,688.81a5.48,5.48,0,0,1-4.2-1.68,6,6,0,0,1-1.57-4.28v-.45a6.61,6.61,0,0,1,1.49-4.46,5.55,5.55,0,0,1,7.81-.26,5.74,5.74,0,0,1,1.36,4v1.79h-7.26l0,.06a3.17,3.17,0,0,0,.8,2,2.5,2.5,0,0,0,1.94.77,6.61,6.61,0,0,0,1.81-.21,8.29,8.29,0,0,0,1.57-.7l.89,2a6.15,6.15,0,0,1-2,1A8.32,8.32,0,0,1,646.73,688.81Zm-.29-10.08a1.71,1.71,0,0,0-1.44.69,3.66,3.66,0,0,0-.65,1.83l0,.06h4V681a2.65,2.65,0,0,0-.48-1.67A1.76,1.76,0,0,0,646.44,678.73Z"/><path class="cls-3" d="M660.09,685.23a1.13,1.13,0,0,0-.52-.93,5.12,5.12,0,0,0-1.93-.7,7.71,7.71,0,0,1-3.26-1.3,2.8,2.8,0,0,1-1.09-2.34,3.35,3.35,0,0,1,1.32-2.67,5.36,5.36,0,0,1,3.53-1.09,5.78,5.78,0,0,1,3.7,1.09,3.19,3.19,0,0,1,1.32,2.75l0,.07H660a1.58,1.58,0,0,0-.46-1.19,1.88,1.88,0,0,0-1.37-.46,1.9,1.9,0,0,0-1.25.38,1.24,1.24,0,0,0-.46,1,1.11,1.11,0,0,0,.48.92,5.25,5.25,0,0,0,1.94.64,7.66,7.66,0,0,1,3.33,1.32,2.89,2.89,0,0,1,1.09,2.39,3.17,3.17,0,0,1-1.4,2.68,6.11,6.11,0,0,1-3.71,1,5.63,5.63,0,0,1-3.83-1.23,3.41,3.41,0,0,1-1.34-2.8l0-.07h3a1.69,1.69,0,0,0,.64,1.42,2.64,2.64,0,0,0,1.58.44,2.35,2.35,0,0,0,1.39-.36A1.18,1.18,0,0,0,660.09,685.23Z"/><circle class="cls-1" cx="149.56" cy="654.25" r="94.24"/><path class="cls-2" d="M149.56,749.24a95,95,0,1,1,95-95A95.09,95.09,0,0,1,149.56,749.24Zm0-188.48a93.49,93.49,0,1,0,93.49,93.49A93.6,93.6,0,0,0,149.56,560.76Z"/><path class="cls-3" d="M130.54,643.65H124.8l-1.11,3.52h-3.32L126,630.82h3.36l5.6,16.35h-3.31Zm-4.93-2.57h4.12l-2-6.43h-.07Z"/><path class="cls-3" d="M142.79,643.83a1.13,1.13,0,0,0-.52-.93,5.18,5.18,0,0,0-1.94-.7,7.66,7.66,0,0,1-3.25-1.3,2.81,2.81,0,0,1-1.1-2.34,3.35,3.35,0,0,1,1.32-2.67,5.37,5.37,0,0,1,3.54-1.09,5.78,5.78,0,0,1,3.7,1.09,3.24,3.24,0,0,1,1.32,2.75l0,.07h-3.16a1.59,1.59,0,0,0-.47-1.19,1.85,1.85,0,0,0-1.36-.46,1.88,1.88,0,0,0-1.26.38,1.23,1.23,0,0,0-.45,1,1.11,1.11,0,0,0,.48.92,5.18,5.18,0,0,0,1.93.64,7.76,7.76,0,0,1,3.34,1.32,2.9,2.9,0,0,1,1.09,2.39,3.18,3.18,0,0,1-1.41,2.68,6.08,6.08,0,0,1-3.7,1,5.64,5.64,0,0,1-3.84-1.23,3.44,3.44,0,0,1-1.34-2.8l0-.07h3a1.73,1.73,0,0,0,.64,1.42,2.67,2.67,0,0,0,1.59.44,2.34,2.34,0,0,0,1.38-.36A1.16,1.16,0,0,0,142.79,643.83Z"/><path class="cls-3" d="M154.65,643.83a1.16,1.16,0,0,0-.52-.93,5.18,5.18,0,0,0-1.94-.7,7.66,7.66,0,0,1-3.25-1.3,2.81,2.81,0,0,1-1.1-2.34,3.35,3.35,0,0,1,1.32-2.67,5.37,5.37,0,0,1,3.54-1.09,5.8,5.8,0,0,1,3.7,1.09,3.24,3.24,0,0,1,1.32,2.75l0,.07h-3.16a1.59,1.59,0,0,0-.47-1.19,1.85,1.85,0,0,0-1.36-.46,1.88,1.88,0,0,0-1.26.38,1.23,1.23,0,0,0-.45,1,1.11,1.11,0,0,0,.48.92,5.18,5.18,0,0,0,1.93.64,7.76,7.76,0,0,1,3.34,1.32,2.9,2.9,0,0,1,1.09,2.39,3.18,3.18,0,0,1-1.41,2.68,6.08,6.08,0,0,1-3.7,1,5.64,5.64,0,0,1-3.84-1.23,3.44,3.44,0,0,1-1.34-2.8l0-.07h3a1.73,1.73,0,0,0,.64,1.42,2.67,2.67,0,0,0,1.59.44,2.34,2.34,0,0,0,1.38-.36A1.16,1.16,0,0,0,154.65,643.83Z"/><path class="cls-3" d="M165.32,647.41a5.48,5.48,0,0,1-4.2-1.68,6,6,0,0,1-1.57-4.28V641a6.65,6.65,0,0,1,1.48-4.46,5,5,0,0,1,4-1.74,4.88,4.88,0,0,1,3.81,1.48,5.7,5.7,0,0,1,1.36,4v1.79H163l0,.06a3.11,3.11,0,0,0,.8,2,2.48,2.48,0,0,0,1.94.77,6.49,6.49,0,0,0,1.8-.21,8.35,8.35,0,0,0,1.58-.7l.88,2a6,6,0,0,1-1.94,1A8.32,8.32,0,0,1,165.32,647.41ZM165,637.33a1.71,1.71,0,0,0-1.44.69,3.66,3.66,0,0,0-.65,1.83l0,.06h4v-.29a2.59,2.59,0,0,0-.49-1.67A1.74,1.74,0,0,0,165,637.33Z"/><path class="cls-3" d="M176,632.05v3h2v2.31h-2v6.18a1.43,1.43,0,0,0,.29,1,1,1,0,0,0,.79.31,2.76,2.76,0,0,0,.44,0,3.21,3.21,0,0,0,.43-.1l.28,2.37a6.26,6.26,0,0,1-1,.26,6.59,6.59,0,0,1-1,.08,3.5,3.5,0,0,1-2.61-.93,4.1,4.1,0,0,1-.92-3v-6.19H171V635h1.77v-3Z"/><path class="cls-3" d="M127.19,674.77V658.42h5.61a6.72,6.72,0,0,1,4.94,1.92,6.56,6.56,0,0,1,1.94,4.91V668a6.56,6.56,0,0,1-1.94,4.91,6.75,6.75,0,0,1-4.94,1.9ZM130.46,661v11.3h2.17a3.4,3.4,0,0,0,2.76-1.19,4.65,4.65,0,0,0,1-3.11v-2.72a4.61,4.61,0,0,0-1-3.09,3.4,3.4,0,0,0-2.76-1.19Z"/><path class="cls-3" d="M149.12,674.77a6.83,6.83,0,0,1-.31-.87,6,6,0,0,1-.19-.94,4.46,4.46,0,0,1-1.33,1.47,3.3,3.3,0,0,1-2,.58,4.13,4.13,0,0,1-2.94-1,3.53,3.53,0,0,1-1-2.68,3.23,3.23,0,0,1,1.37-2.77,6.93,6.93,0,0,1,4-1h1.83v-1a1.94,1.94,0,0,0-.46-1.36,1.8,1.8,0,0,0-1.36-.48,1.78,1.78,0,0,0-1.23.39,1.35,1.35,0,0,0-.43,1.07h-3.17v-.07a3.08,3.08,0,0,1,1.33-2.65A5.83,5.83,0,0,1,147,662.4a5.43,5.43,0,0,1,3.54,1.11,3.8,3.8,0,0,1,1.36,3.15v5a9.05,9.05,0,0,0,.13,1.61,7.34,7.34,0,0,0,.41,1.49Zm-3-2.18a2.85,2.85,0,0,0,1.54-.43,2.29,2.29,0,0,0,.91-1v-1.72h-1.83a2.24,2.24,0,0,0-1.59.52,1.69,1.69,0,0,0-.53,1.27,1.24,1.24,0,0,0,.4,1A1.56,1.56,0,0,0,146.12,672.59Z"/><path class="cls-3" d="M158.24,659.65v3h2v2.3h-2v6.19a1.39,1.39,0,0,0,.29,1,1,1,0,0,0,.79.31,2.76,2.76,0,0,0,.44,0,3.21,3.21,0,0,0,.43-.1l.28,2.37a6.26,6.26,0,0,1-1,.26,6.63,6.63,0,0,1-1,.08,3.5,3.5,0,0,1-2.61-.93,4.1,4.1,0,0,1-.91-3v-6.2h-1.78v-2.3H155v-3Z"/><path class="cls-3" d="M169.5,674.77a6.83,6.83,0,0,1-.31-.87A7.42,7.42,0,0,1,169,673a4.57,4.57,0,0,1-1.33,1.47,3.32,3.32,0,0,1-2,.58,4.14,4.14,0,0,1-3-1,3.53,3.53,0,0,1-1-2.68,3.21,3.21,0,0,1,1.38-2.77,6.88,6.88,0,0,1,4-1H169v-1a1.9,1.9,0,0,0-.46-1.36,1.8,1.8,0,0,0-1.36-.48,1.78,1.78,0,0,0-1.23.39,1.35,1.35,0,0,0-.43,1.07H162.3v-.07a3.07,3.07,0,0,1,1.34-2.65,5.79,5.79,0,0,1,3.72-1.12,5.39,5.39,0,0,1,3.53,1.11,3.8,3.8,0,0,1,1.36,3.15v5a10.1,10.1,0,0,0,.13,1.61,8.05,8.05,0,0,0,.41,1.49Zm-3-2.18a2.85,2.85,0,0,0,1.54-.43,2.29,2.29,0,0,0,.91-1v-1.72h-1.83a2.21,2.21,0,0,0-1.58.52,1.7,1.7,0,0,0-.54,1.27,1.24,1.24,0,0,0,.4,1A1.56,1.56,0,0,0,166.5,672.59Z"/><circle class="cls-2" cx="149.56" cy="421.67" r="94.24"/><path class="cls-1" d="M93.08,458.51V442.87h5.38a6.45,6.45,0,0,1,4.72,1.83,6.31,6.31,0,0,1,1.86,4.7V452a6.28,6.28,0,0,1-1.86,4.7,6.48,6.48,0,0,1-4.72,1.82Zm3.14-13.22v10.8h2.07a3.3,3.3,0,0,0,2.65-1.13,4.51,4.51,0,0,0,1-3v-2.6a4.49,4.49,0,0,0-1-3,3.3,3.3,0,0,0-2.65-1.13Z"/><path class="cls-1" d="M110.54,444.11H107.4v-2.35h3.14Zm0,14.4H107.4V446.89h3.14Z"/><path class="cls-1" d="M112.63,452.8a7.48,7.48,0,0,1,1.2-4.44,3.9,3.9,0,0,1,3.36-1.69,3.36,3.36,0,0,1,1.72.44,4,4,0,0,1,1.26,1.26l.25-1.48h2.71v11.57a4.3,4.3,0,0,1-1.49,3.5,6.26,6.26,0,0,1-4.14,1.24,7.93,7.93,0,0,1-1.87-.24,8.62,8.62,0,0,1-1.83-.66l.58-2.34a7.36,7.36,0,0,0,1.47.52,7,7,0,0,0,1.63.18,2.77,2.77,0,0,0,1.89-.54,2.11,2.11,0,0,0,.61-1.67v-1.06a3.49,3.49,0,0,1-1.21,1,3.58,3.58,0,0,1-1.6.35,4,4,0,0,1-3.34-1.58,6.65,6.65,0,0,1-1.2-4.14Zm3.14.22a4.73,4.73,0,0,0,.52,2.42,1.78,1.78,0,0,0,1.67.88,2.53,2.53,0,0,0,1.22-.27,2,2,0,0,0,.8-.77V450.2a2.25,2.25,0,0,0-.8-.82,2.37,2.37,0,0,0-1.2-.29,1.77,1.77,0,0,0-1.68,1,5.86,5.86,0,0,0-.53,2.68Z"/><path class="cls-1" d="M128.83,444.11H125.7v-2.35h3.13Zm0,14.4H125.7V446.89h3.13Z"/><path class="cls-1" d="M135.14,444v2.85h2v2.2h-2V455a1.37,1.37,0,0,0,.28,1,1,1,0,0,0,.75.28,2.68,2.68,0,0,0,.42,0l.42-.09.26,2.26a6.65,6.65,0,0,1-.92.25,6,6,0,0,1-1,.08,3.34,3.34,0,0,1-2.5-.9A3.9,3.9,0,0,1,132,455v-5.93h-1.7v-2.2H132V444Z"/><path class="cls-1" d="M145.91,458.51a8.21,8.21,0,0,1-.3-.84,5.3,5.3,0,0,1-.17-.9,4.22,4.22,0,0,1-1.28,1.41,3.17,3.17,0,0,1-1.88.56,3.92,3.92,0,0,1-2.81-.94,3.37,3.37,0,0,1-1-2.57,3.05,3.05,0,0,1,1.31-2.64,6.56,6.56,0,0,1,3.84-.94h1.75v-.93a1.8,1.8,0,0,0-.44-1.3,1.73,1.73,0,0,0-1.3-.46,1.71,1.71,0,0,0-1.17.37,1.31,1.31,0,0,0-.42,1h-3v-.07a3,3,0,0,1,1.28-2.54,5.59,5.59,0,0,1,3.56-1.07,5.22,5.22,0,0,1,3.38,1.06,3.66,3.66,0,0,1,1.3,3v4.8a9.31,9.31,0,0,0,.12,1.53,8.24,8.24,0,0,0,.4,1.43ZM143,456.42a2.71,2.71,0,0,0,1.47-.41,2.11,2.11,0,0,0,.87-.95v-1.64h-1.75a2.1,2.1,0,0,0-1.51.5,1.59,1.59,0,0,0-.52,1.21,1.19,1.19,0,0,0,.39.93A1.49,1.49,0,0,0,143,456.42Z"/><path class="cls-1" d="M154.2,458.51h-3.13V441.76h3.13Z"/><path class="cls-1" d="M173.32,445.29H168.9v13.22h-3.14V445.29h-4.4v-2.42h12Z"/><path class="cls-1" d="M184.33,454.35h.07l1.51-7.46h2.94l-2.95,11.62h-2.62l-2.16-6.92h-.07l-2.15,6.92h-2.61l-3-11.62h2.94l1.54,7.44h.07l2.17-7.44h2.09Z"/><path class="cls-1" d="M193.71,444.11h-3.14v-2.35h3.14Zm0,14.4h-3.14V446.89h3.14Z"/><path class="cls-1" d="M199.15,446.89l.14,1.66a4.37,4.37,0,0,1,1.43-1.38,3.72,3.72,0,0,1,1.9-.5,3.49,3.49,0,0,1,2.75,1.11,5.1,5.1,0,0,1,1,3.47v7.26h-3.15v-7.27a2.34,2.34,0,0,0-.47-1.66,1.88,1.88,0,0,0-1.43-.49,2.36,2.36,0,0,0-1.11.25,2.3,2.3,0,0,0-.83.72v8.45h-3.14V446.89Z"/><path class="cls-1" d="M133,417.61h-13a1,1,0,0,1-1-1V376.26a1,1,0,0,1,1-1h19.67a1,1,0,0,1,1,1V390.4a1,1,0,0,1-2,0V377.26H121.05v38.35h12a1,1,0,0,1,0,2Z"/><path class="cls-1" d="M169.23,402.29a1,1,0,0,1-1-1V367.05H150.56V390.4a1,1,0,0,1-2,0V366.05a1,1,0,0,1,1-1h19.67a1,1,0,0,1,1,1v35.24A1,1,0,0,1,169.23,402.29Z"/><path class="cls-1" d="M163,417.61H152.66a1,1,0,1,1,0-2H163a1,1,0,0,1,0,2Z"/><path class="cls-1" d="M152.66,417.61H133a1,1,0,0,1-1-1V390.4a1,1,0,0,1,1-1h19.66a1,1,0,0,1,1,1v26.21A1,1,0,0,1,152.66,417.61Zm-18.66-2h17.66V391.4H134Z"/><path class="cls-1" d="M182.62,417.61H163a1,1,0,0,1-1-1V401.29a1,1,0,0,1,1-1h19.67a1,1,0,0,1,1,1v15.32A1,1,0,0,1,182.62,417.61Zm-18.67-2h17.67V402.29H164Z"/><path class="cls-2" d="M436.92,631.82H339.41a1,1,0,1,1,0-2h97.51a1,1,0,0,1,0,2Z"/><path class="cls-4" d="M436.92,679.31H339.41a1,1,0,0,1-1-1V596.52a1,1,0,0,1,2,0v80.79h96.51a1,1,0,1,1,0,2Z"/><path class="cls-3" d="M378.65,704.85l0,.06a5.66,5.66,0,0,1-1.75,3.87,5.87,5.87,0,0,1-4.12,1.41,5.46,5.46,0,0,1-4.4-2,7.57,7.57,0,0,1-1.68-5.1v-2.66a7.64,7.64,0,0,1,1.68-5.11,5.47,5.47,0,0,1,4.4-2,5.92,5.92,0,0,1,4.13,1.38,5.65,5.65,0,0,1,1.74,3.89l0,.06h-1.26a5,5,0,0,0-1.4-3.11,4.46,4.46,0,0,0-3.19-1.07,4.13,4.13,0,0,0-3.44,1.66,6.65,6.65,0,0,0-1.3,4.25v2.68a6.7,6.7,0,0,0,1.3,4.28,4.13,4.13,0,0,0,3.44,1.66A4.5,4.5,0,0,0,376,708a4.92,4.92,0,0,0,1.39-3.14Z"/><path class="cls-3" d="M381,703.7a6.53,6.53,0,0,1,1.47-4.4,5.28,5.28,0,0,1,7.8,0,6.49,6.49,0,0,1,1.48,4.4v.37a6.53,6.53,0,0,1-1.47,4.41,5.31,5.31,0,0,1-7.81,0,6.53,6.53,0,0,1-1.47-4.41Zm1.35.37a5.79,5.79,0,0,0,1.06,3.54,3.77,3.77,0,0,0,5.93,0,5.79,5.79,0,0,0,1.07-3.54v-.37a5.74,5.74,0,0,0-1.08-3.53,3.76,3.76,0,0,0-5.92,0,5.8,5.8,0,0,0-1.06,3.53Z"/><path class="cls-3" d="M401.84,706.86a2,2,0,0,0-.7-1.49,5.79,5.79,0,0,0-2.53-1,8.31,8.31,0,0,1-3.22-1.25,2.56,2.56,0,0,1-1-2.19,2.94,2.94,0,0,1,1.17-2.35,4.78,4.78,0,0,1,3.11-1,4.89,4.89,0,0,1,3.26,1,3,3,0,0,1,1.14,2.54l0,.07h-1.25a2.22,2.22,0,0,0-.85-1.74,3.29,3.29,0,0,0-2.28-.74,3.33,3.33,0,0,0-2.21.63,1.89,1.89,0,0,0-.73,1.48,1.74,1.74,0,0,0,.63,1.38,6.16,6.16,0,0,0,2.53,1,8.22,8.22,0,0,1,3.25,1.32,2.73,2.73,0,0,1,1.08,2.28,3,3,0,0,1-1.23,2.46,5.21,5.21,0,0,1-3.25.94,5.28,5.28,0,0,1-3.48-1.05,3,3,0,0,1-1.2-2.52l0-.07h1.23a2.22,2.22,0,0,0,1.07,1.91,4.58,4.58,0,0,0,2.35.59,3.7,3.7,0,0,0,2.3-.64A1.9,1.9,0,0,0,401.84,706.86Z"/><path class="cls-3" d="M408.39,694.7v3.11h2.67v1.1h-2.67v7.91a2.56,2.56,0,0,0,.43,1.69,1.42,1.42,0,0,0,1.15.5l.64,0c.2,0,.44,0,.71-.1l.2,1a3.23,3.23,0,0,1-.82.22,5.18,5.18,0,0,1-1,.08,2.53,2.53,0,0,1-2-.81,3.82,3.82,0,0,1-.71-2.56v-7.91h-2.1v-1.1H407V694.7Z"/></g></svg>