<svg xmlns="http://www.w3.org/2000/svg" width="75.677" height="64.527" viewBox="0 0 75.677 64.527">
  <g id="Group_226" data-name="Group 226" transform="translate(-494.27 -342.12)">
    <path id="Path_168" data-name="Path 168" d="M530.069,355.586l1.4,3.233-5.076-11.865a2.916,2.916,0,0,0-2.706-1.79h-.006a2.915,2.915,0,0,0-2.708,1.778l-3.565,8.233-.174.409-19.721,45.554a2.951,2.951,0,0,0,2.7,4.123l6.143.026h.038a8.488,8.488,0,0,0,5.989-2.427,26.179,26.179,0,0,0,2.521-4.126c.365-.673.707-1.375,1.016-2.087l14.413-33.3" transform="translate(-0.87 -0.884)" fill="none"/>
    <path id="Path_169" data-name="Path 169" d="M585.062,399.57,561.8,345.2a5.01,5.01,0,0,0-4.659-3.082h-.011a5.011,5.011,0,0,0-4.66,3.062l-3.23,7.46,1.159,2.679,4.024-9.293a2.915,2.915,0,0,1,2.707-1.779h.006a2.918,2.918,0,0,1,2.707,1.79L583.1,400.407a2.951,2.951,0,0,1-2.711,4.112h-.006l-6.339-.023a8.48,8.48,0,0,1-7.585-4.606c-.074-.158-.868-2-1.352-3.13l-14.034-32.807-.026.011-2.923-6.751.721,1.685-1.132,2.615L563.156,397.6c.6,1.4,1.328,3.089,1.391,3.218a10.628,10.628,0,0,0,9.494,5.808l6.341.023h.011a5.08,5.08,0,0,0,4.67-7.077Z" transform="translate(-15.525)" fill="#1bc691"/>
    <path id="Path_170" data-name="Path 170" d="M532.172,356.225l-2.162-5,.026-.011-2.556-5.974a5.009,5.009,0,0,0-4.659-3.081h-.011a5.01,5.01,0,0,0-4.661,3.062L494.689,399.42a5.08,5.08,0,0,0,4.649,7.1l6.14.026h.048a10.6,10.6,0,0,0,7.48-3.037c.2-.2.828-.812,2.9-4.629h0c.395-.729.764-1.488,1.1-2.257l13.62-31.469-1.159-2.679-14.413,33.3c-.309.712-.651,1.414-1.016,2.087a26.182,26.182,0,0,1-2.521,4.126,8.488,8.488,0,0,1-5.989,2.427h-.038l-6.143-.026a2.951,2.951,0,0,1-2.7-4.123l19.721-45.554.174-.409,3.565-8.233a2.915,2.915,0,0,1,2.708-1.778h.006a2.916,2.916,0,0,1,2.706,1.79l3.69,8.626,1.386,3.239,1.572,3.631.023-.054-1.151-2.691Z" transform="translate(0 -0.013)" fill="#1bc691"/>
    <path id="Path_171" data-name="Path 171" d="M547.659,362.982l-.433-1-1.129,2.609,1.151,2.691,1.132-2.615Z" transform="translate(-15.054 -5.769)" fill="#1bc691"/>
    <path id="Path_172" data-name="Path 172" d="M546.8,359.933l0-.006-2.139-5-.026.011Z" transform="translate(-14.631 -3.72)" fill="#fff"/>
  </g>
</svg>
