<svg xmlns="http://www.w3.org/2000/svg" viewBox="0 0 669.1 642.5"><defs><style>.cls-1{fill:none;stroke:#59c294;stroke-miterlimit:10;stroke-width:8px;}</style></defs><g id="Layer_4" data-name="Layer 4"><g id="Group_720" data-name="Group 720"><path id="Path_238" data-name="Path 238" class="cls-1" d="M189.07,252.16l93.39,19.6-50-81.3c-12.22-19.88,5.27-44.75,28.12-40l61,12.81L231.5,16.68a26.6,26.6,0,0,0-44.41-1.39L8.85,268.54a26.59,26.59,0,0,0,16.29,41.34l168.45,35.36L161,292.12C148.72,272.22,166.22,247.36,189.07,252.16Z"/><path id="Path_239" data-name="Path 239" class="cls-1" d="M572.42,332.63,404,297.27l32.64,53.12c12.23,19.88-5.27,44.75-28.12,39.95l-61-12.81,90.14,146.65a26.59,26.59,0,0,0,44.4,1.38L588.71,374a26.59,26.59,0,0,0-16.29-41.33Z"/><path id="Path_240" data-name="Path 240" class="cls-1" d="M644,231,321.63,163.32l-61-12.81c-22.85-4.8-40.35,20.07-28.12,40l50,81.3L404,297.27l168.45,35.36A26.6,26.6,0,0,1,588.71,374l71.54-101.65A26.59,26.59,0,0,0,644,231Z"/><path id="Path_241" data-name="Path 241" class="cls-1" d="M437.61,524.18,347.47,377.53h0L282.71,272.22l-93.38-19.6c-22.85-4.8-40.35,20.06-28.12,39.95l32.64,53.12h0L366.06,625.83a26.61,26.61,0,0,0,44.41,1.38L482,525.56a26.59,26.59,0,0,1-44.4-1.38Z"/><path id="Path_242" data-name="Path 242" class="cls-1" d="M347.47,377.53l61,12.81c22.85,4.8,40.35-20.07,28.12-39.95L404,297.26l-121.5-25.5Z"/><line id="Line_133" data-name="Line 133" class="cls-1" x1="193.85" y1="345.69" x2="349.81" y2="378.5"/></g></g></svg>