<svg id="Group_56" data-name="Group 56" xmlns="http://www.w3.org/2000/svg" width="146.14" height="47.911" viewBox="0 0 146.14 47.911">
  <path id="Path_13" data-name="Path 13" d="M1194.726,434.022a2.9,2.9,0,0,0,.6.123,2.817,2.817,0,0,1,2.245,2.146,6.716,6.716,0,0,1,0,3.408,2.843,2.843,0,0,1-2.477,2.2,5.807,5.807,0,0,1-1.028.079l-3.912-.014c-.352,0-.353,0-.353.345v22.183a5.435,5.435,0,0,1-.274,1.787,3.329,3.329,0,0,1-2.619,2.266,6.638,6.638,0,0,1-2.989-.021,3.417,3.417,0,0,1-2.73-3.009,7.532,7.532,0,0,1-.079-1.108q0-11.037,0-22.074c0-.355,0-.352-.357-.354-1.485-.011-2.972.05-4.455-.029a2.981,2.981,0,0,1-2.7-1.568,4.178,4.178,0,0,1-.421-1.588,7.169,7.169,0,0,1,.113-2.293,2.921,2.921,0,0,1,2.649-2.419c.068-.01.148.02.2-.055Z" transform="translate(-1051.651 -434.022)" fill="#082a3a"/>
  <path id="Path_14" data-name="Path 14" d="M637.023,520.793a14.117,14.117,0,0,1,.392-2.045,7.779,7.779,0,0,1,7.928-5.672,7.186,7.186,0,0,1,4.706,1.755,2.3,2.3,0,0,1-.451,3.863,1.7,1.7,0,0,1-1.851-.056c-.22-.14-.419-.316-.625-.477a3.059,3.059,0,0,0-4.911,1.182,5.276,5.276,0,0,0-.021,4.349,2.98,2.98,0,0,0,4.556,1.275c.191-.137.376-.283.567-.42a1.93,1.93,0,0,1,2.848.294,2.121,2.121,0,0,1-.064,3.123,7.006,7.006,0,0,1-4.078,1.975,7.814,7.814,0,0,1-4.686-.651,7.548,7.548,0,0,1-3.986-5.055,15.931,15.931,0,0,1-.324-1.865Z" transform="translate(-637.023 -495.159)" fill="#082a3a"/>
  <path id="Path_15" data-name="Path 15" d="M1026.022,459.838q0-4.113,0-8.227a4.287,4.287,0,0,1,.119-.968,2.89,2.89,0,0,1,2.846-2.348,6.923,6.923,0,0,1,2.135.089,2.862,2.862,0,0,1,2.392,2.714c.038.379.053.758.053,1.137q0,7.182,0,14.364a19.821,19.821,0,0,1-.76,5.894,9.98,9.98,0,0,1-3.465,5.191,10.624,10.624,0,0,1-4.793,1.976,17.807,17.807,0,0,1-6.853-.145,9.654,9.654,0,0,1-5.949-3.743,12.03,12.03,0,0,1-1.988-4.824,21.067,21.067,0,0,1-.369-4.126q0-6.584.02-13.168a5.237,5.237,0,0,1,.167-1.368,2.621,2.621,0,0,1,2.019-1.984,6.354,6.354,0,0,1,3.013-.022,2.8,2.8,0,0,1,2.27,2.493,6.568,6.568,0,0,1,.065.946q0,6.747,0,13.495a9.938,9.938,0,0,0,.518,3.441,4.043,4.043,0,0,0,4.6,2.752c2.072-.195,3.2-1.489,3.68-3.466a10.9,10.9,0,0,0,.28-2.582Q1026.023,463.6,1026.022,459.838Z" transform="translate(-925.013 -445.03)" fill="#082a3a"/>
  <path id="Path_16" data-name="Path 16" d="M916.941,483.265v-9.531a6.287,6.287,0,0,1,.16-1.56,2.7,2.7,0,0,1,2.505-2.162,9.689,9.689,0,0,1,1.057-.054c1.712,0,3.425-.019,5.136.016a14.966,14.966,0,0,1,5.948,1.173,7.66,7.66,0,0,1,4.6,5.968,12.135,12.135,0,0,1-.3,5.824,7.777,7.777,0,0,1-5.8,5.428,13.535,13.535,0,0,1-3.168.411c-.9.023-1.793.014-2.689.012-.21,0-.272.049-.27.266.011,1.348.008,2.7,0,4.046a4.37,4.37,0,0,1-.283,1.62,2.529,2.529,0,0,1-1.822,1.563,5.861,5.861,0,0,1-2.85.029A2.663,2.663,0,0,1,917,493.878a7.963,7.963,0,0,1-.061-1.028Zm6.958-3.9q0,1.8,0,3.607c0,.106-.049.239.154.237a12.83,12.83,0,0,0,2.674-.165,2.957,2.957,0,0,0,2.49-2.267,6.619,6.619,0,0,0,.117-2.022,3.071,3.071,0,0,0-2.588-3.047,11.69,11.69,0,0,0-2.538-.173c-.237,0-.321.044-.318.3C923.908,477.018,923.9,478.194,923.9,479.369Z" transform="translate(-853.512 -461.812)" fill="#082a3a"/>
  <path id="Path_17" data-name="Path 17" d="M1125.644,457.206q0-6.354,0-12.708a5.23,5.23,0,0,1,.143-1.236,2.927,2.927,0,0,1,2.4-2.3,7.09,7.09,0,0,1,3.072,0,3.034,3.034,0,0,1,2.5,2.866,11.062,11.062,0,0,1,.053,1.111q0,10.522-.008,21.045c0,.272.062.341.337.339,1.785-.014,3.57-.009,5.354-.006a4.7,4.7,0,0,1,1.287.173,2.624,2.624,0,0,1,1.94,2.125,6.6,6.6,0,0,1,0,2.827,2.674,2.674,0,0,1-2.385,2.2,6.313,6.313,0,0,1-.92.065c-2.6,0-5.2-.006-7.8,0-.86,0-1.72.023-2.58,0a4.611,4.611,0,0,1-1.047-.144,2.955,2.955,0,0,1-2.278-2.72,8.8,8.8,0,0,1-.062-1.083Q1125.645,463.479,1125.644,457.206Z" transform="translate(-1014.922 -439.257)" fill="#082a3a"/>
  <path id="Path_18" data-name="Path 18" d="M828.026,480a6.457,6.457,0,0,1,1.728.121,3.463,3.463,0,0,1,2.218,1.532,12.671,12.671,0,0,1,1.381,3.111c1.613,4.84,3.249,9.672,4.782,14.538a9.912,9.912,0,0,1,.481,1.887,2.463,2.463,0,0,1-2.031,2.9,5.439,5.439,0,0,1-2.5,0,2.938,2.938,0,0,1-2.111-1.824,20.213,20.213,0,0,1-.763-2.512c-.057-.2-.132-.269-.346-.268-1.857.009-3.714.006-5.571,0-.262,0-.526,0-.787-.025-.18-.015-.249.061-.3.221a24.626,24.626,0,0,1-.881,2.5,4.654,4.654,0,0,1-.526.884,2.688,2.688,0,0,1-1.633,1.043,5.17,5.17,0,0,1-2.394-.046,2.351,2.351,0,0,1-1.836-2.782,14.6,14.6,0,0,1,.8-2.781q2.574-7.438,5.328-14.812a10.69,10.69,0,0,1,.952-1.915A3.7,3.7,0,0,1,827.13,480C827.428,479.983,827.727,480,828.026,480Zm-.158,5.364c-.068.034-.073.089-.087.141q-1.155,4.108-2.315,8.214c-.063.224.005.252.207.251q2.025-.011,4.049,0c.226,0,.276-.056.22-.272-.2-.778-.392-1.559-.586-2.339Q828.612,488.364,827.868,485.362Z" transform="translate(-776.14 -469.57)" fill="#082a3a"/>
  <path id="Path_19" data-name="Path 19" d="M715.749,521.156a3.539,3.539,0,0,1-.87-.073,2.4,2.4,0,0,1-1.868-1.633c-.229-.6-.372-1.226-.543-1.844a.256.256,0,0,0-.294-.23q-2.486.011-4.972,0c-.2,0-.264.079-.317.245-.191.593-.36,1.194-.606,1.768a2.636,2.636,0,0,1-3.1,1.751,2.971,2.971,0,0,1-.9-.2,1.84,1.84,0,0,1-1.164-1.946,11.053,11.053,0,0,1,.643-2.4c1.208-3.688,2.469-7.359,3.738-11.027a11.377,11.377,0,0,1,.944-2.1,2.9,2.9,0,0,1,2.2-1.5A7.278,7.278,0,0,1,711,502a3.059,3.059,0,0,1,2.181,1.789,26.817,26.817,0,0,1,1.261,3.285c1.224,3.446,2.451,6.891,3.586,10.368a6.35,6.35,0,0,1,.324,1.284,2,2,0,0,1-1.849,2.374A3.477,3.477,0,0,1,715.749,521.156Zm-6.158-14.974a.88.88,0,0,0-.059.116q-.813,3.256-1.626,6.512c-.047.187.026.206.185.2q1.588-.008,3.176,0c.2,0,.242-.029.183-.239-.505-1.77-1-3.543-1.492-5.315C709.842,507.051,709.722,506.64,709.591,506.182Z" transform="translate(-686.589 -486.509)" fill="#082a3a"/>
  <path id="Path_20" data-name="Path 20" d="M766.656,506.913c0-2.154,0-4.307.006-6.461,0-.244-.065-.3-.3-.3-.823.007-1.65.029-2.47-.033a1.991,1.991,0,0,1-2.126-2.038,4.255,4.255,0,0,1,.1-1.7,1.975,1.975,0,0,1,1.97-1.488c.1-.007.2-.007.3-.007q5.462,0,10.923,0a3.456,3.456,0,0,1,.728.074,1.89,1.89,0,0,1,1.552,1.516,4.535,4.535,0,0,1,.026,1.991,1.983,1.983,0,0,1-2.119,1.679c-.787.028-1.576.016-2.363.005-.209,0-.273.046-.272.266.007,3.927,0,7.854.008,11.782a9.311,9.311,0,0,1-.06,1.541,2.182,2.182,0,0,1-1.773,1.888,5.315,5.315,0,0,1-2.29,0,2.22,2.22,0,0,1-1.809-2.154c-.035-.559-.026-1.121-.027-1.682Q766.653,509.356,766.656,506.913Z" transform="translate(-733.466 -481.1)" fill="#082a3a"/>
  <path id="Path_21" data-name="Path 21" d="M744.885,610.621a3.189,3.189,0,0,1-1.222,2.573,3.226,3.226,0,0,1-5.154-2.067,4.4,4.4,0,0,1,.055-1.722,2.874,2.874,0,0,1,2.537-2.368,3.088,3.088,0,0,1,3.17,1.207A3.831,3.831,0,0,1,744.885,610.621Zm-1.618-.22a2.506,2.506,0,0,0-.245-1.187,1.425,1.425,0,0,0-1.379-.838,1.39,1.39,0,0,0-1.333.862,2.758,2.758,0,0,0-.009,2.314,1.388,1.388,0,0,0,1.351.876,1.425,1.425,0,0,0,1.373-.846A2.443,2.443,0,0,0,743.267,610.4Z" transform="translate(-715.466 -567.794)" fill="#082a3a"/>
  <path id="Path_22" data-name="Path 22" d="M1206.905,618.869a1.957,1.957,0,0,1-3.106-.734,2.921,2.921,0,0,1,.413-3.159,1.953,1.953,0,0,1,2-.669,1.315,1.315,0,0,1,.182.055c.208.076.354.286.538.344s.264-.256.47-.322a.735.735,0,0,1,.971.767q.007,1.873,0,3.746a3,3,0,0,1-.066.592,2.091,2.091,0,0,1-1.689,1.735,3.783,3.783,0,0,1-2.315-.187,1.241,1.241,0,0,1-.527-.37.616.616,0,0,1-.023-.777.57.57,0,0,1,.743-.206,2.823,2.823,0,0,0,1.4.353A.993.993,0,0,0,1206.905,618.869Zm.023-1.993a1.506,1.506,0,0,0-.085-.559.922.922,0,0,0-1.782.029,1.576,1.576,0,0,0,.056,1.163.862.862,0,0,0,.8.555.872.872,0,0,0,.858-.507A1.466,1.466,0,0,0,1206.928,616.876Z" transform="translate(-1075.153 -573.414)" fill="#082a3a"/>
  <path id="Path_23" data-name="Path 23" d="M914.876,611.512c0,.607.008,1.186,0,1.764a.74.74,0,0,1-1,.791.681.681,0,0,1-.5-.747q0-2.145,0-4.29c0-.262,0-.525,0-.787a.637.637,0,0,1,.578-.7,8.876,8.876,0,0,1,2.729.079,1.865,1.865,0,0,1,1.418,1.89,1.816,1.816,0,0,1-1.476,1.874,4.918,4.918,0,0,0,.529.609c.255.281.522.552.775.836a.726.726,0,0,1-.01,1.1.834.834,0,0,1-1.165-.131c-.557-.69-1.1-1.388-1.657-2.081A.468.468,0,0,0,914.876,611.512Zm0-1.949c0,.22,0,.4,0,.58,0,.117.022.186.162.182.306-.01.614.007.92-.015a.7.7,0,0,0-.035-1.406,2.99,2.99,0,0,0-.352,0c-.223.013-.513-.1-.651.046S914.894,609.38,914.876,609.563Z" transform="translate(-850.754 -568.17)" fill="#082a3a"/>
  <path id="Path_24" data-name="Path 24" d="M1006.282,617.227c-.219.644-.409,1.237-.622,1.822a.812.812,0,0,1-1.1.555.767.767,0,0,1-.528-.506c-.416-1.145-.839-2.288-1.224-3.444a.69.69,0,0,1,.758-1,.657.657,0,0,1,.617.555c.2.665.4,1.332.6,2,.021.068.047.135.085.243l.616-1.911c.039-.12.073-.242.12-.36a.679.679,0,0,1,.674-.526.647.647,0,0,1,.677.516c.2.552.366,1.114.547,1.671.06.185.121.37.2.623l.443-1.457c.089-.293.17-.59.27-.88a.712.712,0,0,1,.918-.454.67.67,0,0,1,.463.831,6.95,6.95,0,0,1-.338,1.027c-.289.817-.577,1.634-.876,2.448a.878.878,0,0,1-1.121.639.776.776,0,0,1-.559-.573c-.187-.527-.36-1.059-.539-1.589C1006.349,617.4,1006.324,617.339,1006.282,617.227Z" transform="translate(-919.875 -573.711)" fill="#082a3a"/>
  <path id="Path_25" data-name="Path 25" d="M1060.1,611.975a.8.8,0,0,1-.62.427.7.7,0,0,1-.765-.759c0-1.213,0-2.425,0-3.638q0-.937,0-1.873c0-.538.277-.865.724-.858s.706.316.707.844c0,.507,0,1.013,0,1.547a3.588,3.588,0,0,1,.668-.3,2.056,2.056,0,0,1,2.2.832,2.917,2.917,0,0,1-.363,3.805A1.881,1.881,0,0,1,1060.1,611.975Zm2-2.139a1.34,1.34,0,0,0-.082-.456.938.938,0,0,0-.88-.684.926.926,0,0,0-.892.664,1.511,1.511,0,0,0,.067,1.234.9.9,0,0,0,1.561.112A1.451,1.451,0,0,0,1062.1,609.836Z" transform="translate(-963.159 -566.468)" fill="#082a3a"/>
  <path id="Path_26" data-name="Path 26" d="M1127.65,614.118c-.362,0-.725,0-1.087,0a.747.747,0,0,1-.84-.835q0-2.444,0-4.887a.737.737,0,0,1,.795-.827c.733-.014,1.468-.016,2.2,0,.6.013.893.392.752.919a.637.637,0,0,1-.676.475q-.679.016-1.358,0c-.17,0-.22.048-.211.214.013.253.012.507,0,.76-.007.159.056.2.2.2.407-.008.816-.011,1.223,0a.692.692,0,1,1,.027,1.383,10.678,10.678,0,0,1-1.141,0c-.276-.02-.342.078-.316.331a3.443,3.443,0,0,1,0,.624c-.015.2.037.269.25.261.443-.018.887-.008,1.331,0a.668.668,0,0,1,.758.67.679.679,0,0,1-.718.719c-.4.018-.8,0-1.2,0Z" transform="translate(-1014.983 -568.234)" fill="#082a3a"/>
  <path id="Path_27" data-name="Path 27" d="M820.6,607.691a2.444,2.444,0,0,1,1.323-.35,1.576,1.576,0,0,1,1.676,1.717q0,1.289,0,2.579a.719.719,0,1,1-1.43.009c0-.724,0-1.448,0-2.171a.82.82,0,0,0-.576-.88.772.772,0,0,0-.989.806c-.006.76,0,1.52,0,2.28a.724.724,0,0,1-1.445.082,1.96,1.96,0,0,1-.012-.271q0-2.62,0-5.239a1.515,1.515,0,0,1,.046-.43.672.672,0,0,1,.606-.5.706.706,0,0,1,.806.741c.011.443,0,.887,0,1.33Z" transform="translate(-777.869 -566.5)" fill="#082a3a"/>
  <path id="Path_28" data-name="Path 28" d="M1037.955,614.77a.8.8,0,0,1,.642-.415.69.69,0,0,1,.75.686c.011,1.2.008,2.406,0,3.609a.688.688,0,0,1-.479.657.672.672,0,0,1-.781-.22c-.11-.135-.154-.147-.293-.023a1.887,1.887,0,0,1-2.528-.25,2.93,2.93,0,0,1-.042-3.885,2,2,0,0,1,1.973-.621A1.574,1.574,0,0,1,1037.955,614.77Zm-.046,2.07c-.014-.141-.017-.223-.03-.3a.978.978,0,0,0-.908-.888.942.942,0,0,0-.967.812,1.5,1.5,0,0,0,.141,1.127.9.9,0,0,0,1.551.044A1.5,1.5,0,0,0,1037.909,616.84Z" transform="translate(-944.439 -573.415)" fill="#082a3a"/>
  <path id="Path_29" data-name="Path 29" d="M881.261,617.323c-.486,0-.894.006-1.3,0-.18,0-.2.062-.138.21a.849.849,0,0,0,.65.518,1.822,1.822,0,0,0,1.217-.13c.157-.07.309-.151.467-.216a.561.561,0,0,1,.669.137.609.609,0,0,1,.109.682.878.878,0,0,1-.281.359,3.241,3.241,0,0,1-3.429.1,2.747,2.747,0,0,1-.592-3.568,2.377,2.377,0,0,1,4.416,1.441.468.468,0,0,1-.456.449C882.123,617.351,881.652,617.307,881.261,617.323Zm-.582-1c.252,0,.5,0,.757,0,.138,0,.2-.02.145-.181a.919.919,0,0,0-1.776.021c-.034.12-.012.163.116.16C880.174,616.319,880.426,616.323,880.679,616.323Z" transform="translate(-823.569 -573.409)" fill="#082a3a"/>
  <path id="Path_30" data-name="Path 30" d="M1169.477,617.321c-.478,0-.876.007-1.274,0-.214-.006-.232.09-.156.247a1.019,1.019,0,0,0,.944.528,1.8,1.8,0,0,0,.92-.184c.148-.068.293-.143.443-.2a.567.567,0,0,1,.673.125.615.615,0,0,1,.111.7.9.9,0,0,1-.312.37,3.188,3.188,0,0,1-3.493-.009,2.778,2.778,0,0,1-.552-3.391,2.458,2.458,0,0,1,3.019-1.1,2.433,2.433,0,0,1,1.472,2.378.482.482,0,0,1-.49.509C1170.322,617.353,1169.859,617.3,1169.477,617.321Zm-.563-1c.252,0,.505,0,.758,0,.124,0,.159-.039.129-.159a.919.919,0,0,0-1.777-.023c-.032.121-.017.187.132.183C1168.409,616.315,1168.661,616.32,1168.914,616.32Z" transform="translate(-1046.471 -573.407)" fill="#082a3a"/>
  <path id="Path_31" data-name="Path 31" d="M1093.556,617.32c-.389,0-.779.009-1.168,0-.234-.008-.239.1-.164.263a.862.862,0,0,0,.632.465,1.724,1.724,0,0,0,1.115-.092c.183-.078.36-.169.544-.243a.6.6,0,0,1,.716.148.686.686,0,0,1,.048.74.983.983,0,0,1-.272.3,3.208,3.208,0,0,1-3.472.02,2.766,2.766,0,0,1-.546-3.475,2.385,2.385,0,0,1,4.459,1.3c-.026.366-.162.527-.537.546-.451.023-.9.005-1.356.005Zm-.489-1c.254,0,.507,0,.761,0,.127,0,.184-.022.142-.169a.92.92,0,0,0-1.778.005c-.031.116-.018.167.115.163C1092.56,616.315,1092.814,616.319,1093.067,616.319Z" transform="translate(-987.826 -573.405)" fill="#082a3a"/>
  <path id="Path_32" data-name="Path 32" d="M938.464,617.321c-.477,0-.876.008-1.274,0-.213-.006-.23.084-.157.245a.874.874,0,0,0,.648.485,1.876,1.876,0,0,0,1.29-.172c.1-.047.194-.1.293-.142a.622.622,0,0,1,.789.132.656.656,0,0,1-.043.848,2,2,0,0,1-1.157.6,2.823,2.823,0,0,1-2.59-.479,2.758,2.758,0,0,1-.521-3.286,2.461,2.461,0,0,1,2.89-1.2,2.413,2.413,0,0,1,1.625,2.432.481.481,0,0,1-.488.51C939.309,617.352,938.846,617.3,938.464,617.321Zm-.568-1c.252,0,.505,0,.758,0,.12,0,.163-.036.135-.158a1.027,1.027,0,0,0-.881-.695,1.014,1.014,0,0,0-.9.668c-.042.15.01.191.156.186C937.409,616.314,937.653,616.32,937.9,616.32Z" transform="translate(-867.803 -573.406)" fill="#082a3a"/>
  <path id="Path_33" data-name="Path 33" d="M983.853,617.315c-.479,0-.877,0-1.276,0-.169,0-.207.052-.148.209a.853.853,0,0,0,.651.518,1.885,1.885,0,0,0,1.317-.173,3.872,3.872,0,0,1,.394-.182.566.566,0,0,1,.646.151.6.6,0,0,1,.115.657.932.932,0,0,1-.315.4,3.3,3.3,0,0,1-3.3.147,2.723,2.723,0,0,1-.826-3.413,2.461,2.461,0,0,1,3.079-1.226,2.414,2.414,0,0,1,1.468,2.431.458.458,0,0,1-.449.457C984.733,617.347,984.252,617.3,983.853,617.315Zm-.564-1c.253,0,.506-.007.758,0,.169.006.174-.074.138-.2a.919.919,0,0,0-1.768.031c-.043.148.016.17.141.167C982.8,616.311,983.045,616.315,983.289,616.315Z" transform="translate(-902.923 -573.401)" fill="#082a3a"/>
  <path id="Path_34" data-name="Path 34" d="M843.471,619.394a2.4,2.4,0,0,1-2.39-2.149,2.675,2.675,0,0,1,.765-2.407,2.3,2.3,0,0,1,2.5-.467,2.334,2.334,0,0,1,1.518,2.011,2.878,2.878,0,0,1-.148,1.439A2.333,2.333,0,0,1,843.471,619.394Zm-.979-2.588a1.452,1.452,0,0,0,.124.607.889.889,0,0,0,.834.588.863.863,0,0,0,.855-.552,1.462,1.462,0,0,0-.086-1.449.9.9,0,0,0-1.424-.1A1.381,1.381,0,0,0,842.493,616.806Z" transform="translate(-794.82 -573.367)" fill="#082a3a"/>
  <path id="Path_35" data-name="Path 35" d="M1228.729,617.341c.2-.484.37-.908.549-1.328a7.325,7.325,0,0,1,.428-.965.681.681,0,0,1,.9-.349.7.7,0,0,1,.418.865,1.864,1.864,0,0,1-.114.361q-1.1,2.564-2.2,5.127c-.131.3-.3.559-.681.566a.675.675,0,0,1-.721-.944,12.846,12.846,0,0,1,.552-1.295.591.591,0,0,0,0-.533c-.409-.954-.808-1.913-1.21-2.871-.049-.116-.1-.233-.138-.353a.662.662,0,0,1,.36-.92.733.733,0,0,1,.975.394c.224.523.416,1.059.622,1.589C1228.545,616.883,1228.625,617.079,1228.729,617.341Z" transform="translate(-1092.888 -573.715)" fill="#082a3a"/>
  <path id="Path_36" data-name="Path 36" d="M963.406,617.159c0,.452,0,.9,0,1.356a.722.722,0,1,1-1.441.012c-.009-.732,0-1.465,0-2.2,0-.5-.211-.8-.592-.886a.757.757,0,0,0-.958.779c-.008.741,0,1.483,0,2.224a.757.757,0,0,1-.486.8.708.708,0,0,1-.962-.651c-.02-1.2-.013-2.4,0-3.607a.652.652,0,0,1,.478-.656.744.744,0,0,1,.837.228c.1.114.13.129.254.018a1.794,1.794,0,0,1,1.914-.232,1.421,1.421,0,0,1,.962,1.4C963.423,616.218,963.406,616.689,963.406,617.159Z" transform="translate(-885.998 -573.354)" fill="#082a3a"/>
  <path id="Path_37" data-name="Path 37" d="M1144.592,616.767c0-.561.006-1.123,0-1.684a.713.713,0,0,1,.438-.74.768.768,0,0,1,.885.225c.068.075.092.153.217.036a1.774,1.774,0,0,1,1.957-.252,1.405,1.405,0,0,1,.943,1.418c.019.923.011,1.847,0,2.77a.721.721,0,1,1-1.44-.014c-.006-.751,0-1.5,0-2.254a.765.765,0,0,0-.7-.844c-.513-.045-.857.3-.863.879-.007.751.005,1.5,0,2.254a.7.7,0,0,1-.954.686.684.684,0,0,1-.472-.688C1144.589,617.962,1144.592,617.365,1144.592,616.767Z" transform="translate(-1029.575 -573.353)" fill="#082a3a"/>
  <path id="Path_38" data-name="Path 38" d="M770.746,605.259a3.411,3.411,0,0,1,.429.072.593.593,0,0,1,.471.738c-.037.336-.223.5-.607.524-.3.022-.372.1-.381.406,0,.081.008.164,0,.244-.02.168.049.23.214.211a1.657,1.657,0,0,1,.271,0,.658.658,0,0,1,.01,1.316c-.494.031-.494.031-.494.527,0,.759.006,1.519,0,2.278a.732.732,0,1,1-1.456.015c0-.85-.007-1.7,0-2.549,0-.2-.041-.276-.263-.278a.652.652,0,1,1,.016-1.3c.215,0,.256-.072.247-.265a2.8,2.8,0,0,1,.034-.729A1.469,1.469,0,0,1,770.746,605.259Z" transform="translate(-738.539 -566.457)" fill="#082a3a"/>
  <path id="Path_39" data-name="Path 39" d="M802.479,619.431a2.727,2.727,0,0,1-1.474-.393.7.7,0,0,1-.326-.885.586.586,0,0,1,.736-.384,2.914,2.914,0,0,1,.524.22,1.381,1.381,0,0,0,.759.159c.128-.016.251-.061.281-.214a.278.278,0,0,0-.182-.326c-.114-.054-.23-.1-.347-.152-.284-.117-.575-.218-.852-.351a1.377,1.377,0,0,1-.39-2.3,2.2,2.2,0,0,1,2.728-.148.786.786,0,0,1,.315.461.618.618,0,0,1-.178.621.557.557,0,0,1-.606.107c-.127-.047-.249-.105-.375-.155a2.035,2.035,0,0,0-.357-.126c-.214-.04-.472-.091-.561.175s.177.336.357.418c.337.153.7.249,1.027.421a1.339,1.339,0,0,1,.828,1.287,1.491,1.491,0,0,1-.881,1.358A2.162,2.162,0,0,1,802.479,619.431Z" transform="translate(-763.554 -573.411)" fill="#082a3a"/>
  <path id="Path_40" data-name="Path 40" d="M785.948,610.35c0-.434-.01-.869,0-1.3.007-.2-.042-.263-.252-.263a.591.591,0,0,1-.668-.592.6.6,0,0,1,.652-.714c.217,0,.279-.063.268-.275a2.507,2.507,0,0,1,.058-.862,1.5,1.5,0,0,1,1.973-.972.6.6,0,0,1,.408.734.557.557,0,0,1-.574.507.59.59,0,0,0-.431.8c.033.061.085.058.138.058.109,0,.218,0,.326,0,.449.014.7.255.689.664s-.245.641-.7.656-.463.015-.463.476q0,1.181,0,2.361a.711.711,0,0,1-.713.784.724.724,0,0,1-.717-.786c0-.009,0-.018,0-.027Q785.948,610.975,785.948,610.35Z" transform="translate(-751.493 -566.474)" fill="#082a3a"/>
  <path id="Path_41" data-name="Path 41" d="M1082.156,608.862c0-.923,0-1.846,0-2.768a.694.694,0,0,1,.655-.779.7.7,0,0,1,.779.767q0,2.605,0,5.211c0,.136,0,.271,0,.407a.718.718,0,0,1-.714.736.7.7,0,0,1-.719-.724C1082.15,610.761,1082.156,609.811,1082.156,608.862Z" transform="translate(-981.288 -566.498)" fill="#082a3a"/>
  <path id="Path_42" data-name="Path 42" d="M1189.974,616.831c0-.56,0-1.12,0-1.681a.724.724,0,0,1,.462-.753.752.752,0,0,1,.876.247c.1.116.148.116.243.012a1.248,1.248,0,0,1,.645-.378.759.759,0,0,1,.911.492.661.661,0,0,1-.458.879c-.218.085-.445.149-.667.223a.739.739,0,0,0-.551.75c-.009.659,0,1.319-.019,1.978a.721.721,0,1,1-1.441-.006C1189.97,618.006,1189.974,617.418,1189.974,616.831Z" transform="translate(-1064.674 -573.414)" fill="#082a3a"/>
  <path id="Path_43" data-name="Path 43" d="M866.083,614.769a1.728,1.728,0,0,1,.75-.479.751.751,0,0,1,.93.491.653.653,0,0,1-.457.874c-.218.085-.445.148-.667.224a.727.727,0,0,0-.541.67c-.061.695-.009,1.39-.029,2.085a.705.705,0,0,1-.957.679.659.659,0,0,1-.469-.631q-.011-1.83,0-3.659a.629.629,0,0,1,.425-.606.752.752,0,0,1,.81.135A2.854,2.854,0,0,1,866.083,614.769Z" transform="translate(-813.06 -573.421)" fill="#082a3a"/>
</svg>
