<svg id="Group_59" data-name="Group 59" xmlns="http://www.w3.org/2000/svg" width="165.657" height="64.849" viewBox="0 0 165.657 64.849">
  <path id="Path_59" data-name="Path 59" d="M488.895,472.123a11.7,11.7,0,0,1,3.662.1,6.922,6.922,0,0,1,5.4,4.956,12.737,12.737,0,0,1-.127,8.062,21.514,21.514,0,0,1-5.239,8.44,20.622,20.622,0,0,1-8.144,5.33,11.833,11.833,0,0,1-6.248.558,6.862,6.862,0,0,1-5.67-5.78,13.8,13.8,0,0,1-.206-3.138,18.929,18.929,0,0,1,.865-4.289c.278-.855.672-1.663.975-2.507a22.438,22.438,0,0,1,3.727-5.414,23.74,23.74,0,0,1,3.539-3.114,2.73,2.73,0,0,0,.242-.134,21.178,21.178,0,0,1,3.524-1.964A18.428,18.428,0,0,1,488.895,472.123Z" transform="translate(-437.319 -439.636)" fill="#082a3a"/>
  <path id="Path_60" data-name="Path 60" d="M84.288,158.168a8.541,8.541,0,0,1-2.99-6.1,14.674,14.674,0,0,1,2.181-9.073,22.554,22.554,0,0,1,10.881-9.864,12.608,12.608,0,0,1,6.63-1.024,7.015,7.015,0,0,1,4.53,2.246c.141.157.256.337.382.506a8.2,8.2,0,0,1,1.216,2.6,12.118,12.118,0,0,1-.063,6.162,21.553,21.553,0,0,1-13.385,15.146,11.689,11.689,0,0,1-4.905.846A8.545,8.545,0,0,1,84.288,158.168Z" transform="translate(-77.899 -127.153)" fill="#082a3a"/>
  <path id="Path_61" data-name="Path 61" d="M554.756,201.905a21.435,21.435,0,0,1-.308-2.39c-.243-1.921-.375-3.857-.729-5.763A6.014,6.014,0,0,0,552.246,191a7.4,7.4,0,0,0-5.339-2.572c-1.423-.111-2.85-.071-4.273-.218a8.532,8.532,0,0,1-4.741-2.144,18.232,18.232,0,0,1-3.949-4.561,12.634,12.634,0,0,1-1.688-5.093,7.948,7.948,0,0,1,.749-4.59,7.531,7.531,0,0,1,2.837-2.975,12.091,12.091,0,0,1,4.3-1.653,8.93,8.93,0,0,1,2.944,0,6.953,6.953,0,0,1,4.919,3.518A31.32,31.32,0,0,0,550,173.714a5.841,5.841,0,0,0,.935.948c.086.067.181.2.312.129s.113-.221.064-.36a.9.9,0,0,1-.018-.238c.151.07.181.226.246.355a21.163,21.163,0,0,1,1.21,2.99,39.359,39.359,0,0,1,1.523,9.681c.141,2.175.168,4.357.247,6.536.051,1.412.128,2.824.148,4.237C554.68,199.3,554.814,200.6,554.756,201.905Z" transform="translate(-492.356 -159.378)" fill="#082a3a"/>
  <path id="Path_62" data-name="Path 62" d="M172.838,620l.553.025a.985.985,0,0,0-.451-.576,17.036,17.036,0,0,0-3.345-1.786c-.541-.242-1.071-.507-1.612-.75a3.814,3.814,0,0,1-2.051-2.374,11.8,11.8,0,0,1-.268-7.576,6.808,6.808,0,0,1,5.511-4.929,11.323,11.323,0,0,1,6.443.775,16.124,16.124,0,0,1,5.958,4,9.878,9.878,0,0,1,2.718,5.65,19.684,19.684,0,0,0,.9,4.336,4.547,4.547,0,0,0,2.207,2.369,6.434,6.434,0,0,0,2.457.988,20.549,20.549,0,0,0,2.261.1q3.4-.014,6.8-.036c.12,0,.24.019.36.029a1.332,1.332,0,0,1-.232.047c-1.953.05-3.9.247-5.836.444-3.213.326-6.417.74-9.646.892a37.469,37.469,0,0,1-8.536-.353A16.937,16.937,0,0,1,172.838,620Z" transform="translate(-155.045 -558.943)" fill="#082a3a"/>
  <path id="Path_63" data-name="Path 63" d="M119.132,190.46a8.545,8.545,0,0,0,4.478,1.449,11.689,11.689,0,0,0,4.905-.846A21.553,21.553,0,0,0,141.9,175.918a12.117,12.117,0,0,0,.063-6.162,8.2,8.2,0,0,0-1.216-2.6,10.329,10.329,0,0,1,4.1,1.691A12.159,12.159,0,0,1,149.8,176.9a31.041,31.041,0,0,0,1.312,5.268c.167.424.355.839.531,1.251-.1.118-.187.059-.261.009a19.413,19.413,0,0,0-2.215-1.028,3.248,3.248,0,0,0-1.125-.246,8.88,8.88,0,0,0-2.395-.191,9.415,9.415,0,0,0-2.984.661c-.515.266-1.108.4-1.625.687a7.761,7.761,0,0,0-1.984,1.427c-.323.349-.709.621-1.033.986a11.7,11.7,0,0,0-1.811,2.794,11.981,11.981,0,0,0-.753,2.48,12.111,12.111,0,0,0-.115,3.131,6.541,6.541,0,0,0,.572,2.436,13.018,13.018,0,0,0,.493,1.272,16.121,16.121,0,0,0,1.365,2.079c.057.072.165.138.114.238-.08.157-.2.018-.275-.009a17.077,17.077,0,0,0-2.913-.8,15.141,15.141,0,0,0-3.328-.192,12.165,12.165,0,0,1-5.091-.884,11.77,11.77,0,0,1-7.121-7.615A1.085,1.085,0,0,1,119.132,190.46Z" transform="translate(-112.743 -159.446)" fill="#082a3a"/>
  <path id="Path_64" data-name="Path 64" d="M400.164,101.931a14.278,14.278,0,0,1,2.708,1.918l-.063.068a6.492,6.492,0,0,0-4.164-.08,44.471,44.471,0,0,1-7.057,1.066,22.752,22.752,0,0,1-9.985-1.512,7,7,0,0,1-3.012-2.112,1.4,1.4,0,0,1-.285-1.6c.32-.037.641-.073.961-.111,2.123-.257,4.253-.444,6.388-.52,1.613-.057,3.229-.057,4.845.042a23.019,23.019,0,0,1,5.615,1.029,31.487,31.487,0,0,1,3.336,1.407l-.01-.005.171.087-.008-.006c.034.074.11.065.17.088l-.008-.007.089.089-.01-.006.172.086-.01-.006Z" transform="translate(-350.794 -96.823)" fill="#082a3a"/>
  <path id="Path_65" data-name="Path 65" d="M71.119,477.875a2.755,2.755,0,0,1,2.384,1.088,12.778,12.778,0,0,1,3.088,5.511,29.052,29.052,0,0,1,1.1,6.182c.186,2.312.227,4.626.209,6.942a5.22,5.22,0,0,0,.931,3.316l-.058.069a17.688,17.688,0,0,1-2.127-2.184c-.535-.614-1.025-1.268-1.533-1.906-.057-.071-.138-.133-.115-.243.3-.027.108-.168.052-.255a23.4,23.4,0,0,1-3.356-9.818A76.84,76.84,0,0,1,71.119,477.875Z" transform="translate(-68.618 -444.987)" fill="#082a3a"/>
  <path id="Path_66" data-name="Path 66" d="M757.68,257.936c.058-1.306-.076-2.608-.095-3.912-.02-1.413-.1-2.825-.148-4.237-.079-2.179-.106-4.361-.247-6.536a39.362,39.362,0,0,0-1.523-9.681,21.171,21.171,0,0,0-1.21-2.99c-.064-.129-.094-.285-.246-.355a.208.208,0,0,0-.029-.053.077.077,0,0,0-.042-.115.148.148,0,0,0-.026-.051.082.082,0,0,0-.052-.11A13.417,13.417,0,0,0,753,228.132l.074-.086a32.4,32.4,0,0,1,4.946,30.737c-.046.126-.1.249-.155.372-.009.02-.034.033-.072.068Z" transform="translate(-695.28 -215.409)" fill="#082a3a"/>
  <path id="Path_67" data-name="Path 67" d="M1664.92,80.108q0,3.783,0,7.566c0,.195.074.45-.164.538a1.422,1.422,0,0,1-.908,0,.2.2,0,0,1-.1-.158c.005-.539-.277-.337-.54-.221a5.9,5.9,0,0,1-5.192.055,5.128,5.128,0,0,1-2.813-4.217,7.087,7.087,0,0,1,.609-4.134,5.278,5.278,0,0,1,7.277-2.272c.353.2.425.158.426-.272,0-1.5.01-2.994-.006-4.491,0-.381.109-.529.508-.519.986.025.907-.1.907.924Q1664.919,76.507,1664.92,80.108Zm-1.408,2.446c0-1.065-.016-2.13.006-3.194a1.316,1.316,0,0,0-.827-1.307,4.111,4.111,0,0,0-1.765-.362,3.851,3.851,0,0,0-3.971,2.512,6.95,6.95,0,0,0-.3,3.58,4.181,4.181,0,0,0,5.768,3.426,1.418,1.418,0,0,0,1.09-1.542Q1663.512,84.111,1663.512,82.554Z" transform="translate(-1524.355 -71.982)" fill="#082a3a"/>
  <path id="Path_68" data-name="Path 68" d="M42.732,345.8a76.839,76.839,0,0,0,.578,8.7,23.4,23.4,0,0,0,3.356,9.818c.056.087.244.227-.052.255h0a.532.532,0,0,0-.337-.468l-.006-.007c.02-.059,0-.089-.063-.09h0c.013-.057-.009-.088-.067-.092h0c.015-.129-.025-.219-.166-.24h0c.013-.127-.023-.22-.165-.242h0c.016-.08-.005-.137-.1-.148v0a.068.068,0,0,0-.067-.092h0c.015-.08-.008-.135-.1-.148l0,0c.011-.073,0-.131-.092-.135l-.013-.02c.02-.054,0-.082-.056-.089a32.378,32.378,0,0,1-3.21-28.657,3.861,3.861,0,0,1,.138,1.16c.021.4.025.808.041,1.212Q42.544,341.16,42.732,345.8Z" transform="translate(-40.23 -312.915)" fill="#082a3a"/>
  <path id="Path_69" data-name="Path 69" d="M238.141,816.372a16.937,16.937,0,0,0,4.192,1.278,37.469,37.469,0,0,0,8.536.353c3.229-.153,6.433-.566,9.646-.892,1.941-.2,3.883-.394,5.836-.444a1.326,1.326,0,0,0,.232-.047h.745c-7.932,4.4-20.452,5.388-31.109-.983l.072-.109A9.744,9.744,0,0,0,238.141,816.372Z" transform="translate(-220.348 -755.318)" fill="#082a3a"/>
  <path id="Path_70" data-name="Path 70" d="M289.739,78.248a31.49,31.49,0,0,0-3.336-1.407,23.019,23.019,0,0,0-5.615-1.029c-1.616-.1-3.231-.1-4.845-.042-2.136.076-4.266.263-6.388.52-.32.039-.641.074-.961.111q-1.707.173-3.414.346c-2.01.206-4.022.39-6.042.454a1.262,1.262,0,0,1-.359-.031,19.652,19.652,0,0,1,2.938-1.354,31.277,31.277,0,0,1,12.216-2.123,31.658,31.658,0,0,1,13.433,3.232A11.655,11.655,0,0,1,289.739,78.248Z" transform="translate(-241.081 -73.543)" fill="#082a3a"/>
  <path id="Path_71" data-name="Path 71" d="M1976.647,82.549q0-3.7,0-7.4c0-.606.016-.618.6-.624.952-.009.8.024.8.816,0,1.322,0,2.643,0,3.965,0,.512.059.535.525.3a5.548,5.548,0,0,1,4.948-.167,3.3,3.3,0,0,1,1.943,3.2c.042,2.521.016,5.044.016,7.565,0,.079.006.187-.039.231-.331.315-.742.149-1.115.14-.25-.006-.267-.26-.267-.471,0-1.389,0-2.778,0-4.167,0-1.186.014-2.374-.035-3.558a2.408,2.408,0,0,0-2.186-2.366,5.691,5.691,0,0,0-2.713.222,1.359,1.359,0,0,0-1.077,1.54q0,4.127,0,8.254c0,.536-.034.569-.575.57-.108,0-.217-.008-.323,0-.39.036-.516-.145-.515-.525C1976.653,87.566,1976.647,85.058,1976.647,82.549Z" transform="translate(-1819.84 -74.315)" fill="#082a3a"/>
  <path id="Path_72" data-name="Path 72" d="M1478.52,353.414c-1.255,0-2.509.006-3.763-.005-.255,0-.349.047-.332.33a7.266,7.266,0,0,0,.431,2.573,4.009,4.009,0,0,0,4.284,2.286,5.3,5.3,0,0,0,2.172-.7c.2-.126.4-.377.681-.187.167.115.1.792-.082.99a1.393,1.393,0,0,1-.28.23,6.273,6.273,0,0,1-7.465-1.268,6.909,6.909,0,0,1,.609-8.556,4.65,4.65,0,0,1,5.144-.965,4.324,4.324,0,0,1,2.841,4.135c.065,1.358.094,1.12-1.085,1.133C1480.625,353.423,1479.573,353.414,1478.52,353.414Zm-.66-.981q1.576,0,3.152,0c.152,0,.342.053.327-.218-.146-2.586-2.062-3.841-4.157-3.312a3.667,3.667,0,0,0-2.714,3.224c-.055.282.042.314.28.312C1475.786,352.428,1476.823,352.433,1477.86,352.433Z" transform="translate(-1356.949 -325.429)" fill="#082a3a"/>
  <path id="Path_73" data-name="Path 73" d="M1374.186,135.006c-1.241,0-2.483.014-3.724-.009-.348-.007-.393.121-.374.416a9.817,9.817,0,0,0,.227,1.923,3.785,3.785,0,0,0,3.532,2.841,5.024,5.024,0,0,0,3.137-.711c.2-.122.455-.421.656-.153a.817.817,0,0,1-.033.914,1.01,1.01,0,0,1-.4.334c-1.559.819-5,1.127-6.968-.845a5.405,5.405,0,0,1-1.531-3.311,6.8,6.8,0,0,1,1.174-5.107,4.674,4.674,0,0,1,4.752-1.844,4.325,4.325,0,0,1,3.54,3.006,6.011,6.011,0,0,1,.252,2.195c-.006.324-.226.351-.475.351Q1376.068,135,1374.186,135.006ZM1373.56,134h2.67c.843,0,.843,0,.686-.847a3.208,3.208,0,0,0-2.764-2.76,3.645,3.645,0,0,0-4.027,3.281c-.051.291.07.332.321.33C1371.483,133.994,1372.522,134,1373.56,134Z" transform="translate(-1261.07 -124.726)" fill="#082a3a"/>
  <path id="Path_74" data-name="Path 74" d="M1131.819,136.206q0,2.125,0,4.249c0,.255.011.489-.344.519-.6.052-.731.008-.824-.394-.064-.276-.23-.21-.4-.143a8.776,8.776,0,0,1-2.2.655,5.1,5.1,0,0,1-3.254-.511,2.828,2.828,0,0,1-.545-4.443,6.472,6.472,0,0,1,2.343-1.314c1.032-.389,2.076-.745,3.112-1.124.568-.207.674-.4.7-.987.084-1.711-.646-2.389-2.411-2.413a6.034,6.034,0,0,0-3.117.856c-.2.116-.429.444-.687.106a.911.911,0,0,1,.274-1.1,7.529,7.529,0,0,1,1.678-.568,8.053,8.053,0,0,1,3.484-.127,2.546,2.546,0,0,1,2.18,2.651C1131.826,133.481,1131.819,134.843,1131.819,136.206Zm-1.408.618c0-.647-.012-1.295.006-1.941.007-.269-.094-.285-.3-.212-.825.287-1.653.564-2.477.855a6.5,6.5,0,0,0-2.04,1.037,1.94,1.94,0,0,0,.505,3.351,4.764,4.764,0,0,0,3.618-.182,1.1,1.1,0,0,0,.694-1.128C1130.4,138.011,1130.411,137.418,1130.411,136.824Z" transform="translate(-1035.705 -124.688)" fill="#082a3a"/>
  <path id="Path_75" data-name="Path 75" d="M1621.779,354.919c0,1.43,0,2.86,0,4.289,0,.265-.018.531-.362.489-.292-.036-.758.242-.807-.361-.023-.287-.213-.227-.383-.169-.484.164-.956.367-1.448.5a5.329,5.329,0,0,1-3.863-.267,2.825,2.825,0,0,1-.534-4.679,7.744,7.744,0,0,1,2.351-1.225c.971-.359,1.95-.7,2.923-1.051.6-.216.71-.386.713-1.015,0-.189.008-.378,0-.566a1.72,1.72,0,0,0-1.582-1.747,5.823,5.823,0,0,0-3.957.792c-.192.11-.4.419-.659.119a.94.94,0,0,1,.241-1.117,7.232,7.232,0,0,1,1.637-.563,7.956,7.956,0,0,1,3.565-.136,2.542,2.542,0,0,1,2.163,2.7C1621.782,352.248,1621.779,353.583,1621.779,354.919Zm-1.409-1.613a29.388,29.388,0,0,0-4.346,1.668,2.989,2.989,0,0,0-.579.434,1.918,1.918,0,0,0,.544,3.206,4.616,4.616,0,0,0,3.792-.2.942.942,0,0,0,.584-.859C1620.379,356.157,1620.37,354.759,1620.37,353.306Z" transform="translate(-1485.992 -325.707)" fill="#082a3a"/>
  <path id="Path_76" data-name="Path 76" d="M1003.129,354.023q0-2.589,0-5.179c0-.263.027-.485.362-.519.6-.062.728-.01.833.382.083.308.274.168.435.1a7.439,7.439,0,0,1,2.447-.644,6.053,6.053,0,0,1,2.278.229,3.406,3.406,0,0,1,2.458,3.254c.043.617.066,1.237.068,1.856.009,1.9,0,3.8,0,5.7,0,.485-.086.568-.558.572-.889.007-.889.007-.889-.878q0-3.277,0-6.554a4.548,4.548,0,0,0-.027-.605,2.724,2.724,0,0,0-3.268-2.6,5.086,5.086,0,0,0-1.845.381,1.37,1.37,0,0,0-.867,1.367c.02,2.765.009,5.529.008,8.294,0,.547-.049.6-.6.6h-.162c-.64,0-.674-.034-.674-.694Q1003.129,356.552,1003.129,354.023Z" transform="translate(-925.157 -325.775)" fill="#082a3a"/>
  <path id="Path_77" data-name="Path 77" d="M1155.605,355.924q0,2.549,0,5.1c0,.275.032.555-.36.6-.594.068-.723.011-.848-.412-.088-.3-.3-.172-.459-.114a12.158,12.158,0,0,1-2.015.577,5.812,5.812,0,0,1-2.917-.11,2.947,2.947,0,0,1-2.221-2.9c-.044-2.13-.02-4.262-.024-6.392,0-.566.006-1.133,0-1.7,0-.271.106-.386.378-.4,1.007-.067,1.019-.06,1.019.944q0,3.379,0,6.757a2.691,2.691,0,0,0,2.835,2.936,5.907,5.907,0,0,0,1.958-.219,1.491,1.491,0,0,0,1.233-1.65q0-4.087,0-8.173c0-.559.034-.591.6-.592h.283c.478,0,.541.064.542.532Q1155.607,353.315,1155.605,355.924Z" transform="translate(-1057.158 -327.621)" fill="#082a3a"/>
  <path id="Path_78" data-name="Path 78" d="M1517.875,135.32q0-2.61,0-5.22c0-.222-.005-.5.3-.454s.768-.319.859.314c.041.287.229.245.421.153a6.672,6.672,0,0,1,2.883-.683,4.3,4.3,0,0,1,3.488,1.268,3.693,3.693,0,0,1,.866,2.468c.037,2.495.021,4.991.031,7.486,0,.27-.118.408-.382.408-1.1,0-1.032.1-1.03-.932q.008-3.177,0-6.354a6,6,0,0,0-.13-1.243,2.409,2.409,0,0,0-2.113-2.043,5.308,5.308,0,0,0-2.672.216,1.394,1.394,0,0,0-1.1,1.57q0,4.047,0,8.094c0,.672-.022.694-.712.694-.081,0-.162,0-.243,0-.346.023-.475-.133-.473-.481C1517.881,138.827,1517.875,137.074,1517.875,135.32Z" transform="translate(-1398.217 -124.778)" fill="#082a3a"/>
  <path id="Path_79" data-name="Path 79" d="M1248.583,141.615q1.431-4.209,2.85-8.382c.117-.344.242-.686.341-1.035a.5.5,0,0,1,.585-.411c.842.019.869.039.588.836-1.207,3.423-2.42,6.845-3.615,10.272a.654.654,0,0,1-.761.517c-.987-.048-.792.15-1.148-.82q-1.848-5.037-3.671-10.083c-.218-.6-.137-.72.5-.712.742.009.746-.154,1.054.728,1.028,2.945,2.075,5.883,3.115,8.824C1248.454,141.434,1248.452,141.539,1248.583,141.615Z" transform="translate(-1146.196 -126.944)" fill="#082a3a"/>
  <path id="Path_80" data-name="Path 80" d="M918.483,120.687q0,8.172,0,16.345c0,.13.1.346-.1.381a1.581,1.581,0,0,1-.757-.021c-.028-.009-.042-.091-.046-.141-.007-.094,0-.189,0-.283q0-16.284,0-32.568c0-.147-.1-.384.082-.429a2.719,2.719,0,0,1,.763-.006c.021,0,.051.087.055.135.008.107,0,.216,0,.323Z" transform="translate(-846.511 -101.351)" fill="#082a3a"/>
  <path id="Path_81" data-name="Path 81" d="M1000.1,140.939a6.333,6.333,0,0,1-3.226-.752,4.776,4.776,0,0,1-2.291-3.142,7.756,7.756,0,0,1,.122-4.229,5.1,5.1,0,0,1,4.8-3.729,7.781,7.781,0,0,1,3.105.406c.662.241.874.526.845,1.066-.021.386-.164.475-.521.309a8.114,8.114,0,0,0-1.847-.686,4.188,4.188,0,0,0-5.226,3.757,7.255,7.255,0,0,0,.16,2.965,3.949,3.949,0,0,0,3.88,3.016,6.562,6.562,0,0,0,2.867-.568c.193-.084.4-.369.637-.089a1.01,1.01,0,0,1-.155.978,1.884,1.884,0,0,1-.643.33A8.685,8.685,0,0,1,1000.1,140.939Z" transform="translate(-917.09 -124.45)" fill="#082a3a"/>
  <path id="Path_82" data-name="Path 82" d="M1292.239,359.775a5.749,5.749,0,0,1-2.988-.714,4.891,4.891,0,0,1-2.436-3.629,7.794,7.794,0,0,1,.278-3.949,5.082,5.082,0,0,1,4.654-3.536,7.363,7.363,0,0,1,3.371.474.9.9,0,0,1,.664.981c-.043.4-.165.5-.546.309a7.206,7.206,0,0,0-1.221-.527,4.416,4.416,0,0,0-4.587.927,4.1,4.1,0,0,0-1.067,1.92,7.051,7.051,0,0,0-.078,3.443,4.009,4.009,0,0,0,4.309,3.3,6.377,6.377,0,0,0,2.721-.681c.368-.183.451-.128.462.277.016.592-.079.755-.634.974A7.762,7.762,0,0,1,1292.239,359.775Z" transform="translate(-1185.751 -325.583)" fill="#082a3a"/>
  <path id="Path_83" data-name="Path 83" d="M1867.917,129.251a5.231,5.231,0,0,1,2.22.486.841.841,0,0,1,.54.976c-.026.3-.166.381-.433.26-.355-.16-.7-.348-1.064-.482a3.269,3.269,0,0,0-2.1-.12,1.65,1.65,0,0,0-1.258,1.331,1.52,1.52,0,0,0,.664,1.654c.851.592,1.71,1.174,2.564,1.761.2.137.4.276.592.422a2.864,2.864,0,0,1,1.127,3.394,3.033,3.033,0,0,1-2.693,2.12,6.12,6.12,0,0,1-3.156-.488.778.778,0,0,1-.524-1.059.209.209,0,0,1,.3-.177,2.8,2.8,0,0,1,.479.208,3.888,3.888,0,0,0,2.8.46,1.754,1.754,0,0,0,1.429-1.274,1.8,1.8,0,0,0-.6-2c-.753-.613-1.586-1.114-2.381-1.669-.232-.162-.467-.32-.688-.5a2.929,2.929,0,0,1,1.452-5.236C1867.435,129.28,1867.693,129.272,1867.917,129.251Z" transform="translate(-1716.641 -124.614)" fill="#082a3a"/>
  <path id="Path_84" data-name="Path 84" d="M1426.176,299q0,3.784,0,7.567c0,.518-.037.555-.549.558-.859.005-.859.005-.859-.862q0-7.405,0-14.81c0-.6.005-.6.616-.6.791,0,.791,0,.791.787Z" transform="translate(-1312.654 -273.129)" fill="#082a3a"/>
  <path id="Path_85" data-name="Path 85" d="M1754.285,355.917q0-2.548,0-5.1c0-.205-.078-.477.194-.559a1.357,1.357,0,0,1,.872.017c.13.049.106.2.113.323.023.431.077.468.44.291a6.851,6.851,0,0,1,3.208-.672c.443.011.54.109.549.554,0,.054,0,.108,0,.162,0,.646-.089.723-.738.619a7.742,7.742,0,0,0-1.843-.166,1.308,1.308,0,0,0-1.354,1.276,4.153,4.153,0,0,0-.019.525q0,3.963,0,7.926c0,.494-.058.549-.56.552-.863.005-.863.005-.863-.86Z" transform="translate(-1615.481 -327.671)" fill="#082a3a"/>
  <path id="Path_86" data-name="Path 86" d="M1817.433,137.491q0,2.57,0,5.14c0,.548-.059.608-.593.61-.108,0-.217-.008-.324,0-.384.034-.524-.136-.523-.521q.013-5.2,0-10.4c0-.381.119-.53.514-.52.947.026.932-.118.928.914C1817.428,134.307,1817.433,135.9,1817.433,137.491Z" transform="translate(-1672.199 -126.957)" fill="#082a3a"/>
  <path id="Path_87" data-name="Path 87" d="M588.832,446.545a18.424,18.424,0,0,0-3.7,1.111,21.182,21.182,0,0,0-3.525,1.964,2.712,2.712,0,0,1-.242.134,17.128,17.128,0,0,0,.165-2.883,11.286,11.286,0,0,0-.413-2.312c-.041-.115-.122-.242-.006-.332s.188.051.275.1a14.345,14.345,0,0,0,5.451,1.967C587.5,446.4,588.166,446.464,588.832,446.545Z" transform="translate(-537.256 -414.058)" fill="#082a3a"/>
  <path id="Path_88" data-name="Path 88" d="M434.35,618c-.3.844-.7,1.652-.975,2.507a18.927,18.927,0,0,0-.865,4.289,11.142,11.142,0,0,0-2.644-5.191c-.207-.247-.425-.485-.644-.722-.128-.139-.314-.273-.2-.479.1-.183.342-.128.48-.076a4.879,4.879,0,0,0,1.8.14,9.6,9.6,0,0,0,2.407-.4A1.588,1.588,0,0,1,434.35,618Z" transform="translate(-397.508 -573.772)" fill="#082a3a"/>
  <path id="Path_89" data-name="Path 89" d="M1813.367,77.867c0-.733.246-.977.966-.972.693.005.912.242.906.978-.006.687-.281.967-.948.97S1813.364,78.581,1813.367,77.867Z" transform="translate(-1669.786 -76.497)" fill="#082a3a"/>
  <path id="Path_90" data-name="Path 90" d="M200.324,791.845l-.072.109a17.978,17.978,0,0,1-2.6-1.675,2.674,2.674,0,0,1-.574-.521C198.147,790.483,199.23,791.173,200.324,791.845Z" transform="translate(-184.382 -731.636)" fill="#082a3a"/>
  <path id="Path_91" data-name="Path 91" d="M728.293,198.248l-.074.086c-.7-.88-1.389-1.771-2.171-2.584-.021-.021-.015-.068.014-.128A17.164,17.164,0,0,1,728.293,198.248Z" transform="translate(-670.501 -185.61)" fill="#082a3a"/>
  <path id="Path_92" data-name="Path 92" d="M114.906,704.185a.532.532,0,0,1,.337.468A.66.66,0,0,1,114.906,704.185Z" transform="translate(-108.859 -652.992)" fill="#082a3a"/>
  <path id="Path_93" data-name="Path 93" d="M109.15,695.888c.141.022.178.115.165.242A.211.211,0,0,1,109.15,695.888Z" transform="translate(-103.569 -645.367)" fill="#082a3a"/>
  <path id="Path_94" data-name="Path 94" d="M111.172,698.867c.141.021.181.112.166.24A.2.2,0,0,1,111.172,698.867Z" transform="translate(-105.426 -648.105)" fill="#082a3a"/>
  <path id="Path_95" data-name="Path 95" d="M683.8,159.646c.058.026.154.068.111.123-.072.093-.114-.032-.17-.063Z" transform="translate(-631.629 -152.547)" fill="#082a3a"/>
  <path id="Path_96" data-name="Path 96" d="M641.17,130.1l-.171-.087C641.073,130.008,641.141,130.015,641.17,130.1Z" transform="translate(-592.351 -125.312)" fill="#082a3a"/>
  <path id="Path_97" data-name="Path 97" d="M643.177,131.114c-.06-.023-.137-.013-.17-.088A.19.19,0,0,1,643.177,131.114Z" transform="translate(-594.197 -126.245)" fill="#082a3a"/>
  <path id="Path_98" data-name="Path 98" d="M648.145,134.121l-.156-.083Z" transform="translate(-598.775 -129.013)" fill="#082a3a"/>
  <path id="Path_99" data-name="Path 99" d="M646.157,133.127l-.172-.086C646.056,133.042,646.127,133.044,646.157,133.127Z" transform="translate(-596.934 -128.097)" fill="#082a3a"/>
  <path id="Path_100" data-name="Path 100" d="M104.793,689.393c.092,0,.1.062.092.135C104.809,689.513,104.79,689.46,104.793,689.393Z" transform="translate(-99.564 -639.398)" fill="#082a3a"/>
  <path id="Path_101" data-name="Path 101" d="M105.944,691.094c.088.013.111.068.1.148C105.957,691.226,105.937,691.169,105.944,691.094Z" transform="translate(-100.622 -640.961)" fill="#082a3a"/>
  <path id="Path_102" data-name="Path 102" d="M107.956,694.071c.091.011.112.068.1.148C107.966,694.205,107.948,694.147,107.956,694.071Z" transform="translate(-102.47 -643.697)" fill="#082a3a"/>
  <path id="Path_103" data-name="Path 103" d="M767.042,252.877a.077.077,0,0,1,.042.115A.087.087,0,0,1,767.042,252.877Z" transform="translate(-708.182 -238.229)" fill="#082a3a"/>
  <path id="Path_104" data-name="Path 104" d="M645.095,132.115l-.089-.089C645.049,132.042,645.1,132.05,645.095,132.115Z" transform="translate(-596.034 -127.164)" fill="#082a3a"/>
  <path id="Path_105" data-name="Path 105" d="M682.677,158.885l-.094-.064.063-.068.09.073Z" transform="translate(-630.568 -151.727)" fill="#082a3a"/>
  <path id="Path_106" data-name="Path 106" d="M103.949,688.045c.055.007.076.035.056.089Z" transform="translate(-98.789 -638.159)" fill="#082a3a"/>
  <path id="Path_107" data-name="Path 107" d="M107.119,692.907a.068.068,0,0,1,.067.092C107.129,692.993,107.111,692.959,107.119,692.907Z" transform="translate(-101.701 -642.627)" fill="#082a3a"/>
  <path id="Path_108" data-name="Path 108" d="M113.193,701.839c.058,0,.08.036.067.092C113.2,701.929,113.182,701.894,113.193,701.839Z" transform="translate(-107.282 -650.836)" fill="#082a3a"/>
  <path id="Path_109" data-name="Path 109" d="M114.022,702.985c.063,0,.083.032.063.09C114.029,703.069,114.011,703.037,114.022,702.985Z" transform="translate(-108.044 -651.889)" fill="#082a3a"/>
  <path id="Path_110" data-name="Path 110" d="M165.73,762.645l.033.1-.092-.029Z" transform="translate(-155.514 -706.718)" fill="#082a3a"/>
  <path id="Path_111" data-name="Path 111" d="M167.539,765.116l-.04-.081.08.038Z" transform="translate(-157.193 -708.915)" fill="#082a3a"/>
  <path id="Path_112" data-name="Path 112" d="M168.081,765.624l-.083-.078.039-.043.071.093Z" transform="translate(-157.652 -709.344)" fill="#082a3a"/>
  <path id="Path_113" data-name="Path 113" d="M169.056,766.655c.029.02.082.034.024.078a.433.433,0,0,1-.05-.05Z" transform="translate(-158.599 -710.403)" fill="#082a3a"/>
  <path id="Path_114" data-name="Path 114" d="M766.1,250.889a.082.082,0,0,1,.052.11A.083.083,0,0,1,766.1,250.889Z" transform="translate(-707.32 -236.402)" fill="#082a3a"/>
</svg>
