<svg xmlns="http://www.w3.org/2000/svg" width="44.704" height="49.756" viewBox="0 0 44.704 49.756">
  <g id="Group_726" data-name="Group 726" transform="translate(-14143.648 -5504.264)">
    <g id="Rectangle_364" data-name="Rectangle 364" transform="translate(14143.648 5522.727)" fill="none" stroke="#1bc691" stroke-width="3">
      <rect width="44.704" height="31.293" rx="5" stroke="none"/>
      <rect x="1.5" y="1.5" width="41.704" height="28.293" rx="3.5" fill="none"/>
    </g>
    <g id="Path_236" data-name="Path 236" transform="translate(14166.001 5504.264) rotate(45)" fill="none">
      <path d="M26.626,0a1.8,1.8,0,0,1,1.8,1.8v24.83a1.8,1.8,0,0,1-1.8,1.8H1.8a1.8,1.8,0,0,1-1.8-1.8Z" stroke="none"/>
      <path d="M 25.42305946350098 5.445928573608398 L 5.445928573608398 25.42305946350098 L 25.42305946350098 25.42305946350098 L 25.42305946350098 5.445928573608398 M 26.6263484954834 -1.9073486328125e-06 C 27.61863899230957 -1.9073486328125e-06 28.42305946350098 0.8044090270996094 28.42305946350098 1.796709060668945 L 28.42305946350098 26.6263484954834 C 28.42305946350098 27.61863899230957 27.61863899230957 28.42305946350098 26.6263484954834 28.42305946350098 L 1.796709060668945 28.42305946350098 C 0.8044090270996094 28.42305946350098 -1.9073486328125e-06 27.61863899230957 -1.9073486328125e-06 26.6263484954834 L 26.6263484954834 -1.9073486328125e-06 Z" stroke="none" fill="#1bc691"/>
    </g>
  </g>
</svg>
