<svg id="Group_60" data-name="Group 60" xmlns="http://www.w3.org/2000/svg" width="183.572" height="78.027" viewBox="0 0 183.572 78.027">
  <path id="Path_115" data-name="Path 115" d="M1003.8,479.586l-20.285.249a7.054,7.054,0,0,0,1.437,5,7.4,7.4,0,0,0,6.441,2.755,15.551,15.551,0,0,0,8.591-2.73c.1-.07.217-.122.4-.222l3.46,6.039c-1.407.744-2.74,1.589-4.177,2.183a26.265,26.265,0,0,1-14.071,1.674,12.245,12.245,0,0,1-10.266-8.493,24.138,24.138,0,0,1,.264-17.36c2.025-5.131,6.1-7.687,11.474-8.342a19.391,19.391,0,0,1,6.778.378c4.918,1.142,7.845,4.318,9.17,9.1a33.7,33.7,0,0,1,.876,9.385A2.26,2.26,0,0,1,1003.8,479.586Zm-9.279-5.537c-.015-2.466-.087-4.779-2.313-6.247a6.062,6.062,0,0,0-6.243.213c-1.985,1.488-2.382,3.648-2.505,6.034Z" transform="translate(-880.362 -432.722)" fill="#082a3a"/>
  <path id="Path_116" data-name="Path 116" d="M1199.967,498.287V465.03a4.123,4.123,0,0,1,.551-.077c4.885,0,9.771-.047,14.655.034a14.6,14.6,0,0,1,8.226,2.607,13.7,13.7,0,0,1,5.526,8.333,22.527,22.527,0,0,1-.183,11.572c-1.576,5.621-5.422,8.887-11.012,10.139a27.262,27.262,0,0,1-5.293.62c-3.9.091-7.805.029-11.708.029Zm8.717-27.42v21.082c1.464,0,2.885.081,4.295-.015q5.777-.393,7.139-5.875a18.346,18.346,0,0,0,.168-8.379c-.753-3.481-2.815-5.8-6.392-6.442A47.088,47.088,0,0,0,1208.684,470.867Z" transform="translate(-1071.396 -436.731)" fill="#082a3a"/>
  <path id="Path_117" data-name="Path 117" d="M380.81,422.127c.278.592.507,1.02.685,1.469a26.054,26.054,0,0,0,5.325,8.474,9.461,9.461,0,0,0,8.932,2.9,29.244,29.244,0,0,1,4.69-.411,2.951,2.951,0,0,1,3.078,2.785,2.677,2.677,0,0,0,.124.682,3.823,3.823,0,0,1-.777,4.245,13.825,13.825,0,0,1-8.284,5.089c-8.018,1.678-14.642-.753-20.44-6.13a8.953,8.953,0,0,1-2.738-4.6,2.129,2.129,0,0,1,.232-1.616c.484-.877.836-1.826,1.256-2.74a3.3,3.3,0,0,1,2.462-2.135,1,1,0,0,1,.708.214c.453.37.807.433,1.088-.162a4.846,4.846,0,0,0,.642-1.463c.069-.783.409-.971,1.092-.858a2.185,2.185,0,0,0,.417-.016C379.834,426.02,378.992,423.827,380.81,422.127Z" transform="translate(-371.339 -400.561)" fill="#082a3a"/>
  <path id="Path_118" data-name="Path 118" d="M566.471,311.826c-.815-.1-1.481-.179-2.144-.274a2.657,2.657,0,0,1-1.729-1.144c-.838-1.032-1.873-1.9-2.807-2.858a12.363,12.363,0,0,1-1.266-1.443c-1.031-1.453-2.029-2.93-3.018-4.412a1.239,1.239,0,0,1-.278-.832,4.254,4.254,0,0,0-.21-2.542,6.536,6.536,0,0,1,.255-3.951c.822-2.664,2.653-4.633,4.495-6.594a9.8,9.8,0,0,1,3.855-2.653,3.077,3.077,0,0,1,2.336-.072,5.852,5.852,0,0,0,4.078.059q3.383-.962,6.786-1.848a3.654,3.654,0,0,1,1.529-.076,1.172,1.172,0,0,1,.778.676c.063.207-.258.605-.5.808a2.972,2.972,0,0,1-.913.4,4.7,4.7,0,0,0-2.656,2.189,8.721,8.721,0,0,0-1.4,3.3c-.165,1.382-.259,2.773-.347,4.163-.011.182.169.4.31.563.343.383.744.716,1.069,1.112a2.109,2.109,0,0,1,.352,2.25c-.6,1.827-.848,3.764-1.328,5.633a36.02,36.02,0,0,1-1.395,4.489,3.81,3.81,0,0,1-3.633,2.665A13.46,13.46,0,0,0,566.471,311.826Z" transform="translate(-526.343 -283.136)" fill="#082a3a"/>
  <path id="Path_119" data-name="Path 119" d="M1428.059,498.619h-8.767V465.38h20.971v6.214c-1.871,0-3.724,0-5.577,0-2.016-.006-4.033-.02-6.049-.031-.35,0-.683-.012-.68.5.009,2.064,0,4.128,0,6.283h10.931v6.094h-.782c-3.128-.012-6.256-.008-9.384-.051-.635-.009-.786.21-.778.8.053,4.058.079,8.117.112,12.175C1428.062,497.769,1428.059,498.175,1428.059,498.619Z" transform="translate(-1256.691 -437.103)" fill="#082a3a"/>
  <path id="Path_120" data-name="Path 120" d="M436.548,635.726c4.264,2.836,8.635,2.271,13.031.664a13.74,13.74,0,0,0,7-5.513c.422-.65.9-1.264,1.29-1.933a3.221,3.221,0,0,1,1.667-1.425c.989-.4,1.879-1.029,3.051-.911a2.18,2.18,0,0,1,2.109,1.417,25.851,25.851,0,0,1,1.138,4.236,21.152,21.152,0,0,1-.248,8.159c-.758,3.108-2.832,5.331-5.118,7.395-2.425.587-4.261,2.554-6.783,2.9a10.661,10.661,0,0,1-1.382.025c-.953.007-1.906.033-2.857.006a3.223,3.223,0,0,1-1.409-.214,5.91,5.91,0,0,0-3.741-.606c-.47.061-.813.016-.894-.546-.072-.5-.4-.564-.849-.509-1.557.187-1.508.146-2.218-1.21a9.576,9.576,0,0,0-1.292-1.464c-.266-.319-.7-.7-.675-1.027.16-2.356-.69-4.522-1.161-6.758C437.021,637.538,436.781,636.673,436.548,635.726Z" transform="translate(-426.43 -573.302)" fill="#082a3a"/>
  <path id="Path_121" data-name="Path 121" d="M730.7,473.167c-.17,1.184-.235,1.217-1.481,1.533a9.708,9.708,0,0,1-5.263.072,6.063,6.063,0,0,0-1.875.07,12.631,12.631,0,0,0-.5-1.621,6.083,6.083,0,0,0-2.958-2.847,18.352,18.352,0,0,0-6.627-1.716,58.993,58.993,0,0,0-10.6,0,1.414,1.414,0,0,1-1.506-.825c-1.028-1.966-1.03-3.744.842-5.355a18.07,18.07,0,0,1,6.117-3.418c6.326-2.118,12.753-2.79,19.25-.886,4.174,1.223,7.287,3.721,8.608,8.047a22.583,22.583,0,0,1,.531,2.57,1.094,1.094,0,0,1-.11.505c-.211.6-.487,1.187-.637,1.8a1.787,1.787,0,0,1-1.4,1.475C732.29,472.768,731.5,472.969,730.7,473.167Z" transform="translate(-648.323 -430.073)" fill="#082a3a"/>
  <path id="Path_122" data-name="Path 122" d="M709.011,638.508a2.44,2.44,0,0,1-2.064-.75c-1.748-1.485-3.6-2.859-5.482-4.172a13.562,13.562,0,0,0-2.4-1,4.263,4.263,0,0,1-1.205-.673c-.32-.3-.607-.7-.232-1.215a4.814,4.814,0,0,0,.552-3.425c-.012-.151-.144-.308-.12-.444.309-1.725-.823-3.018-1.355-4.484a5.437,5.437,0,0,0-.911-1.308,11.419,11.419,0,0,1-.795-.948,10.08,10.08,0,0,0-3.406-3.205,16.433,16.433,0,0,1-2.191-1.826,1.088,1.088,0,0,1-.023-1.7,5,5,0,0,1,5-1.784,32.819,32.819,0,0,1,20.233,12.209,16.5,16.5,0,0,1,3.451,8.179c.178,1.384-.519,2.42-1.071,3.532a.889.889,0,0,1-.639.37,7.811,7.811,0,0,0-3.795,1.635A5.388,5.388,0,0,1,709.011,638.508Z" transform="translate(-639.698 -560.509)" fill="#082a3a"/>
</svg>
