<svg xmlns="http://www.w3.org/2000/svg" xmlns:xlink="http://www.w3.org/1999/xlink" width="134.183" height="82.78" viewBox="0 0 134.183 82.78">
  <defs>
    <clipPath id="clip-path">
      <path id="Path_277" data-name="Path 277" d="M713.687,619.439A39.789,39.789,0,0,0,699.5,588.957a39.836,39.836,0,0,0,0,60.966A39.79,39.79,0,0,0,713.687,619.439Z" transform="translate(-685.308 -588.957)" fill="none" stroke="#707070" stroke-width="3"/>
    </clipPath>
  </defs>
  <g id="Group_803" data-name="Group 803" transform="translate(1.5 1.5)">
    <path id="Path_275" data-name="Path 275" d="M715.251,624.919a39.791,39.791,0,0,1,14.191-30.482,39.89,39.89,0,1,0,0,60.966A39.792,39.792,0,0,1,715.251,624.919Z" transform="translate(-663.85 -585.03)" fill="none" stroke="#1bc691" stroke-linecap="round" stroke-linejoin="round" stroke-width="3"/>
    <path id="Path_276" data-name="Path 276" d="M716.933,585.03a39.711,39.711,0,0,0-25.7,9.407,39.84,39.84,0,0,1,0,60.966,39.883,39.883,0,1,0,25.7-70.373Z" transform="translate(-625.64 -585.03)" fill="none" stroke="#1bc691" stroke-linecap="round" stroke-linejoin="round" stroke-width="3"/>
    <g id="Group_802" data-name="Group 802" transform="translate(51.401 9.407)">
      <g id="Group_801" data-name="Group 801" clip-path="url(#clip-path)">
        <g id="Group_800" data-name="Group 800" transform="translate(-3.393 -2.896)">
          <line id="Line_155" data-name="Line 155" y1="34.093" x2="39.441" transform="translate(0 13.995)" fill="none" stroke="#1bc691" stroke-linecap="round" stroke-linejoin="round" stroke-width="3"/>
          <line id="Line_156" data-name="Line 156" y1="34.093" x2="39.441" transform="translate(0 27.989)" fill="none" stroke="#1bc691" stroke-linecap="round" stroke-linejoin="round" stroke-width="3"/>
          <line id="Line_157" data-name="Line 157" y1="34.093" x2="39.441" fill="none" stroke="#1bc691" stroke-linecap="round" stroke-linejoin="round" stroke-width="3"/>
        </g>
      </g>
    </g>
  </g>
</svg>
