<svg id="_4kAz9S" data-name="4kAz9S" xmlns="http://www.w3.org/2000/svg" width="188.529" height="67.702" viewBox="0 0 188.529 67.702">
  <g id="Group_61" data-name="Group 61" transform="translate(0 0)">
    <path id="Path_123" data-name="Path 123" d="M1285.445,364.179c0-4.515.019-9.03-.018-13.544-.007-.824.229-1.075,1.061-1.067q6.28.058,12.561,0c.729-.005.968.177.966.941q-.038,13.634,0,27.268c0,.7-.191.916-.905.911q-6.415-.047-12.83,0c-.692,0-.85-.227-.846-.877C1285.457,373.268,1285.445,368.723,1285.445,364.179Z" transform="translate(-1132.287 -349.56)" fill="#082a3a"/>
    <path id="Path_124" data-name="Path 124" d="M432.654,528.916c0-4.366.017-8.731-.017-13.1-.006-.713.191-.925.895-.9,1.314.052,2.633.06,3.947,0,.763-.035,1.022.14,1.006.97-.058,2.989,0,5.98-.038,8.97-.007.631.171.8.794.792q5.025-.045,10.05,0c.669.007.767-.224.761-.816-.029-2.99,0-5.98-.027-8.97-.006-.625.081-.9.806-.861,1.4.068,2.811.039,4.216.01.516-.011.733.09.732.678q-.028,13.321,0,26.643c0,.5-.147.68-.661.67-1.435-.029-2.872-.045-4.306.006-.644.023-.787-.184-.783-.8.027-3.947,0-7.894.031-11.841.006-.672-.162-.841-.834-.833q-4.979.057-9.96,0c-.707-.009-.82.219-.815.857.029,3.917,0,7.834.028,11.751,0,.635-.114.9-.828.87-1.4-.061-2.812-.052-4.216,0-.656.023-.791-.218-.788-.823C432.664,537.767,432.654,533.342,432.654,528.916Z" transform="translate(-432.636 -485.218)" fill="#082a3a"/>
    <path id="Path_125" data-name="Path 125" d="M718.637,518.943c0-3.718.015-7.245-.014-10.772-.005-.606.113-.831.769-.8,1.254.057,2.514.058,3.768,0,.7-.032.885.162.883.873-.026,8.852-.017,17.7-.017,26.557,0,2.005,0,2.005-1.985,2.005-.868,0-1.74-.054-2.6.018-.715.059-.871-.214-.815-.857.054-.615.012-1.239.012-2.035a8.724,8.724,0,0,1-4.433,3.059,8.088,8.088,0,0,1-9.132-3.628c-2.315-3.731-2.531-10.013.782-13.945a8.717,8.717,0,0,1,10.755-2.173A9.373,9.373,0,0,1,718.637,518.943Zm-9.533,7.446a10.626,10.626,0,0,0,1.018,5.026,3.891,3.891,0,0,0,3.309,2.524,4.113,4.113,0,0,0,3.894-2.242,10.4,10.4,0,0,0,1.291-5.052,8.352,8.352,0,0,0-1.266-5.123,4.076,4.076,0,0,0-4.053-1.931,4.022,4.022,0,0,0-3.373,2.449A9.415,9.415,0,0,0,709.1,526.388Z" transform="translate(-654.734 -479.022)" fill="#082a3a"/>
    <path id="Path_126" data-name="Path 126" d="M1195.577,535.377c-1.639.571-3.245,1.1-4.829,1.7-.555.207-.6-.232-.773-.486q-3.2-4.638-6.392-9.289c-.16-.233-.331-.459-.52-.72a1.25,1.25,0,0,0-.151.916c-.009,2.842-.022,5.683.008,8.525.006.619-.159.829-.8.806-1.345-.048-2.693-.036-4.038,0-.518.012-.654-.163-.653-.666q.02-14.088,0-28.177c0-.48.144-.606.608-.6,1.346.028,2.694.048,4.039-.006.662-.027.854.142.85.829-.032,5.115-.023,10.23-.007,15.345,0,.35-.246.884.213,1.023.419.126.6-.414.826-.7q2.8-3.443,5.555-6.917c.389-.493.718-.665,1.332-.341a24.647,24.647,0,0,0,2.7,1.178c.536.2.451.4.15.752-1.69,1.973-3.346,3.976-5.059,5.93-.485.553-.566.9-.068,1.539,2.256,2.9,4.438,5.852,6.644,8.788C1195.331,534.963,1195.43,535.145,1195.577,535.377Z" transform="translate(-1043.683 -479.027)" fill="#082a3a"/>
    <path id="Path_127" data-name="Path 127" d="M941.357,556.629A10.236,10.236,0,0,1,951.9,566.948c0,6.252-4.416,10.763-10.593,10.731-6.237-.032-10.48-4.336-10.518-10.778C930.752,560.984,935.352,556.614,941.357,556.629Zm4.778,10.427c-.116-2.4-.389-4.244-1.609-5.8a3.972,3.972,0,0,0-6.336.019c-2.348,3.47-2.071,7.217-.558,10.912a3.72,3.72,0,0,0,3.661,2.4,3.989,3.989,0,0,0,3.776-2.388A11.942,11.942,0,0,0,946.134,567.056Z" transform="translate(-841.332 -519.439)" fill="#082a3a"/>
    <path id="Path_128" data-name="Path 128" d="M588.555,572.057c.779-2.2,1.469-4.247,2.228-6.268.98-2.612,2.031-5.2,3.012-7.811.178-.475.413-.592.86-.5,1.31.261,2.623.511,4.016.781-.985,2.233-1.949,4.43-2.923,6.623q-3.469,7.813-6.948,15.622a13.731,13.731,0,0,1-4.636,6.116c-1.891,1.286-4,1.205-6.12,1.168-.276,0-.35-.147-.349-.4.006-.927,0-1.854,0-2.781,0-.715.56-.424.854-.409a5,5,0,0,0,5.075-2.946c.3-.582.569-1.18.889-1.75a5.5,5.5,0,0,0,.106-5.424c-2.258-4.941-4.231-10.012-6.348-15.018-.238-.562-.146-.749.433-.845,1.379-.229,2.756-.475,4.124-.757.568-.117.718.19.877.617C585.4,562.642,587.1,567.2,588.555,572.057Z" transform="translate(-551.646 -520.101)" fill="#082a3a"/>
    <path id="Path_129" data-name="Path 129" d="M1398.494,355.355c0-1.674.027-3.349-.014-5.022-.016-.622.151-.831.792-.8a37.969,37.969,0,0,1,6.07,1,10.909,10.909,0,0,0,7.148-.716c.6-.286.781-.221.912.447a15.675,15.675,0,0,1-.107,4.9c-.224,1.92-.636,3.834-.176,5.77.123.518-.293.517-.55.639a11.631,11.631,0,0,1-7.605.651,30.516,30.516,0,0,0-5.723-.895c-.656-.013-.772-.266-.759-.854C1398.518,358.763,1398.494,357.059,1398.494,355.355Z" transform="translate(-1225.037 -349.528)" fill="#082a3a"/>
    <path id="Path_130" data-name="Path 130" d="M1398.527,452.432q0-2.467,0-4.933c0-1.033.033-1.063,1.152-.956a48.7,48.7,0,0,1,5.54.956,11.08,11.08,0,0,0,7.332-.681c.634-.306.76-.138.884.479a14.846,14.846,0,0,1-.114,4.9,20.387,20.387,0,0,0-.255,5.61c.064.438-.109.557-.433.719a11.5,11.5,0,0,1-7.935.636,23.081,23.081,0,0,0-5.557-.816c-.563.013-.625-.248-.621-.707C1398.538,455.9,1398.527,454.166,1398.527,452.432Z" transform="translate(-1225.071 -429.087)" fill="#082a3a"/>
    <path id="Path_131" data-name="Path 131" d="M1065.443,568.861c0-6.94,4.09-11.345,9.544-11.876a12.485,12.485,0,0,1,6.37.922c.568.248.665.532.4,1.074-.365.745-.472,1.767-1.046,2.217s-1.428-.311-2.19-.444c-4.1-.716-7.2,1.762-7.344,5.92a9.433,9.433,0,0,0,.43,3.439,5.889,5.889,0,0,0,7.431,3.85c.316-.084.633-.168.94-.277,1.169-.416,1.168-.42,1.565.7.03.084.042.174.072.258.649,1.855.665,1.9-1.265,2.529-4.114,1.336-8.022,1-11.432-1.844A9.429,9.429,0,0,1,1065.443,568.861Z" transform="translate(-951.807 -519.67)" fill="#082a3a"/>
    <path id="Path_132" data-name="Path 132" d="M853.379,560.612c.742-.951,1.3-1.714,1.907-2.438,2.015-2.4,4.413-1.374,6.056.184.228.216.176.376.042.614-.539.961-1.071,1.927-1.571,2.908-.225.441-.463.391-.857.225-2.645-1.113-4.736.039-5.3,2.884a12.623,12.623,0,0,0-.208,2.491c0,2.991-.024,5.982.022,8.972.011.742-.23.908-.916.881-1.284-.05-2.572-.03-3.858-.006-.468.009-.7-.074-.7-.623q.022-9.42,0-18.841c0-.437.1-.641.595-.63q2.108.047,4.217,0c.518-.012.589.224.58.645C853.366,558.713,853.379,559.547,853.379,560.612Z" transform="translate(-773.404 -519.536)" fill="#082a3a"/>
  </g>
</svg>
