<?xml version="1.0" encoding="utf-8"?>
<!-- Generator: Adobe Illustrator 28.2.0, SVG Export Plug-In . SVG Version: 6.00 Build 0)  -->
<svg version="1.1" id="Layer_1" xmlns="http://www.w3.org/2000/svg" xmlns:xlink="http://www.w3.org/1999/xlink" x="0px" y="0px"
	 viewBox="0 0 58.7 54.4" style="enable-background:new 0 0 58.7 54.4;" xml:space="preserve">
<style type="text/css">
	.st0{fill:none;stroke:#1BC691;stroke-width:2;stroke-linecap:round;stroke-linejoin:round;}
</style>
<g id="Group_729" transform="translate(-399.007 -1558.392)">
	<g id="Layer_1_00000161618932307990540730000017881031393512987043_">
		<g id="Group_727">
			<path id="Path_256" class="st0" d="M438.6,1603.7c7.7-3.9,12.5-11.7,12.5-20.3c0-0.4,0-0.9,0-1.3"/>
			<path id="Path_257" class="st0" d="M405.7,1582.2c0,0.4,0,0.8,0,1.2c0,8.6,4.8,16.4,12.4,20.3"/>
			<path id="Path_258" class="st0" d="M440.8,1564.3c-7.6-4.9-17.4-4.9-25,0.1"/>
			<circle id="Ellipse_30" class="st0" cx="428.4" cy="1583.4" r="5.1"/>
			<path id="Path_259" class="st0" d="M432.3,1593.3c-2.5,1-5.3,1-7.9,0l-9.2,15.3c8.2,4.3,18.1,4.4,26.4,0L432.3,1593.3z"/>
			<path id="Path_260" class="st0" d="M417.9,1581.9c0.4-2.7,1.8-5.1,3.9-6.8l-8.8-15.6c-7.8,5-12.7,13.6-13,22.9L417.9,1581.9z"/>
			<path id="Path_261" class="st0" d="M434.9,1575.1c2.1,1.7,3.6,4.1,3.9,6.8l17.9,0.3c-0.4-9.3-5.4-17.8-13.2-22.8L434.9,1575.1z"
				/>
		</g>
	</g>
	<g id="Layer_4">
		<g id="Group_728">
			<circle id="Ellipse_31" class="st0" cx="428.4" cy="1583.4" r="5.1"/>
			<path id="Path_262" class="st0" d="M432.3,1593.3c-2.5,1-5.3,1-7.9,0l-9.2,15.3c8.2,4.3,18.1,4.4,26.4,0L432.3,1593.3z"/>
			<path id="Path_263" class="st0" d="M417.9,1581.9c0.4-2.7,1.8-5.1,3.9-6.8l-8.8-15.6c-7.8,5-12.7,13.6-13,22.9L417.9,1581.9z"/>
			<path id="Path_264" class="st0" d="M434.9,1575.1c2.1,1.7,3.6,4.1,3.9,6.8l17.9,0.3c-0.4-9.3-5.4-17.8-13.2-22.8L434.9,1575.1z"
				/>
		</g>
	</g>
</g>
</svg>
