<?xml version="1.0" encoding="utf-8"?>
<!-- Generator: Adobe Illustrator 28.2.0, SVG Export Plug-In . SVG Version: 6.00 Build 0)  -->
<svg version="1.1" id="Layer_1" xmlns="http://www.w3.org/2000/svg" xmlns:xlink="http://www.w3.org/1999/xlink" x="0px" y="0px"
	 viewBox="0 0 55.3 57.8" style="enable-background:new 0 0 55.3 57.8;" xml:space="preserve">
<style type="text/css">
	.st0{fill:none;stroke:#1BC691;stroke-width:2;stroke-linecap:round;stroke-linejoin:round;}
</style>
<g id="Group_570" transform="translate(-771.625 -2150.361)">
	<g id="Group_238" transform="translate(772.625 2151.361)">
		<g id="Group_236" transform="translate(0 30.501)">
			<path id="Path_184" class="st0" d="M3.1,0L0,2C0.4,5.2,1.4,8.3,3,11.1l3.7-0.2c1.1-0.1,2,0.8,2,1.8c0,0.3,0,0.6-0.1,0.8l-1.3,3.4
				c2.2,2.3,4.8,4.2,7.7,5.6l2.9-2.3c0.8-0.7,2-0.6,2.7,0.3c0.2,0.2,0.3,0.5,0.4,0.7l0.9,3.6c3.2,0.6,6.4,0.6,9.6,0l0.9-3.6
				c0.3-1,1.3-1.6,2.4-1.4c0.3,0.1,0.5,0.2,0.7,0.4l2.9,2.3c2.9-1.4,5.5-3.3,7.7-5.6l-1.3-3.4c-0.4-1,0.1-2.1,1.1-2.5
				c0.3-0.1,0.5-0.1,0.8-0.1l3.7,0.2c1.5-2.8,2.5-5.9,2.9-9.1l-3.1-2"/>
		</g>
		<g id="Group_237">
			<path id="Path_185" class="st0" d="M3.1,30.5c3.1-2,0-5.2,0-5.2l-3.1-2C0.4,20.1,1.4,17,3,14.2l3.7,0.2c1.1,0.1,2-0.8,2-1.8
				c0-0.3,0-0.6-0.1-0.8L7.2,8.3C9.4,6,12.1,4.1,15,2.7L17.8,5c0.8,0.7,2,0.6,2.7-0.3c0.2-0.2,0.3-0.5,0.4-0.7l0.9-3.6
				c3.2-0.6,6.4-0.6,9.6,0L32.4,4c0.3,1,1.3,1.6,2.4,1.4C35,5.3,35.2,5.2,35.4,5l2.9-2.3c2.9,1.4,5.5,3.3,7.7,5.6l-1.3,3.4
				c-0.4,1,0.1,2.1,1.1,2.5c0.3,0.1,0.5,0.1,0.8,0.1l3.7-0.2c1.5,2.8,2.5,5.9,2.9,9.1l-3.1,2l0,0c-0.9,1.6-0.9,3.6,0,5.2l0,0.1"/>
		</g>
	</g>
	<circle id="Ellipse_5" class="st0" cx="799.3" cy="2179.2" r="9.6"/>
</g>
</svg>
