<?xml version="1.0" encoding="utf-8"?>
<!-- Generator: Adobe Illustrator 28.2.0, SVG Export Plug-In . SVG Version: 6.00 Build 0)  -->
<svg version="1.1" id="Layer_1" xmlns="http://www.w3.org/2000/svg" xmlns:xlink="http://www.w3.org/1999/xlink" x="0px" y="0px"
	 viewBox="0 0 69.2 60.3" style="enable-background:new 0 0 69.2 60.3;" xml:space="preserve">
<style type="text/css">
	.st0{fill:none;stroke:#1BC691;stroke-width:2;stroke-linecap:round;stroke-linejoin:round;}
</style>
<g id="Group_567" transform="translate(1.414 1.233)">
	<circle id="Ellipse_14" class="st0" cx="33.1" cy="38.2" r="3"/>
	<g id="Group_242" transform="translate(29.695)">
		<path id="Path_190" class="st0" d="M3.4,0c0,0-7.7,27.4,0,35.1"/>
		<path id="Path_191" class="st0" d="M3.4,0c0,0,7.7,27.4,0,35.1"/>
	</g>
	<g id="Group_243" transform="translate(36.161 39.418)">
		<path id="Path_192" class="st0" d="M30.2,18.2c0,0-19.6-20.7-30.2-18"/>
		<path id="Path_193" class="st0" d="M30.2,18.2c0,0-27.5-7.4-30.2-18"/>
	</g>
	<g id="Group_244" transform="translate(0 39.405)">
		<path id="Path_194" class="st0" d="M0,17.7c0,0,27.6-7,30.5-17.5"/>
		<path id="Path_195" class="st0" d="M0,17.7c0,0,20-20.3,30.5-17.5"/>
	</g>
	<line id="Line_17" class="st0" x1="33.1" y1="41.2" x2="33.1" y2="55.2"/>
</g>
</svg>
