<svg xmlns="http://www.w3.org/2000/svg" viewBox="0 0 81.99 81.99"><defs><style>.cls-1{fill:#1bc691;}</style></defs><g id="Layer_1" data-name="Layer 1"><path class="cls-1" d="M48.25,81.6a1,1,0,0,1-1-1V41.35a1,1,0,0,1,1-1H60.72L41,17.14,21.27,40.35H33.06a1,1,0,0,1,1,1V55.81a1,1,0,0,1-2,0V42.35h-13a1,1,0,0,1-.76-1.64L40.23,15a1,1,0,0,1,1.53,0L63.65,40.71a1,1,0,0,1,.14,1.06,1,1,0,0,1-.91.58H49.25V80.6A1,1,0,0,1,48.25,81.6Z"/><path class="cls-1" d="M41,82A41,41,0,1,1,82,41,41,41,0,0,1,41,82ZM41,2A39,39,0,1,0,80,41,39,39,0,0,0,41,2Z"/></g></svg>