<svg id="Group_264" data-name="Group 264" xmlns="http://www.w3.org/2000/svg" width="49.098" height="49.084" viewBox="0 0 49.098 49.084">
  <path id="Path_201" data-name="Path 201" d="M2635.891,2577.248a24.542,24.542,0,1,1-24.645,24.09A24.559,24.559,0,0,1,2635.891,2577.248Zm1.055,31.572c0-1.359-.005-2.647,0-3.935.007-1.213-.047-2.433.062-3.637a2.16,2.16,0,0,1,2.35-2.1c1.218.016,1.9.645,2.076,2.036a21.2,21.2,0,0,1,.09,2.465c.012,1.714,0,3.429,0,5.146h4.08c0-2.831.017-5.558-.006-8.284-.018-2.027-.587-3.82-2.617-4.687a4.792,4.792,0,0,0-5.625,1.049,1.054,1.054,0,0,1-.336.141l-.18-1.1H2633.1v12.913Zm-10.517-12.946v12.931h3.961v-12.931Zm-.446-4.293a2.4,2.4,0,1,0,2.437-2.316A2.369,2.369,0,0,0,2625.983,2591.582Z" transform="translate(-2611.244 -2577.247)" fill="#fff"/>
</svg>
