<svg xmlns="http://www.w3.org/2000/svg" width="55.255" height="57.756" viewBox="0 0 55.255 57.756">
  <g id="Group_570" data-name="Group 570" transform="translate(-771.625 -2150.361)">
    <g id="Group_238" data-name="Group 238" transform="translate(772.625 2151.361)">
      <g id="Group_236" data-name="Group 236" transform="translate(0 30.501)">
        <path id="Path_184" data-name="Path 184" d="M775.726,2170.217l-3.1,1.994a26.7,26.7,0,0,0,2.949,9.105l3.685-.212a1.929,1.929,0,0,1,1.907,2.625l-1.334,3.433a26.951,26.951,0,0,0,7.743,5.646l2.863-2.336a1.927,1.927,0,0,1,3.083,1l.94,3.562a26.6,26.6,0,0,0,9.586,0l.938-3.562a1.928,1.928,0,0,1,3.085-1l2.862,2.336a26.96,26.96,0,0,0,7.745-5.646l-1.336-3.433a1.93,1.93,0,0,1,1.907-2.625l3.686.21a26.668,26.668,0,0,0,2.947-9.1l-3.1-1.994" transform="translate(-772.625 -2170.217)" fill="none" stroke="#1bc691" stroke-linecap="round" stroke-linejoin="round" stroke-width="2"/>
      </g>
      <g id="Group_237" data-name="Group 237">
        <path id="Path_185" data-name="Path 185" d="M775.726,2181.862c3.1-1.995,0-5.246,0-5.246l-3.1-1.995a26.684,26.684,0,0,1,2.949-9.105l3.685.212a1.929,1.929,0,0,0,1.907-2.625l-1.334-3.433a26.973,26.973,0,0,1,7.743-5.647l2.863,2.337a1.928,1.928,0,0,0,3.083-1l.94-3.562a26.661,26.661,0,0,1,9.586,0l.938,3.563a1.929,1.929,0,0,0,3.085,1l2.862-2.337a26.917,26.917,0,0,1,7.743,5.647l-1.335,3.433a1.928,1.928,0,0,0,1.907,2.623l3.686-.21a26.67,26.67,0,0,1,2.947,9.105l-3.1,1.995h0a5.279,5.279,0,0,0-.037,5.179l.037.067" transform="translate(-772.625 -2151.361)" fill="none" stroke="#1bc691" stroke-linecap="round" stroke-linejoin="round" stroke-width="2"/>
      </g>
    </g>
    <circle id="Ellipse_5" data-name="Ellipse 5" cx="9.643" cy="9.643" r="9.643" transform="translate(789.61 2169.551)" fill="none" stroke="#1bc691" stroke-linecap="round" stroke-linejoin="round" stroke-width="2"/>
  </g>
</svg>
