<svg id="Group_58" data-name="Group 58" xmlns="http://www.w3.org/2000/svg" width="77.854" height="66.565" viewBox="0 0 77.854 66.565">
  <g id="Group_57" data-name="Group 57" transform="translate(0 0)">
    <path id="Path_44" data-name="Path 44" d="M382.9,27c0,.13.008.259.008.389q0,10.153,0,20.306v.455c-.135.009-.248.022-.362.022-1.254,0-2.509-.01-3.763.009-.321,0-.392-.1-.391-.4q.014-7.169.006-14.338v-.372l-.067-.009c-.04.093-.082.186-.119.28q-2.82,7.225-5.632,14.453a.5.5,0,0,1-.585.388,6.828,6.828,0,0,0-1.1,0,.5.5,0,0,1-.585-.388q-2.8-7.232-5.633-14.453a.588.588,0,0,0-.185-.272V48.133a1.808,1.808,0,0,1-.246.038q-2.044,0-4.087,0a1.224,1.224,0,0,1-.16-.021V27h6.293c.018.039.039.077.054.117l4.938,12.735c.044.113.094.223.162.384.067-.16.112-.257.15-.357q1.44-3.712,2.88-7.424,1.061-2.73,2.132-5.456Z" transform="translate(-360 -27)" fill="#082a3a"/>
    <path id="Path_45" data-name="Path 45" d="M360,923c.724,0,1.448.017,2.172,0a.374.374,0,0,1,.418.291c.576,1.513,1.165,3.02,1.752,4.529.038.1.084.191.156.355l2.006-5.157h2.433v8.24h-1.709v-5.783l-.077-.019c-.047.112-.1.222-.141.335-.675,1.729-1.356,3.456-2.018,5.19a.411.411,0,0,1-.481.3c-.233-.01-.409,0-.52-.292-.661-1.746-1.35-3.481-2.031-5.22a.6.6,0,0,0-.2-.293v5.76H360Z" transform="translate(-360 -864.869)" fill="#082a3a"/>
    <path id="Path_46" data-name="Path 46" d="M360,725.685c.767-.007,1.534-.025,2.3-.009.1,0,.234.163.28.279.592,1.495,1.172,3,1.755,4.494.042.107.086.212.159.39l1.093-2.81c.278-.714.551-1.43.839-2.14.037-.09.148-.213.226-.215.754-.016,1.509-.01,2.289-.01V733.9h-1.713v-5.781l-.066-.016c-.036.078-.077.155-.109.235-.689,1.759-1.382,3.516-2.057,5.28a.4.4,0,0,1-.471.31c-.237-.017-.426.009-.542-.3-.659-1.747-1.349-3.482-2.029-5.221a.634.634,0,0,0-.194-.291v5.807H360Z" transform="translate(-360 -680.335)" fill="#082a3a"/>
    <path id="Path_47" data-name="Path 47" d="M1449.9,927.429c-.055.328-.084.663-.17.983a3.717,3.717,0,0,1-3.4,2.926,38.288,38.288,0,0,1-4.067.029v-8.191c.091-.007.174-.019.258-.018,1.231.016,2.467-.031,3.692.068a3.861,3.861,0,0,1,3.632,3.629c.011.106.037.21.056.316Zm-5.9,2.463c.525,0,1.031.011,1.535,0a2.465,2.465,0,0,0,2.527-2.222,2.511,2.511,0,0,0-1.446-2.77,8.015,8.015,0,0,0-2.617-.2Z" transform="translate(-1372.049 -865.016)" fill="#082a3a"/>
    <path id="Path_48" data-name="Path 48" d="M921.79,929.437c-.241-.052-.485-.1-.724-.158a4.287,4.287,0,0,1,.23-8.3,4.285,4.285,0,1,1,1.649,8.4,1.062,1.062,0,0,0-.182.058Zm-2.037-4.227c0,.084.009.225.022.365a2.478,2.478,0,0,0,2.22,2.3,2.392,2.392,0,0,0,2.625-1.7,4,4,0,0,0,.145-1.341,2.488,2.488,0,0,0-3.342-2.266A2.6,2.6,0,0,0,919.754,925.209Z" transform="translate(-881.76 -862.871)" fill="#082a3a"/>
    <path id="Path_49" data-name="Path 49" d="M649.725,929.716c-.283-.064-.569-.118-.848-.195a4.259,4.259,0,0,1,.592-8.307,3.849,3.849,0,0,1,4.043,1.717c.041.062.075.13.137.24l-1.48.729a2.375,2.375,0,0,0-1.437-1.128,2.533,2.533,0,0,0-3.059,2,2.75,2.75,0,0,0,1.481,3.17,2.277,2.277,0,0,0,2.911-.835c.031-.043.066-.083.113-.142l1.448.7a1.469,1.469,0,0,1-.091.209,3.693,3.693,0,0,1-2.659,1.777,1.037,1.037,0,0,0-.179.061Z" transform="translate(-627.277 -863.151)" fill="#082a3a"/>
    <path id="Path_50" data-name="Path 50" d="M1217.5,436.195c.324-.829.615-1.57.9-2.311q2.054-5.3,4.1-10.6a.433.433,0,0,1,.485-.332c1.87.013,3.741.007,5.611.007h.347v21.136h-4.5V429.006l-.069-.012c-.176.447-.353.894-.528,1.341q-2.625,6.727-5.243,13.456a.427.427,0,0,1-.49.335,11.805,11.805,0,0,0-1.264,0,.407.407,0,0,1-.466-.323q-2.319-5.978-4.658-11.947c-.372-.951-.743-1.9-1.173-2.844v15.079h-4.472V422.958h.368c1.838,0,3.676.008,5.514-.008a.47.47,0,0,1,.532.359q2.4,6.24,4.827,12.471C1217.369,435.89,1217.417,436,1217.5,436.195Z" transform="translate(-1151.193 -397.262)" fill="#082a3a"/>
    <path id="Path_51" data-name="Path 51" d="M1071.91,926.142V931.4h-1.721v-8.24c.567,0,1.136-.01,1.7.011.084,0,.175.141.243.232q1.677,2.267,3.349,4.538c.082.111.167.221.307.4v-5.162h1.748v8.244c-.537,0-1.063.013-1.588-.012-.095,0-.2-.149-.271-.249q-1.746-2.377-3.484-4.76c-.07-.1-.141-.189-.212-.283Z" transform="translate(-1024.113 -865.02)" fill="#082a3a"/>
    <path id="Path_52" data-name="Path 52" d="M785.493,931.525v-8.232c.036-.017.055-.034.074-.033,1.307.015,2.619-.039,3.92.063a4.093,4.093,0,0,1,.305,8.088,9.328,9.328,0,0,1-1.451.11C787.4,931.537,786.463,931.525,785.493,931.525Zm1.745-1.538c.537,0,1.033.009,1.529,0a2.479,2.479,0,0,0,2.565-2.523,2.42,2.42,0,0,0-1.5-2.483,8.365,8.365,0,0,0-2.594-.192Z" transform="translate(-757.888 -865.11)" fill="#082a3a"/>
    <path id="Path_53" data-name="Path 53" d="M517.827,727.748a4.314,4.314,0,1,1,4.271,4.305A4.139,4.139,0,0,1,517.827,727.748Zm4.311,2.76a2.732,2.732,0,1,0-2.526-2.737A2.509,2.509,0,0,0,522.138,730.509Z" transform="translate(-507.587 -678.323)" fill="#082a3a"/>
    <path id="Path_54" data-name="Path 54" d="M521.789,931.333c-.633,0-1.234.007-1.835-.009-.07,0-.164-.122-.2-.207-.132-.319-.23-.652-.372-.965a.408.408,0,0,0-.288-.212q-1.572-.023-3.143,0a.375.375,0,0,0-.268.195c-.144.325-.245.668-.385.995a.355.355,0,0,1-.238.2c-.582.017-1.164.009-1.793.009.043-.129.071-.227.107-.322q1.474-3.835,2.944-7.672a.37.37,0,0,1,.423-.28c.55.015,1.1.01,1.652,0a.272.272,0,0,1,.311.2q1.51,3.943,3.033,7.88C521.757,931.19,521.765,931.241,521.789,931.333Zm-4.216-6.417-.083-.006-1.252,3.463h2.585Z" transform="translate(-503.323 -864.926)" fill="#082a3a"/>
    <path id="Path_55" data-name="Path 55" d="M1207.324,931.31c-.623,0-1.224.006-1.824-.008-.063,0-.151-.107-.182-.183-.136-.329-.263-.662-.377-1a.269.269,0,0,0-.3-.217q-1.557.011-3.113,0a.286.286,0,0,0-.318.239q-.163.491-.366.969c-.035.082-.135.191-.208.193-.591.016-1.183.009-1.818.009.046-.141.073-.24.11-.336q1.472-3.822,2.94-7.645a.366.366,0,0,1,.413-.293c.561.02,1.124,0,1.686.015a.371.371,0,0,1,.277.182q1.538,3.952,3.054,7.913A1.017,1.017,0,0,1,1207.324,931.31Zm-5.539-2.96h2.587l-1.294-3.572Z" transform="translate(-1144.396 -864.903)" fill="#082a3a"/>
    <path id="Path_56" data-name="Path 56" d="M663.937,727.084h-1.978c-.433,0-.434,0-.434.443q0,2.934,0,5.867v.4h-1.741v-6.7h-2.4v-1.519c.1-.008.2-.023.3-.023,1.967,0,3.933,0,5.9-.007.29,0,.377.086.361.367C663.92,726.293,663.937,726.668,663.937,727.084Z" transform="translate(-638.086 -680.231)" fill="#082a3a"/>
    <path id="Path_57" data-name="Path 57" d="M776.526,727.6h-2.408v-1.5h6.522v1.485h-2.37v6.725h-1.745Z" transform="translate(-747.251 -680.746)" fill="#082a3a"/>
    <path id="Path_58" data-name="Path 58" d="M1350.74,930.212c0,.49,0,.92,0,1.35,0,.228-.16.189-.295.189-.778,0-1.556,0-2.334,0s-1.556-.006-2.333,0c-.218,0-.306-.055-.305-.289q.01-3.873.005-7.746a2.047,2.047,0,0,1,.024-.214h1.735v6.7Z" transform="translate(-1281.538 -865.343)" fill="#082a3a"/>
  </g>
</svg>
