<svg xmlns="http://www.w3.org/2000/svg" viewBox="0 0 773.52 768.86"><defs><style>.cls-1{fill:#fff;}.cls-2{fill:#1bc691;}.cls-3{fill:#1a1a1a;}.cls-4{fill:#082a3a;}</style></defs><g id="Layer_4" data-name="Layer 4"><circle class="cls-1" cx="386.76" cy="156.6" r="94.24"/><path class="cls-2" d="M386.76,251.59a95,95,0,1,1,95-95A95.09,95.09,0,0,1,386.76,251.59Zm0-188.48a93.49,93.49,0,1,0,93.49,93.49A93.6,93.6,0,0,0,386.76,63.11Z"/><path class="cls-2" d="M386.76,156.8a22.59,22.59,0,1,1,22.59-22.58A22.61,22.61,0,0,1,386.76,156.8Zm0-43.67a21.09,21.09,0,1,0,21.09,21.09A21.1,21.1,0,0,0,386.76,113.13Z"/><path class="cls-2" d="M419.77,201.57h-66a.76.76,0,0,1-.75-.75c0-25.19,15.15-45.68,33.76-45.68s33.76,20.49,33.76,45.68A.76.76,0,0,1,419.77,201.57Zm-65.26-1.5H419c-.29-24-14.65-43.43-32.25-43.43S354.8,176.05,354.51,200.07Z"/><path class="cls-2" d="M292.52,620h-95a50.41,50.41,0,0,1-50.35-50.36V503.93a1,1,0,0,1,2,0v65.69A48.41,48.41,0,0,0,197.51,618h95a1,1,0,0,1,0,2Z"/><path class="cls-2" d="M140.48,514.87a.79.79,0,0,0,1.1-.25l6.58-10.32,6.57,10.32a.8.8,0,1,0,1.35-.86l-7.25-11.38a.79.79,0,0,0-.67-.37.81.81,0,0,0-.68.37l-7.25,11.38a.88.88,0,0,0-.12.43A.8.8,0,0,0,140.48,514.87Z"/><path class="cls-2" d="M625.36,272.09a1,1,0,0,1-1-1V205.41A48.41,48.41,0,0,0,576,157.05H481c-.55,0-.26-.45-.26-1s-.29-1,.26-1h95a50.41,50.41,0,0,1,50.35,50.36v65.68A1,1,0,0,1,625.36,272.09Z"/><path class="cls-2" d="M633,260.16a.79.79,0,0,0-1.1.25l-6.58,10.32-6.57-10.32a.8.8,0,0,0-1.11-.25.81.81,0,0,0-.24,1.11l7.25,11.38a.8.8,0,0,0,1.35,0l7.25-11.38a.88.88,0,0,0,.12-.43A.8.8,0,0,0,633,260.16Z"/><path class="cls-2" d="M148.16,296a1,1,0,0,1-1-1V205.41a50.41,50.41,0,0,1,50.35-50.36h77.75a1,1,0,0,1,0,2H197.51a48.41,48.41,0,0,0-48.35,48.36V295A1,1,0,0,1,148.16,296Z"/><path class="cls-2" d="M264.33,148.37a.79.79,0,0,0,.24,1.1l10.33,6.58-10.33,6.57a.81.81,0,0,0-.24,1.11.79.79,0,0,0,1.1.24l11.39-7.25a.79.79,0,0,0,.37-.67.82.82,0,0,0-.37-.68l-11.39-7.25A.82.82,0,0,0,265,148,.79.79,0,0,0,264.33,148.37Z"/><path class="cls-2" d="M576,620H508.26a1,1,0,0,1,0-2H576a48.41,48.41,0,0,0,48.35-48.36V482a1,1,0,1,1,2,0v87.61A50.41,50.41,0,0,1,576,620Z"/><path class="cls-2" d="M519.2,626.66a.82.82,0,0,0-.25-1.11L508.63,619,519,612.4a.8.8,0,0,0,.25-1.1.82.82,0,0,0-1.11-.25l-11.38,7.25a.82.82,0,0,0-.37.68.79.79,0,0,0,.37.67l11.38,7.25a.75.75,0,0,0,.43.13A.82.82,0,0,0,519.2,626.66Z"/><path class="cls-3" d="M377.59,439.6l0,.07a5.68,5.68,0,0,1-1.75,3.86,5.87,5.87,0,0,1-4.12,1.41,5.49,5.49,0,0,1-4.41-2,7.62,7.62,0,0,1-1.67-5.1v-2.66a7.68,7.68,0,0,1,1.67-5.11,5.5,5.5,0,0,1,4.41-2,5.94,5.94,0,0,1,4.13,1.38,5.65,5.65,0,0,1,1.74,3.89l0,.07h-1.26a5.1,5.1,0,0,0-1.4-3.12,4.47,4.47,0,0,0-3.19-1.07,4.16,4.16,0,0,0-3.45,1.66,6.7,6.7,0,0,0-1.29,4.25v2.68a6.75,6.75,0,0,0,1.29,4.28,4.16,4.16,0,0,0,3.45,1.66,4.55,4.55,0,0,0,3.2-1.05,5,5,0,0,0,1.39-3.15Z"/><path class="cls-3" d="M380,438.45a6.53,6.53,0,0,1,1.47-4.4,5.28,5.28,0,0,1,7.8,0,6.53,6.53,0,0,1,1.47,4.4v.37a6.52,6.52,0,0,1-1.46,4.41,5.31,5.31,0,0,1-7.81,0,6.53,6.53,0,0,1-1.47-4.41Zm1.34.37a5.77,5.77,0,0,0,1.07,3.54,3.49,3.49,0,0,0,3,1.44,3.45,3.45,0,0,0,2.94-1.44,5.71,5.71,0,0,0,1.08-3.54v-.37a5.69,5.69,0,0,0-1.08-3.52,3.49,3.49,0,0,0-3-1.45,3.46,3.46,0,0,0-2.95,1.45,5.75,5.75,0,0,0-1.07,3.52Z"/><path class="cls-3" d="M400.78,441.61a2,2,0,0,0-.7-1.49,5.84,5.84,0,0,0-2.54-1,8.5,8.5,0,0,1-3.21-1.24,2.56,2.56,0,0,1-1-2.19,3,3,0,0,1,1.17-2.36,4.76,4.76,0,0,1,3.11-1,4.85,4.85,0,0,1,3.25,1,3,3,0,0,1,1.15,2.54l0,.07H400.7a2.22,2.22,0,0,0-.85-1.74,3.29,3.29,0,0,0-2.28-.74,3.33,3.33,0,0,0-2.21.63,1.9,1.9,0,0,0-.74,1.48,1.78,1.78,0,0,0,.64,1.39,6.34,6.34,0,0,0,2.53,1,8.22,8.22,0,0,1,3.25,1.32,2.73,2.73,0,0,1,1.08,2.28,2.93,2.93,0,0,1-1.23,2.46,6.19,6.19,0,0,1-6.73-.11,3,3,0,0,1-1.2-2.52l0-.06h1.24a2.22,2.22,0,0,0,1.07,1.9,4.57,4.57,0,0,0,2.34.59,3.73,3.73,0,0,0,2.31-.64A1.9,1.9,0,0,0,400.78,441.61Z"/><path class="cls-3" d="M407.33,429.45v3.11H410v1.1h-2.67v7.92a2.55,2.55,0,0,0,.43,1.68,1.42,1.42,0,0,0,1.15.5c.22,0,.43,0,.63,0s.45-.05.72-.1l.2,1a3.84,3.84,0,0,1-.82.23,6.24,6.24,0,0,1-1,.07,2.51,2.51,0,0,1-2-.8,3.8,3.8,0,0,1-.71-2.56v-7.92h-2.1v-1.1H406v-3.11Z"/><path class="cls-2" d="M407.62,362.51a2.11,2.11,0,0,1-.91-.21,3.28,3.28,0,0,1-1.38-1.39,36.35,36.35,0,0,1-2.77-6.15c-.36-.95-.73-1.94-1.12-2.87a3,3,0,0,0-2.55-1.84,3.06,3.06,0,0,0-2.88,1.38l-.7,1.06a40.58,40.58,0,0,0-3.68,6.24,3.6,3.6,0,0,1-.92,1.48,2.35,2.35,0,0,1-1.87.54,3.71,3.71,0,0,1-2.49-1.55,10.21,10.21,0,0,1-.78-1.38,5.9,5.9,0,0,0-.87-1.42c-1.69-1.76-5.32,0-7.21,1.28a8.41,8.41,0,0,1-4.53,1.61h-.27c-3.69,0-4.86-2.71-5.79-4.89-.14-.3-.27-.61-.4-.9-.66-1.43-1.87-2.77-3.08-2.55-1,.2-1.67,1.44-1.95,2.54-.11.42-.19.85-.28,1.28a10,10,0,0,1-1.05,3.3,4.36,4.36,0,0,1-2.84,2,3,3,0,0,1-2.41-.51,4.92,4.92,0,0,1-1.1-1.32c-.26-.41-.48-.75-.73-.85s-.76.15-1.55.8a5.89,5.89,0,0,1-2.3,1.32c-2.11.48-3.87-1.3-4.81-3.13l-.25-.49a8,8,0,0,0-1.43-2.25l-3.34,6.79a1,1,0,0,1-1.8-.88l3.83-7.77a1,1,0,0,1,1.23-.5c1.75.62,2.57,2.26,3.3,3.71l.24.48c.57,1.1,1.59,2.32,2.59,2.09a4.24,4.24,0,0,0,1.48-.93c.92-.74,2.06-1.67,3.53-1.11a3.68,3.68,0,0,1,1.69,1.64,3.56,3.56,0,0,0,.63.81,1,1,0,0,0,.81.14,2.38,2.38,0,0,0,1.51-1.1,8.46,8.46,0,0,0,.81-2.66c.09-.47.18-.94.3-1.4.56-2.19,1.88-3.69,3.52-4,2.42-.46,4.35,1.69,5.26,3.67.15.31.28.63.42.95,1,2.33,1.75,3.73,4.16,3.67a6.37,6.37,0,0,0,3.46-1.26c3.13-2.16,7.35-3.56,9.8-1a7.26,7.26,0,0,1,1.21,1.91A7.69,7.69,0,0,0,388,358a1.79,1.79,0,0,0,1.1.73.41.41,0,0,0,.32-.07,2.29,2.29,0,0,0,.37-.7,41.83,41.83,0,0,1,3.87-6.61l.7-1.06a5.14,5.14,0,0,1,4.73-2.28,5,5,0,0,1,4.21,3.06c.41,1,.79,2,1.16,2.95a33.3,33.3,0,0,0,2.6,5.8,1.94,1.94,0,0,0,.49.62c.3.14.94-.88,1.32-1.49.18-.29.36-.58.54-.83a4.87,4.87,0,0,1,5.78-1.59,7.64,7.64,0,0,1,1,.56,4,4,0,0,0,1.11.54c1.73.4,3.24-2.36,3.78-4.2a6,6,0,0,1,2.76-3.62c3.27-1.79,5.57,1,6.67,2.34l3.24,3.94a1,1,0,1,1-1.54,1.27L429,353.46c-1.53-1.85-2.64-2.69-4.17-1.86A4,4,0,0,0,423,354c-.93,3.16-3.26,6.24-6.15,5.58a5.45,5.45,0,0,1-1.7-.79c-.28-.16-.54-.32-.79-.43a2.85,2.85,0,0,0-3.34.92c-.16.22-.32.47-.48.73C409.94,361,409,362.51,407.62,362.51Z"/><path class="cls-4" d="M435.52,413.87H338a1,1,0,0,1-1-1V331.08a1,1,0,1,1,2,0v80.79h96.52a1,1,0,0,1,0,2Z"/><circle class="cls-1" cx="386.76" cy="618.98" r="94.24"/><path class="cls-2" d="M386.76,714a95,95,0,1,1,95-95A95.09,95.09,0,0,1,386.76,714Zm0-188.48A93.49,93.49,0,1,0,480.25,619,93.6,93.6,0,0,0,386.76,525.49Z"/><path class="cls-3" d="M367.74,622.17H362l-1.11,3.53h-3.32l5.63-16.35h3.36l5.6,16.35h-3.31Zm-4.93-2.57h4.12l-2-6.42h-.07Z"/><path class="cls-3" d="M380,622.35a1.17,1.17,0,0,0-.52-.93,5.4,5.4,0,0,0-1.94-.69,7.93,7.93,0,0,1-3.25-1.3,2.81,2.81,0,0,1-1.1-2.34,3.35,3.35,0,0,1,1.32-2.67,5.36,5.36,0,0,1,3.53-1.09,5.87,5.87,0,0,1,3.71,1.08,3.24,3.24,0,0,1,1.31,2.76l0,.06h-3.16a1.62,1.62,0,0,0-.47-1.19,1.9,1.9,0,0,0-1.37-.46,1.87,1.87,0,0,0-1.25.39,1.23,1.23,0,0,0-.45,1,1.11,1.11,0,0,0,.47.92,5.13,5.13,0,0,0,1.94.64,7.89,7.89,0,0,1,3.34,1.32,2.92,2.92,0,0,1,1.09,2.4,3.19,3.19,0,0,1-1.41,2.68,6.08,6.08,0,0,1-3.7,1,5.64,5.64,0,0,1-3.84-1.23,3.46,3.46,0,0,1-1.34-2.8l0-.07h3a1.7,1.7,0,0,0,.64,1.41,2.66,2.66,0,0,0,1.58.44,2.28,2.28,0,0,0,1.39-.36A1.15,1.15,0,0,0,380,622.35Z"/><path class="cls-3" d="M391.85,622.35a1.17,1.17,0,0,0-.52-.93,5.4,5.4,0,0,0-1.94-.69,7.93,7.93,0,0,1-3.25-1.3,2.81,2.81,0,0,1-1.1-2.34,3.35,3.35,0,0,1,1.32-2.67,5.36,5.36,0,0,1,3.53-1.09,5.82,5.82,0,0,1,3.7,1.08,3.22,3.22,0,0,1,1.32,2.76l0,.06h-3.17a1.61,1.61,0,0,0-.46-1.19,1.9,1.9,0,0,0-1.37-.46,1.87,1.87,0,0,0-1.25.39,1.23,1.23,0,0,0-.45,1,1.11,1.11,0,0,0,.47.92,5.13,5.13,0,0,0,1.94.64,7.89,7.89,0,0,1,3.34,1.32,2.92,2.92,0,0,1,1.09,2.4,3.19,3.19,0,0,1-1.41,2.68,6.08,6.08,0,0,1-3.7,1,5.64,5.64,0,0,1-3.84-1.23,3.43,3.43,0,0,1-1.34-2.8l0-.07h3a1.7,1.7,0,0,0,.64,1.41,2.64,2.64,0,0,0,1.58.44,2.28,2.28,0,0,0,1.39-.36A1.15,1.15,0,0,0,391.85,622.35Z"/><path class="cls-3" d="M402.52,625.94a5.49,5.49,0,0,1-4.2-1.69,6,6,0,0,1-1.58-4.28v-.45a6.63,6.63,0,0,1,1.49-4.45,5.55,5.55,0,0,1,7.81-.26,5.68,5.68,0,0,1,1.36,4v1.78h-7.25l0,.07a3.14,3.14,0,0,0,.8,2,2.52,2.52,0,0,0,1.94.77,6.14,6.14,0,0,0,1.8-.22,8.94,8.94,0,0,0,1.58-.69l.88,2a6.18,6.18,0,0,1-1.94,1A8.6,8.6,0,0,1,402.52,625.94Zm-.29-10.09a1.69,1.69,0,0,0-1.44.7,3.59,3.59,0,0,0-.65,1.83l0,0h4v-.29a2.58,2.58,0,0,0-.49-1.66A1.74,1.74,0,0,0,402.23,615.85Z"/><path class="cls-3" d="M413.21,610.57v3h2v2.3h-2V622a1.45,1.45,0,0,0,.29,1,1.06,1.06,0,0,0,.79.3l.44,0,.43-.1.28,2.37a6.19,6.19,0,0,1-1,.25,5.53,5.53,0,0,1-1,.09,3.52,3.52,0,0,1-2.62-.93,4.11,4.11,0,0,1-.91-3v-6.2h-1.78v-2.3h1.78v-3Z"/><circle class="cls-1" cx="625.56" cy="389.19" r="94.24"/><path class="cls-2" d="M625.56,484.18a95,95,0,1,1,95-95A95.1,95.1,0,0,1,625.56,484.18Zm0-188.48a93.49,93.49,0,1,0,93.49,93.49A93.6,93.6,0,0,0,625.56,295.7Z"/><path class="cls-3" d="M579.47,362.74l0,.07a5.32,5.32,0,0,1-1.61,4.18,7.3,7.3,0,0,1-9.4-.34,6.73,6.73,0,0,1-1.84-4.89v-3.25a6.82,6.82,0,0,1,1.8-4.88,6.11,6.11,0,0,1,4.67-1.91,6.77,6.77,0,0,1,4.74,1.56,5.3,5.3,0,0,1,1.66,4.23l0,.07H576.3a3.55,3.55,0,0,0-.78-2.47,3.06,3.06,0,0,0-2.41-.86,2.76,2.76,0,0,0-2.34,1.19,5.14,5.14,0,0,0-.86,3.05v3.26a4.89,4.89,0,0,0,.91,3.07,3.29,3.29,0,0,0,4.73.37,3.59,3.59,0,0,0,.74-2.45Z"/><path class="cls-3" d="M581.05,362.12a6.46,6.46,0,0,1,1.52-4.45,5.28,5.28,0,0,1,4.2-1.74,5.36,5.36,0,0,1,4.22,1.73,6.49,6.49,0,0,1,1.53,4.46v.24a6.48,6.48,0,0,1-1.53,4.46,6,6,0,0,1-8.42,0,6.52,6.52,0,0,1-1.52-4.46Zm3.27.23a5.25,5.25,0,0,0,.58,2.66,2.25,2.25,0,0,0,3.75,0,5.27,5.27,0,0,0,.59-2.66v-.24a5.15,5.15,0,0,0-.6-2.63,2,2,0,0,0-1.87-1,2,2,0,0,0-1.86,1,5.13,5.13,0,0,0-.59,2.62Z"/><path class="cls-3" d="M597.54,356.16l.14,1.74a4.48,4.48,0,0,1,1.49-1.45,3.86,3.86,0,0,1,2-.52,3.67,3.67,0,0,1,2.88,1.16,5.34,5.34,0,0,1,1,3.63v7.59h-3.29v-7.6a2.46,2.46,0,0,0-.49-1.74,2,2,0,0,0-1.5-.51,2.64,2.64,0,0,0-1.17.26,2.47,2.47,0,0,0-.86.75v8.84h-3.28V356.16Z"/><path class="cls-3" d="M611.42,353.18v3h2v2.3h-2v6.19a1.4,1.4,0,0,0,.29,1,1,1,0,0,0,.78.3,2.9,2.9,0,0,0,.45,0,3,3,0,0,0,.43-.09l.28,2.37a7.57,7.57,0,0,1-1,.25,5.59,5.59,0,0,1-1,.08,3.5,3.5,0,0,1-2.61-.93,4.07,4.07,0,0,1-.91-2.95v-6.2h-1.78v-2.3h1.78v-3Z"/><path class="cls-3" d="M621.94,359l-1.2,0a2.1,2.1,0,0,0-1.2.31,1.83,1.83,0,0,0-.72.85v8.21h-3.27V356.16h3l.15,1.79a3.78,3.78,0,0,1,1.1-1.48,2.47,2.47,0,0,1,1.57-.54,2.19,2.19,0,0,1,.46,0l.42.1Z"/><path class="cls-3" d="M623.1,362.12a6.5,6.5,0,0,1,1.51-4.45,5.28,5.28,0,0,1,4.2-1.74,5.33,5.33,0,0,1,4.22,1.73,6.49,6.49,0,0,1,1.53,4.46v.24a6.52,6.52,0,0,1-1.52,4.46,6,6,0,0,1-8.42,0,6.47,6.47,0,0,1-1.52-4.46Zm3.26.23A5.24,5.24,0,0,0,627,365a2,2,0,0,0,1.88,1,2,2,0,0,0,1.86-1,5.17,5.17,0,0,0,.59-2.66v-.24a5.25,5.25,0,0,0-.59-2.63,2,2,0,0,0-1.88-1,2,2,0,0,0-1.86,1,5.24,5.24,0,0,0-.59,2.62Z"/><path class="cls-3" d="M640,368.31h-3.28V350.79H640Z"/><path class="cls-3" d="M655.59,368.31a6.09,6.09,0,0,1-.31-.88,5.8,5.8,0,0,1-.19-.94,4.57,4.57,0,0,1-1.33,1.47,3.32,3.32,0,0,1-2,.58,4.08,4.08,0,0,1-2.94-1,3.52,3.52,0,0,1-1-2.68,3.21,3.21,0,0,1,1.38-2.77,6.92,6.92,0,0,1,4-1H655v-1a1.87,1.87,0,0,0-.47-1.36,1.77,1.77,0,0,0-1.35-.49,1.75,1.75,0,0,0-1.23.39,1.37,1.37,0,0,0-.44,1.07h-3.16v-.06a3.07,3.07,0,0,1,1.33-2.66,5.81,5.81,0,0,1,3.72-1.12A5.43,5.43,0,0,1,657,357a3.85,3.85,0,0,1,1.36,3.15v5a9,9,0,0,0,.13,1.6,8.12,8.12,0,0,0,.4,1.5Zm-3-2.19a2.79,2.79,0,0,0,1.54-.43,2.24,2.24,0,0,0,.91-1V363H653.2a2.18,2.18,0,0,0-1.58.52,1.68,1.68,0,0,0-.54,1.26,1.28,1.28,0,0,0,.41,1A1.54,1.54,0,0,0,652.59,366.12Z"/><path class="cls-3" d="M663.81,356.16l.14,1.74a4.41,4.41,0,0,1,1.5-1.45,3.8,3.8,0,0,1,2-.52,3.67,3.67,0,0,1,2.88,1.16,5.34,5.34,0,0,1,1,3.63v7.59h-3.29v-7.6a2.46,2.46,0,0,0-.49-1.74,2,2,0,0,0-1.5-.51,2.57,2.57,0,0,0-1.16.26,2.42,2.42,0,0,0-.87.75v8.84h-3.28V356.16Z"/><path class="cls-3" d="M673.28,362.33a7.91,7.91,0,0,1,1.25-4.64,4,4,0,0,1,3.49-1.76,3.29,3.29,0,0,1,1.64.4,3.77,3.77,0,0,1,1.28,1.12v-6.66h3.29v17.52h-2.81l-.27-1.48a4.22,4.22,0,0,1-1.36,1.28,3.59,3.59,0,0,1-1.79.43,4.07,4.07,0,0,1-3.47-1.64,7,7,0,0,1-1.25-4.33Zm3.27.24a5,5,0,0,0,.54,2.53,1.89,1.89,0,0,0,1.75.92,2.55,2.55,0,0,0,1.24-.29,2.23,2.23,0,0,0,.86-.84v-5.21a2.63,2.63,0,0,0-.85-.9,2.34,2.34,0,0,0-1.22-.32,1.86,1.86,0,0,0-1.76,1.07,6.13,6.13,0,0,0-.56,2.81Z"/><path class="cls-3" d="M562.87,383.76l.13,1.6a4,4,0,0,1,3.51-1.83,3.64,3.64,0,0,1,2,.52,3.14,3.14,0,0,1,1.26,1.56,4.29,4.29,0,0,1,1.46-1.53,4,4,0,0,1,2.11-.55,3.53,3.53,0,0,1,2.84,1.24,5.82,5.82,0,0,1,1,3.78v7.36h-3.28v-7.39a3.07,3.07,0,0,0-.45-1.92,1.65,1.65,0,0,0-1.34-.54,2.23,2.23,0,0,0-1.2.31,2.26,2.26,0,0,0-.82.86c0,.14,0,.27,0,.37s0,.2,0,.31v8h-3.26v-7.39a3.06,3.06,0,0,0-.45-1.9,1.64,1.64,0,0,0-1.35-.56,2.51,2.51,0,0,0-1.16.25,2.22,2.22,0,0,0-.83.72v8.88h-3.27V383.76Z"/><path class="cls-3" d="M586.86,395.91a6.09,6.09,0,0,1-.31-.88,5.8,5.8,0,0,1-.19-.94,4.57,4.57,0,0,1-1.33,1.47,3.33,3.33,0,0,1-2,.59,4.08,4.08,0,0,1-2.94-1,3.52,3.52,0,0,1-1-2.68,3.18,3.18,0,0,1,1.38-2.76,6.82,6.82,0,0,1,4-1h1.83v-1a1.87,1.87,0,0,0-.46-1.36,1.78,1.78,0,0,0-1.35-.49,1.75,1.75,0,0,0-1.23.39,1.38,1.38,0,0,0-.44,1.08l-3.16,0v-.06a3.08,3.08,0,0,1,1.33-2.66,5.85,5.85,0,0,1,3.72-1.12,5.43,5.43,0,0,1,3.54,1.11,3.85,3.85,0,0,1,1.36,3.15v5a10.32,10.32,0,0,0,.12,1.61,8.92,8.92,0,0,0,.41,1.49Zm-3-2.19a2.79,2.79,0,0,0,1.54-.43,2.16,2.16,0,0,0,.9-1v-1.71h-1.83a2.18,2.18,0,0,0-1.58.52,1.69,1.69,0,0,0-.54,1.26,1.27,1.27,0,0,0,.41,1A1.59,1.59,0,0,0,583.86,393.72Z"/><path class="cls-3" d="M595.53,380.85h-3.28v-2.46h3.28Zm0,15.06h-3.28V383.76h3.28Z"/><path class="cls-3" d="M601.22,383.76l.14,1.74a4.5,4.5,0,0,1,1.5-1.45,3.81,3.81,0,0,1,2-.52,3.66,3.66,0,0,1,2.87,1.16,5.34,5.34,0,0,1,1,3.63v7.59h-3.29v-7.6a2.46,2.46,0,0,0-.49-1.74,2,2,0,0,0-1.49-.51,2.58,2.58,0,0,0-1.17.26,2.51,2.51,0,0,0-.87.75v8.84h-3.28V383.76Z"/><path class="cls-3" d="M615.1,380.78v3h2v2.3h-2v6.19a1.45,1.45,0,0,0,.29,1,1.06,1.06,0,0,0,.79.3,2.76,2.76,0,0,0,.44,0l.43-.09.28,2.37a6.19,6.19,0,0,1-1,.25,5.53,5.53,0,0,1-1,.09,3.5,3.5,0,0,1-2.61-.94,4.07,4.07,0,0,1-.92-2.95v-6.2h-1.77v-2.3h1.77v-3Z"/><path class="cls-3" d="M624.61,396.15a5.49,5.49,0,0,1-4.2-1.69,6,6,0,0,1-1.57-4.28v-.45a6.67,6.67,0,0,1,1.49-4.46,5.55,5.55,0,0,1,7.81-.26,5.74,5.74,0,0,1,1.36,4v1.79h-7.26l0,.07a3.22,3.22,0,0,0,.8,2,2.53,2.53,0,0,0,1.94.77,6.52,6.52,0,0,0,1.81-.22,8.87,8.87,0,0,0,1.57-.69l.89,2a6,6,0,0,1-2,1A8.31,8.31,0,0,1,624.61,396.15Zm-.29-10.09a1.69,1.69,0,0,0-1.44.7,3.59,3.59,0,0,0-.65,1.83l0,.05h4v-.29a2.69,2.69,0,0,0-.49-1.67A1.79,1.79,0,0,0,624.32,386.06Z"/><path class="cls-3" d="M634.4,383.76l.15,1.74a4.48,4.48,0,0,1,1.49-1.45,3.86,3.86,0,0,1,2-.52,3.67,3.67,0,0,1,2.88,1.16,5.34,5.34,0,0,1,1,3.63v7.59h-3.29v-7.6a2.46,2.46,0,0,0-.49-1.74,2,2,0,0,0-1.5-.51,2.64,2.64,0,0,0-1.17.26,2.47,2.47,0,0,0-.86.75v8.84h-3.28V383.76Z"/><path class="cls-3" d="M651.52,395.91a7.59,7.59,0,0,1-.31-.88,5.78,5.78,0,0,1-.18-.94,4.57,4.57,0,0,1-1.33,1.47,3.36,3.36,0,0,1-2,.59,4.08,4.08,0,0,1-2.94-1,3.51,3.51,0,0,1-1-2.68,3.2,3.2,0,0,1,1.37-2.76,6.85,6.85,0,0,1,4-1H651v-1a1.87,1.87,0,0,0-.46-1.36,1.81,1.81,0,0,0-1.36-.49,1.78,1.78,0,0,0-1.23.39,1.37,1.37,0,0,0-.43,1.08l-3.17,0v-.06a3.09,3.09,0,0,1,1.34-2.66,5.84,5.84,0,0,1,3.71-1.12,5.4,5.4,0,0,1,3.54,1.11,3.83,3.83,0,0,1,1.36,3.15v5a9.21,9.21,0,0,0,.13,1.61,8.05,8.05,0,0,0,.41,1.49Zm-3-2.19a2.77,2.77,0,0,0,1.54-.43,2.19,2.19,0,0,0,.91-1v-1.71h-1.83a2.17,2.17,0,0,0-1.58.52,1.69,1.69,0,0,0-.54,1.26,1.26,1.26,0,0,0,.4,1A1.61,1.61,0,0,0,648.52,393.72Z"/><path class="cls-3" d="M659.74,383.76l.15,1.74a4.39,4.39,0,0,1,1.49-1.45,3.81,3.81,0,0,1,2-.52,3.65,3.65,0,0,1,2.87,1.16,5.33,5.33,0,0,1,1,3.63v7.59H664v-7.6a2.46,2.46,0,0,0-.5-1.74,2,2,0,0,0-1.49-.51,2.58,2.58,0,0,0-1.17.26,2.47,2.47,0,0,0-.86.75v8.84h-3.28V383.76Z"/><path class="cls-3" d="M674.82,393.62a1.94,1.94,0,0,0,1.41-.51,1.8,1.8,0,0,0,.52-1.36h3l0,.07a3.77,3.77,0,0,1-1.38,3.08,5.84,5.84,0,0,1-7.75-.47,6.57,6.57,0,0,1-1.47-4.42v-.33a6.61,6.61,0,0,1,1.47-4.42,5.19,5.19,0,0,1,4.18-1.73,5.1,5.1,0,0,1,3.62,1.28,4.26,4.26,0,0,1,1.33,3.37l0,.07h-3a2.41,2.41,0,0,0-.51-1.57,1.78,1.78,0,0,0-1.43-.62,1.89,1.89,0,0,0-1.83,1,5.48,5.48,0,0,0-.54,2.6V390a5.52,5.52,0,0,0,.54,2.62A1.91,1.91,0,0,0,674.82,393.62Z"/><path class="cls-3" d="M687,396.15a5.49,5.49,0,0,1-4.2-1.69,6,6,0,0,1-1.57-4.28v-.45a6.67,6.67,0,0,1,1.48-4.46,5,5,0,0,1,4-1.74,4.92,4.92,0,0,1,3.81,1.48,5.7,5.7,0,0,1,1.36,4v1.79h-7.25l0,.07a3.16,3.16,0,0,0,.8,2,2.52,2.52,0,0,0,1.94.77,6.45,6.45,0,0,0,1.8-.22,8.94,8.94,0,0,0,1.58-.69l.88,2a6,6,0,0,1-1.94,1A8.31,8.31,0,0,1,687,396.15Zm-.29-10.09a1.69,1.69,0,0,0-1.44.7,3.59,3.59,0,0,0-.65,1.83l0,.05h4v-.29a2.63,2.63,0,0,0-.49-1.67A1.75,1.75,0,0,0,686.72,386.06Z"/><path class="cls-3" d="M597.61,417.77a7,7,0,0,1-1.25,4.33,4.11,4.11,0,0,1-3.48,1.65,3.86,3.86,0,0,1-1.7-.36,3.39,3.39,0,0,1-1.26-1v5.83h-3.27V411.36h3l.19,1.43a3.77,3.77,0,0,1,1.3-1.22,3.47,3.47,0,0,1,1.77-.44,4,4,0,0,1,3.5,1.77,7.85,7.85,0,0,1,1.25,4.63Zm-3.28-.25a5.91,5.91,0,0,0-.57-2.79,1.87,1.87,0,0,0-1.76-1.07,2.5,2.5,0,0,0-1.26.3,2.15,2.15,0,0,0-.82.87v5.33a2,2,0,0,0,.82.79,2.8,2.8,0,0,0,1.29.27,1.87,1.87,0,0,0,1.74-.94,4.92,4.92,0,0,0,.56-2.53Z"/><path class="cls-3" d="M599.12,417.32a6.51,6.51,0,0,1,1.52-4.45,5.28,5.28,0,0,1,4.2-1.74,5.33,5.33,0,0,1,4.22,1.73,6.48,6.48,0,0,1,1.53,4.46v.24a6.52,6.52,0,0,1-1.52,4.46,6,6,0,0,1-8.42,0,6.48,6.48,0,0,1-1.53-4.46Zm3.27.23a5.24,5.24,0,0,0,.59,2.66,2.24,2.24,0,0,0,3.74,0,5.17,5.17,0,0,0,.59-2.66v-.23a5.27,5.27,0,0,0-.59-2.64,2,2,0,0,0-1.88-1,2,2,0,0,0-1.86,1,5.32,5.32,0,0,0-.59,2.64Z"/><path class="cls-3" d="M616.06,423.51h-3.28V406h3.28Z"/><path class="cls-3" d="M622.2,408.45h-3.28V406h3.28Zm0,15.06h-3.28V411.36h3.28Z"/><path class="cls-3" d="M630,421.22a1.93,1.93,0,0,0,1.4-.51,1.81,1.81,0,0,0,.53-1.36h3l0,.07a3.75,3.75,0,0,1-1.39,3.08,5.83,5.83,0,0,1-7.74-.47,6.57,6.57,0,0,1-1.47-4.42v-.33a6.63,6.63,0,0,1,1.46-4.42,5.2,5.2,0,0,1,4.19-1.73,5.13,5.13,0,0,1,3.62,1.28,4.26,4.26,0,0,1,1.33,3.37l0,.07h-3a2.36,2.36,0,0,0-.52-1.57,1.76,1.76,0,0,0-1.42-.62,1.92,1.92,0,0,0-1.84,1,5.49,5.49,0,0,0-.53,2.6v.34a5.52,5.52,0,0,0,.53,2.62A1.92,1.92,0,0,0,630,421.22Z"/><path class="cls-3" d="M640.25,408.45H637V406h3.28Zm0,15.06H637V411.36h3.28Z"/><path class="cls-3" d="M648.33,423.75a5.46,5.46,0,0,1-4.2-1.69,6,6,0,0,1-1.58-4.28v-.45a6.67,6.67,0,0,1,1.49-4.46,5.55,5.55,0,0,1,7.81-.26,5.7,5.7,0,0,1,1.36,4v1.79H646l0,.07a3.17,3.17,0,0,0,.81,2,2.51,2.51,0,0,0,1.93.77,6.52,6.52,0,0,0,1.81-.22,8.87,8.87,0,0,0,1.57-.69l.89,2a6,6,0,0,1-1.94,1A8.31,8.31,0,0,1,648.33,423.75Zm-.3-10.09a1.69,1.69,0,0,0-1.43.7,3.59,3.59,0,0,0-.66,1.83l0,.05h4V416a2.63,2.63,0,0,0-.49-1.67A1.79,1.79,0,0,0,648,413.66Z"/><path class="cls-3" d="M661.69,420.16a1.13,1.13,0,0,0-.52-.93,5.56,5.56,0,0,0-1.94-.7,7.79,7.79,0,0,1-3.25-1.29,2.84,2.84,0,0,1-1.1-2.34,3.35,3.35,0,0,1,1.32-2.67,5.37,5.37,0,0,1,3.54-1.1,5.84,5.84,0,0,1,3.7,1.09,3.25,3.25,0,0,1,1.32,2.75l0,.07h-3.16a1.6,1.6,0,0,0-.47-1.19,1.85,1.85,0,0,0-1.36-.46,1.88,1.88,0,0,0-1.26.39,1.23,1.23,0,0,0-.45,1,1.11,1.11,0,0,0,.48.92,5.18,5.18,0,0,0,1.93.64,7.89,7.89,0,0,1,3.34,1.32,2.92,2.92,0,0,1,1.09,2.4,3.2,3.2,0,0,1-1.41,2.68,6.08,6.08,0,0,1-3.7,1,5.59,5.59,0,0,1-3.84-1.24,3.44,3.44,0,0,1-1.34-2.8l0-.06h3a1.7,1.7,0,0,0,.64,1.41,2.67,2.67,0,0,0,1.59.44,2.27,2.27,0,0,0,1.38-.36A1.16,1.16,0,0,0,661.69,420.16Z"/><circle class="cls-1" cx="148.16" cy="389.19" r="94.24"/><path class="cls-2" d="M148.16,484.18a95,95,0,1,1,95-95A95.1,95.1,0,0,1,148.16,484.18Zm0-188.48a93.49,93.49,0,1,0,93.49,93.49A93.6,93.6,0,0,0,148.16,295.7Z"/><path class="cls-3" d="M129.13,378.58h-5.74l-1.11,3.53H119l5.63-16.35H128l5.61,16.35h-3.32ZM124.2,376h4.12l-2-6.42h-.06Z"/><path class="cls-3" d="M141.39,378.76a1.14,1.14,0,0,0-.53-.93,5.49,5.49,0,0,0-1.93-.7,7.84,7.84,0,0,1-3.26-1.29,2.83,2.83,0,0,1-1.09-2.34,3.35,3.35,0,0,1,1.32-2.67,5.36,5.36,0,0,1,3.53-1.1,5.84,5.84,0,0,1,3.7,1.09,3.2,3.2,0,0,1,1.32,2.75l0,.07h-3.17a1.6,1.6,0,0,0-.46-1.19,1.88,1.88,0,0,0-1.37-.46,1.85,1.85,0,0,0-1.25.39,1.24,1.24,0,0,0-.46,1,1.11,1.11,0,0,0,.48.92,5.32,5.32,0,0,0,1.94.64,7.78,7.78,0,0,1,3.33,1.32,2.89,2.89,0,0,1,1.09,2.4,3.19,3.19,0,0,1-1.4,2.68,6.11,6.11,0,0,1-3.71,1,5.63,5.63,0,0,1-3.83-1.23,3.4,3.4,0,0,1-1.34-2.8l0-.06h3a1.67,1.67,0,0,0,.64,1.41,2.64,2.64,0,0,0,1.58.44,2.28,2.28,0,0,0,1.39-.36A1.16,1.16,0,0,0,141.39,378.76Z"/><path class="cls-3" d="M153.24,378.76a1.13,1.13,0,0,0-.52-.93,5.49,5.49,0,0,0-1.93-.7,7.84,7.84,0,0,1-3.26-1.29,2.83,2.83,0,0,1-1.09-2.34,3.35,3.35,0,0,1,1.32-2.67,5.36,5.36,0,0,1,3.53-1.1,5.84,5.84,0,0,1,3.7,1.09,3.2,3.2,0,0,1,1.32,2.75l0,.07h-3.17a1.6,1.6,0,0,0-.46-1.19,1.88,1.88,0,0,0-1.37-.46,1.85,1.85,0,0,0-1.25.39,1.24,1.24,0,0,0-.46,1,1.11,1.11,0,0,0,.48.92,5.32,5.32,0,0,0,1.94.64,7.78,7.78,0,0,1,3.33,1.32,2.89,2.89,0,0,1,1.09,2.4,3.19,3.19,0,0,1-1.4,2.68,6.11,6.11,0,0,1-3.71,1,5.63,5.63,0,0,1-3.83-1.23,3.4,3.4,0,0,1-1.34-2.8l0-.06h3a1.67,1.67,0,0,0,.64,1.41,2.64,2.64,0,0,0,1.58.44,2.28,2.28,0,0,0,1.39-.36A1.16,1.16,0,0,0,153.24,378.76Z"/><path class="cls-3" d="M163.91,382.34a5.48,5.48,0,0,1-4.2-1.68,6.05,6.05,0,0,1-1.57-4.28v-.45a6.67,6.67,0,0,1,1.49-4.46,5.55,5.55,0,0,1,7.81-.26,5.7,5.7,0,0,1,1.36,4V377h-7.26l0,.07a3.19,3.19,0,0,0,.8,2,2.55,2.55,0,0,0,1.94.77,6.52,6.52,0,0,0,1.81-.22,8.87,8.87,0,0,0,1.57-.69l.89,2a5.8,5.8,0,0,1-1.94,1A8.38,8.38,0,0,1,163.91,382.34Zm-.29-10.08a1.72,1.72,0,0,0-1.44.7,3.68,3.68,0,0,0-.65,1.83l0,0h4v-.29a2.67,2.67,0,0,0-.49-1.67A1.79,1.79,0,0,0,163.62,372.26Z"/><path class="cls-3" d="M174.61,367v3h2v2.3h-2v6.19a1.4,1.4,0,0,0,.29,1,1,1,0,0,0,.78.3,2.9,2.9,0,0,0,.45,0l.43-.09.28,2.37a7.29,7.29,0,0,1-1,.25,5.41,5.41,0,0,1-1,.08,3.5,3.5,0,0,1-2.61-.93,4.07,4.07,0,0,1-.91-3v-6.2h-1.78V370h1.78v-3Z"/><path class="cls-3" d="M125.78,409.71V393.36h5.62a6.77,6.77,0,0,1,4.94,1.91,6.64,6.64,0,0,1,1.94,4.92v2.7a6.61,6.61,0,0,1-1.94,4.92,6.81,6.81,0,0,1-4.94,1.9Zm3.28-13.83v11.3h2.17A3.4,3.4,0,0,0,134,406a4.65,4.65,0,0,0,1-3.11v-2.72a4.63,4.63,0,0,0-1-3.09,3.43,3.43,0,0,0-2.76-1.19Z"/><path class="cls-3" d="M147.71,409.71a7.59,7.59,0,0,1-.31-.88,7.1,7.1,0,0,1-.18-.94,4.57,4.57,0,0,1-1.33,1.47,3.33,3.33,0,0,1-2,.59,4.07,4.07,0,0,1-2.94-1,3.52,3.52,0,0,1-1-2.68,3.18,3.18,0,0,1,1.38-2.76,6.82,6.82,0,0,1,4-1h1.83v-1a1.87,1.87,0,0,0-.46-1.36,2.13,2.13,0,0,0-2.59-.1,1.41,1.41,0,0,0-.43,1.08l-3.16,0,0-.06a3.11,3.11,0,0,1,1.34-2.66,5.85,5.85,0,0,1,3.72-1.12,5.43,5.43,0,0,1,3.54,1.11,3.85,3.85,0,0,1,1.35,3.15v5a10.06,10.06,0,0,0,.13,1.6,9,9,0,0,0,.41,1.5Zm-3-2.19a2.76,2.76,0,0,0,1.53-.43,2.13,2.13,0,0,0,.91-1v-1.71h-1.83a2.18,2.18,0,0,0-1.58.52,1.69,1.69,0,0,0-.54,1.26,1.3,1.3,0,0,0,.4,1A1.57,1.57,0,0,0,144.72,407.52Z"/><path class="cls-3" d="M156.83,394.58v3h2v2.3h-2v6.19a1.4,1.4,0,0,0,.3,1,1,1,0,0,0,.78.3,3,3,0,0,0,.45,0,3.34,3.34,0,0,0,.43-.09l.28,2.37a7.29,7.29,0,0,1-1,.25,5.38,5.38,0,0,1-1,.09,3.5,3.5,0,0,1-2.61-.94,4.07,4.07,0,0,1-.92-2.95v-6.2h-1.77v-2.3h1.77v-3Z"/><path class="cls-3" d="M168.1,409.71a6.09,6.09,0,0,1-.31-.88,5.8,5.8,0,0,1-.19-.94,4.46,4.46,0,0,1-1.33,1.47,3.31,3.31,0,0,1-2,.59,4.08,4.08,0,0,1-2.94-1,3.51,3.51,0,0,1-1-2.68,3.17,3.17,0,0,1,1.37-2.76,6.85,6.85,0,0,1,4-1h1.83v-1a1.91,1.91,0,0,0-.46-1.36,1.81,1.81,0,0,0-1.36-.49,1.78,1.78,0,0,0-1.23.39,1.37,1.37,0,0,0-.43,1.08l-3.17,0v-.06a3.1,3.1,0,0,1,1.33-2.66,5.89,5.89,0,0,1,3.72-1.12,5.43,5.43,0,0,1,3.54,1.11,3.85,3.85,0,0,1,1.36,3.15v5a9,9,0,0,0,.13,1.6,7.43,7.43,0,0,0,.41,1.5Zm-3-2.19a2.77,2.77,0,0,0,1.54-.43,2.19,2.19,0,0,0,.91-1v-1.71h-1.83a2.19,2.19,0,0,0-1.59.52,1.69,1.69,0,0,0-.54,1.26,1.27,1.27,0,0,0,.41,1A1.54,1.54,0,0,0,165.1,407.52Z"/></g></svg>