<svg xmlns="http://www.w3.org/2000/svg" width="58.692" height="54.384" viewBox="0 0 58.692 54.384">
  <g id="Group_729" data-name="Group 729" transform="translate(-399.007 -1558.392)">
    <g id="Layer_1" data-name="Layer 1">
      <g id="Group_727" data-name="Group 727">
        <path id="Path_256" data-name="Path 256" d="M438.579,1603.724a22.738,22.738,0,0,0,12.517-20.317q0-.664-.038-1.319" fill="none" stroke="#1bc691" stroke-linecap="round" stroke-linejoin="round" stroke-width="2"/>
        <path id="Path_257" data-name="Path 257" d="M405.653,1582.178q-.032.61-.032,1.229a22.737,22.737,0,0,0,12.44,20.278" fill="none" stroke="#1bc691" stroke-linecap="round" stroke-linejoin="round" stroke-width="2"/>
        <path id="Path_258" data-name="Path 258" d="M440.759,1564.346a22.754,22.754,0,0,0-24.982.119" fill="none" stroke="#1bc691" stroke-linecap="round" stroke-linejoin="round" stroke-width="2"/>
        <circle id="Ellipse_30" data-name="Ellipse 30" cx="5.109" cy="5.109" r="5.109" transform="translate(423.25 1578.299)" fill="none" stroke="#1bc691" stroke-linecap="round" stroke-linejoin="round" stroke-width="2"/>
        <path id="Path_259" data-name="Path 259" d="M432.251,1593.262a10.524,10.524,0,0,1-7.868-.03l-9.24,15.277a28.357,28.357,0,0,0,26.354.039Z" fill="none" stroke="#1bc691" stroke-linecap="round" stroke-linejoin="round" stroke-width="2"/>
        <path id="Path_260" data-name="Path 260" d="M417.864,1581.945a10.528,10.528,0,0,1,3.9-6.834l-8.75-15.562a28.358,28.358,0,0,0-13.006,22.921Z" fill="none" stroke="#1bc691" stroke-linecap="round" stroke-linejoin="round" stroke-width="2"/>
        <path id="Path_261" data-name="Path 261" d="M434.91,1575.08a10.529,10.529,0,0,1,3.938,6.812l17.851.286a28.358,28.358,0,0,0-13.242-22.786Z" fill="none" stroke="#1bc691" stroke-linecap="round" stroke-linejoin="round" stroke-width="2"/>
      </g>
    </g>
    <g id="Layer_4" data-name="Layer 4">
      <g id="Group_728" data-name="Group 728">
        <circle id="Ellipse_31" data-name="Ellipse 31" cx="5.109" cy="5.109" r="5.109" transform="translate(423.25 1578.299)" fill="none" stroke="#1bc691" stroke-linecap="round" stroke-linejoin="round" stroke-width="2"/>
        <path id="Path_262" data-name="Path 262" d="M432.251,1593.262a10.524,10.524,0,0,1-7.868-.03l-9.24,15.277a28.357,28.357,0,0,0,26.354.039Z" fill="none" stroke="#1bc691" stroke-linecap="round" stroke-linejoin="round" stroke-width="2"/>
        <path id="Path_263" data-name="Path 263" d="M417.864,1581.945a10.528,10.528,0,0,1,3.9-6.834l-8.75-15.562a28.358,28.358,0,0,0-13.006,22.921Z" fill="none" stroke="#1bc691" stroke-linecap="round" stroke-linejoin="round" stroke-width="2"/>
        <path id="Path_264" data-name="Path 264" d="M434.91,1575.08a10.529,10.529,0,0,1,3.938,6.812l17.851.286a28.358,28.358,0,0,0-13.242-22.786Z" fill="none" stroke="#1bc691" stroke-linecap="round" stroke-linejoin="round" stroke-width="2"/>
      </g>
    </g>
  </g>
</svg>
