<svg xmlns="http://www.w3.org/2000/svg" viewBox="0 0 81.99 81.99"><defs><style>.cls-1{fill:#1bc691;}</style></defs><g id="Layer_1" data-name="Layer 1"><path class="cls-1" d="M41,67.39a1,1,0,0,1-.76-.35L18.34,41.28a1,1,0,0,1,.76-1.65H32.74V1.39a1,1,0,0,1,2,0V40.63a1,1,0,0,1-1,1H21.26L41,64.85,60.72,41.63H48.93a1,1,0,0,1-1-1V26.17a1,1,0,1,1,2,0V39.63h13a1,1,0,0,1,.77,1.65L41.75,67A1,1,0,0,1,41,67.39Z"/><path class="cls-1" d="M41,82A41,41,0,1,1,82,41,41,41,0,0,1,41,82ZM41,2A39,39,0,1,0,80,41,39,39,0,0,0,41,2Z"/></g></svg>