<svg id="Group_265" data-name="Group 265" xmlns="http://www.w3.org/2000/svg" width="49.084" height="49.096" viewBox="0 0 49.084 49.096">
  <path id="Path_202" data-name="Path 202" d="M2660.342,2730.954a24.542,24.542,0,1,1-24.5-24.649A24.523,24.523,0,0,1,2660.342,2730.954Zm-33.072-7.369c-1.054,2.008-.536,3.648.927,5.324l-1.511-.318a4.348,4.348,0,0,0,2.635,3.849l-1.148.318a4.314,4.314,0,0,0,3.331,2.711l.08.4-5.148,1.536c.136.079.343.215.563.324a11.385,11.385,0,0,0,16.394-8.027c.35-1.695.459-3.369,1.928-4.538.015-.011-.054-.126-.1-.227l-1.279.271,1.088-1.789a3.778,3.778,0,0,1-3.753-.176c-2.414-1.4-5.453.434-5.763,3.231-.046.414-.049.833-.074,1.277A11.941,11.941,0,0,1,2627.27,2723.585Z" transform="translate(-2611.258 -2706.304)" fill="#fff"/>
</svg>
