<svg xmlns="http://www.w3.org/2000/svg" width="69.161" height="60.28" viewBox="0 0 69.161 60.28">
  <g id="Group_567" data-name="Group 567" transform="translate(1.414 1.233)">
    <circle id="Ellipse_14" data-name="Ellipse 14" cx="3.045" cy="3.045" r="3.045" transform="translate(30.07 35.12)" fill="none" stroke="#1bc691" stroke-linecap="round" stroke-linejoin="round" stroke-width="2"/>
    <g id="Group_242" data-name="Group 242" transform="translate(29.695)">
      <path id="Path_190" data-name="Path 190" d="M790.8,1550.331s-7.7,27.423,0,35.12" transform="translate(-787.382 -1550.331)" fill="none" stroke="#1bc691" stroke-linecap="round" stroke-linejoin="round" stroke-width="2"/>
      <path id="Path_191" data-name="Path 191" d="M791.33,1550.331s7.7,27.423,0,35.12" transform="translate(-787.909 -1550.331)" fill="none" stroke="#1bc691" stroke-linecap="round" stroke-linejoin="round" stroke-width="2"/>
    </g>
    <g id="Group_243" data-name="Group 243" transform="translate(36.161 39.418)">
      <path id="Path_192" data-name="Path 192" d="M825.016,1614.033s-19.619-20.65-30.172-17.976" transform="translate(-794.844 -1595.818)" fill="none" stroke="#1bc691" stroke-linecap="round" stroke-linejoin="round" stroke-width="2"/>
      <path id="Path_193" data-name="Path 193" d="M825.016,1614.07s-27.5-7.424-30.172-17.976" transform="translate(-794.844 -1595.855)" fill="none" stroke="#1bc691" stroke-linecap="round" stroke-linejoin="round" stroke-width="2"/>
    </g>
    <g id="Group_244" data-name="Group 244" transform="translate(0 39.405)">
      <path id="Path_194" data-name="Path 194" d="M753.115,1613.58s27.621-6.954,30.473-17.46" transform="translate(-753.115 -1595.845)" fill="none" stroke="#1bc691" stroke-linecap="round" stroke-linejoin="round" stroke-width="2"/>
      <path id="Path_195" data-name="Path 195" d="M753.115,1613.537s19.968-20.312,30.473-17.46" transform="translate(-753.115 -1595.803)" fill="none" stroke="#1bc691" stroke-linecap="round" stroke-linejoin="round" stroke-width="2"/>
    </g>
    <line id="Line_17" data-name="Line 17" y2="14.033" transform="translate(33.116 41.211)" fill="none" stroke="#1bc691" stroke-linecap="round" stroke-linejoin="round" stroke-width="2"/>
  </g>
</svg>
